M48
METRIC,LZ,000.000
;FILE_FORMAT=3:3
;TYPE=PLATED
;Layer: PTH_Through
;EasyEDA v6.5.23, 2023-06-06 20:47:31
;e563b856323e489fb497cbcb29ae2dd2,10
;Gerber Generator version 0.2
;Holesize 1 = 0.635 mm
T01C0.635
;Holesize 2 = 0.800 mm
T02C0.800
;Holesize 3 = 0.915 mm
T03C0.915
;Holesize 4 = 1.101 mm
T04C1.101
%
G05
G90
T01
X051689Y002543G85X051689Y002537
X051689Y010153G85X051689Y010148
T02
X006243Y066040
X008743Y066040
T03
X035200Y024390
X035200Y047250
X035200Y044710
X035200Y042170
X035200Y039630
X035200Y037090
X035200Y034550
X035200Y032010
X035200Y029470
X035200Y026930
X007570Y058090
X007570Y055550
X007570Y053010
X007570Y050470
X007570Y047930
X007570Y045390
X007570Y042850
X007570Y040310
X007570Y037770
X007570Y035230
X007570Y032690
X007570Y030150
X007570Y027610
X007570Y025070
X007570Y022530
X007570Y019990
X007570Y017450
X007570Y014910
X007570Y012370
X030430Y012370
X030430Y014910
X030430Y017450
X030430Y019990
X030430Y022530
X030430Y025070
X030430Y027610
X030430Y030150
X030430Y032690
X030430Y035230
X030430Y037770
X030430Y040310
X030430Y042850
X030430Y045390
X030430Y047930
X030430Y050470
X030430Y053010
X030430Y055550
X030430Y058090
T04
X002500Y035240
X002500Y037780
X002500Y040320
X002500Y042860
X042418Y009017
X042418Y011557
X042418Y014097
X042418Y016637
X042418Y019177
X042418Y021717
X042418Y024257
X042418Y026797
X042418Y029337
X042418Y031877
X042418Y034417
X042418Y036957
X042418Y039497
X036576Y055530
X036576Y058070
X002500Y013380
X002500Y015920
X002500Y018460
X002500Y021000
X002500Y023540
X002500Y026080
X002500Y028620
X002500Y048190
X002500Y050730
X002500Y053270
X002500Y055810
M30
