M48
METRIC,LZ,000.000
;FILE_FORMAT=3:3
;TYPE=PLATED
;Layer: PTH_Through
;EasyEDA v6.5.23, 2023-06-18 13:26:56
;e563b856323e489fb497cbcb29ae2dd2,10
;Gerber Generator version 0.2
;Holesize 1 = 0.600 mm
T01C0.600
;Holesize 2 = 0.915 mm
T02C0.915
;Holesize 3 = 1.000 mm
T03C1.000
;Holesize 4 = 1.101 mm
T04C1.101
;Holesize 5 = 1.200 mm
T05C1.200
%
G05
G90
T01
X012024Y023815
X010524Y024565
X012024Y025315
X009024Y025315
X010524Y026065
X009024Y026815
X012024Y026815
X010524Y027565
X012024Y028315
X009024Y028315
X010524Y029065
X009024Y029815
X012024Y029815
X010524Y030565
X012024Y031315
X009024Y031315
X010524Y032065
X009024Y032815
X012024Y032815
T02
X052959Y010922
X055499Y010922
X052959Y013462
X055499Y013462
X052959Y016002
X055499Y016002
X052959Y018542
X055499Y018542
X052959Y021082
X055499Y021082
X052959Y023622
X055499Y023622
X052959Y026162
X055499Y026162
X052959Y028702
X055499Y028702
X052959Y031242
X055499Y031242
X052959Y033782
X055499Y033782
X052959Y036322
X055499Y036322
X052959Y038862
X055499Y038862
X052959Y041402
X055499Y041402
X052959Y043942
X055499Y043942
X052959Y046482
X055499Y046482
X052959Y049022
X055499Y049022
X052959Y051562
X055499Y051562
X052959Y054102
X055499Y054102
X052959Y056642
X055499Y056642
X052959Y059182
X055499Y059182
T03
X003424Y020715G85X004024Y020715
X003424Y036435G85X004024Y036435
T04
X067000Y031241G85X067000Y031246
X067000Y033781G85X067000Y033786
X067000Y036321G85X067000Y036326
X067000Y038861G85X067000Y038866
X067000Y049019G85X067000Y049025
X067000Y051559G85X067000Y051565
X067000Y054099G85X067000Y054105
X067000Y056639G85X067000Y056645
X067000Y059179G85X067000Y059185
T05
X067000Y021065
X067000Y018525
X067000Y015985
X067000Y013445
X067000Y010905
X067000Y008365
X067000Y069469
X067000Y072009
X067000Y074549
X067000Y077089
X067000Y079629
X067000Y082169
M30
