M48
METRIC,LZ,000.000
;FILE_FORMAT=3:3
;TYPE=PLATED
;Layer: PTH_Through
;EasyEDA v6.5.23, 2023-06-18 13:26:56
;e563b856323e489fb497cbcb29ae2dd2,10
;Gerber Generator version 0.2
;Holesize 1 = 0.600 mm
T01C0.600
;Holesize 2 = 0.915 mm
T02C0.915
;Holesize 3 = 1.000 mm
T03C1.000
;Holesize 4 = 1.101 mm
T04C1.101
;Holesize 5 = 1.200 mm
T05C1.200
%
G05
G90
T01
X028661Y023434
X027161Y024184
X028661Y024934
X025661Y024934
X027161Y025684
X025661Y026434
X028661Y026434
X027161Y027184
X028661Y027934
X025661Y027934
X027161Y028684
X025661Y029434
X028661Y029434
X027161Y030184
X028661Y030934
X025661Y030934
X027161Y031684
X025661Y032434
X028661Y032434
T02
X063119Y010668
X065659Y010668
X063119Y013208
X065659Y013208
X063119Y015748
X065659Y015748
X063119Y018288
X065659Y018288
X063119Y020828
X065659Y020828
X063119Y023368
X065659Y023368
X063119Y025908
X065659Y025908
X063119Y028448
X065659Y028448
X063119Y030988
X065659Y030988
X063119Y033528
X065659Y033528
X063119Y036068
X065659Y036068
X063119Y038608
X065659Y038608
X063119Y041148
X065659Y041148
X063119Y043688
X065659Y043688
X063119Y046228
X065659Y046228
X063119Y048768
X065659Y048768
X063119Y051308
X065659Y051308
X063119Y053848
X065659Y053848
X063119Y056388
X065659Y056388
X063119Y058928
X065659Y058928
T03
X020061Y020334G85X020661Y020334
X020061Y036054G85X020661Y036054
T04
X074254Y030987G85X074254Y030992
X074254Y033527G85X074254Y033532
X074254Y036067G85X074254Y036072
X074254Y038607G85X074254Y038612
X074254Y048765G85X074254Y048771
X074254Y051305G85X074254Y051311
X074254Y053845G85X074254Y053851
X074254Y056385G85X074254Y056391
X074254Y058925G85X074254Y058931
T05
X074254Y020811
X074254Y018271
X074254Y015731
X074254Y013191
X074254Y010651
X074254Y008111
X074254Y069215
X074254Y071755
X074254Y074295
X074254Y076835
X074254Y079375
X074254Y081915
M30
