G04 Layer: TopLayer*
G04 EasyEDA v6.5.23, 2023-06-18 13:26:56*
G04 e563b856323e489fb497cbcb29ae2dd2,10*
G04 Gerber Generator version 0.2*
G04 Scale: 100 percent, Rotated: No, Reflected: No *
G04 Dimensions in millimeters *
G04 leading zeros omitted , absolute positions ,4 integer and 5 decimal *
%FSLAX45Y45*%
%MOMM*%

%ADD10C,1.8000*%
%ADD11R,1.8000X1.8000*%
%ADD12C,1.5240*%
%ADD13R,1.7000X1.7000*%
%ADD14C,1.7000*%
%ADD15C,1.0000*%
%ADD16O,2.1999956000000003X1.499997*%

%LPD*%
D10*
G01*
X6699986Y2106515D03*
G01*
X6699986Y1852515D03*
G01*
X6699986Y1598515D03*
G01*
X6699986Y1344515D03*
G01*
X6699986Y1090515D03*
D11*
G01*
X6699986Y836515D03*
D12*
G01*
X5295900Y1092200D03*
G01*
X5549900Y1092200D03*
G01*
X5295900Y1346200D03*
G01*
X5549900Y1346200D03*
G01*
X5295900Y1600200D03*
G01*
X5549900Y1600200D03*
G01*
X5295900Y1854200D03*
G01*
X5549900Y1854200D03*
G01*
X5295900Y2108200D03*
G01*
X5549900Y2108200D03*
G01*
X5295900Y2362200D03*
G01*
X5549900Y2362200D03*
G01*
X5295900Y2616200D03*
G01*
X5549900Y2616200D03*
G01*
X5295900Y2870200D03*
G01*
X5549900Y2870200D03*
G01*
X5295900Y3124200D03*
G01*
X5549900Y3124200D03*
G01*
X5295900Y3378200D03*
G01*
X5549900Y3378200D03*
G01*
X5295900Y3632200D03*
G01*
X5549900Y3632200D03*
G01*
X5295900Y3886200D03*
G01*
X5549900Y3886200D03*
G01*
X5295900Y4140200D03*
G01*
X5549900Y4140200D03*
G01*
X5295900Y4394200D03*
G01*
X5549900Y4394200D03*
G01*
X5295900Y4648200D03*
G01*
X5549900Y4648200D03*
G01*
X5295900Y4902200D03*
G01*
X5549900Y4902200D03*
G01*
X5295900Y5156200D03*
G01*
X5549900Y5156200D03*
G01*
X5295900Y5410200D03*
G01*
X5549900Y5410200D03*
G01*
X5295900Y5664200D03*
G01*
X5549900Y5664200D03*
G01*
X5295900Y5918200D03*
G01*
X5549900Y5918200D03*
D10*
G01*
X6699986Y6946884D03*
G01*
X6699986Y7200884D03*
G01*
X6699986Y7454884D03*
G01*
X6699986Y7708884D03*
G01*
X6699986Y7962884D03*
D11*
G01*
X6699986Y8216884D03*
D13*
G01*
X6699986Y3124393D03*
D14*
G01*
X6699986Y3378393D03*
G01*
X6699986Y3632393D03*
G01*
X6699986Y3886393D03*
D13*
G01*
X6699986Y4902200D03*
D14*
G01*
X6699986Y5156200D03*
G01*
X6699986Y5410200D03*
G01*
X6699986Y5664200D03*
G01*
X6699986Y5918200D03*
D15*
G01*
X1202397Y2381504D03*
G01*
X1052385Y2456510D03*
G01*
X1202397Y2531490D03*
G01*
X902398Y2531490D03*
G01*
X1052385Y2606497D03*
G01*
X902398Y2681503D03*
G01*
X1202397Y2681503D03*
G01*
X1052385Y2756509D03*
G01*
X1202397Y2831490D03*
G01*
X902398Y2831490D03*
G01*
X1052385Y2906496D03*
G01*
X902398Y2981502D03*
G01*
X1202397Y2981502D03*
G01*
X1052385Y3056509D03*
G01*
X1202397Y3131515D03*
G01*
X902398Y3131515D03*
G01*
X1052385Y3206495D03*
G01*
X902398Y3281502D03*
G01*
X1202397Y3281502D03*
D16*
G01*
X372402Y2071496D03*
G01*
X372402Y3643503D03*
M02*
