G04 Layer: TopSilkscreenLayer*
G04 EasyEDA v6.5.23, 2023-06-18 13:26:56*
G04 e563b856323e489fb497cbcb29ae2dd2,10*
G04 Gerber Generator version 0.2*
G04 Scale: 100 percent, Rotated: No, Reflected: No *
G04 Dimensions in millimeters *
G04 leading zeros omitted , absolute positions ,4 integer and 5 decimal *
%FSLAX45Y45*%
%MOMM*%

%ADD10C,0.1524*%
%ADD11C,0.2032*%
%ADD12C,0.2030*%
%ADD13C,0.2540*%

%LPD*%
D10*
X7157669Y1420715D02*
G01*
X7266635Y1420715D01*
X7157669Y1420715D02*
G01*
X7157669Y1467451D01*
X7162749Y1482945D01*
X7168083Y1488279D01*
X7178497Y1493362D01*
X7193991Y1493362D01*
X7204405Y1488279D01*
X7209485Y1482945D01*
X7214819Y1467451D01*
X7214819Y1420715D01*
X7157669Y1558894D02*
G01*
X7162749Y1548480D01*
X7173163Y1538063D01*
X7183577Y1532983D01*
X7199325Y1527649D01*
X7225233Y1527649D01*
X7240727Y1532983D01*
X7251141Y1538063D01*
X7261555Y1548480D01*
X7266635Y1558894D01*
X7266635Y1579719D01*
X7261555Y1590133D01*
X7251141Y1600547D01*
X7240727Y1605630D01*
X7225233Y1610961D01*
X7199325Y1610961D01*
X7183577Y1605630D01*
X7173163Y1600547D01*
X7162749Y1590133D01*
X7157669Y1579719D01*
X7157669Y1558894D01*
X7157669Y1645251D02*
G01*
X7266635Y1645251D01*
X7157669Y1645251D02*
G01*
X7157669Y1691990D01*
X7162749Y1707481D01*
X7168083Y1712815D01*
X7178497Y1717895D01*
X7188911Y1717895D01*
X7199325Y1712815D01*
X7204405Y1707481D01*
X7209485Y1691990D01*
X7209485Y1645251D01*
X7209485Y1681576D02*
G01*
X7266635Y1717895D01*
X7157669Y1788507D02*
G01*
X7266635Y1788507D01*
X7157669Y1752185D02*
G01*
X7157669Y1824829D01*
X7303211Y1859119D02*
G01*
X7303211Y1952845D01*
X7157669Y2038951D02*
G01*
X7230313Y1987135D01*
X7230313Y2064862D01*
X7157669Y2038951D02*
G01*
X7266635Y2038951D01*
X7693101Y7581900D02*
G01*
X7584135Y7581900D01*
X7693101Y7581900D02*
G01*
X7693101Y7535163D01*
X7688021Y7519670D01*
X7682687Y7514336D01*
X7672273Y7509255D01*
X7656779Y7509255D01*
X7646365Y7514336D01*
X7641285Y7519670D01*
X7635951Y7535163D01*
X7635951Y7581900D01*
X7693101Y7443723D02*
G01*
X7688021Y7454137D01*
X7677607Y7464552D01*
X7667193Y7469631D01*
X7651445Y7474965D01*
X7625537Y7474965D01*
X7610043Y7469631D01*
X7599629Y7464552D01*
X7589215Y7454137D01*
X7584135Y7443723D01*
X7584135Y7422895D01*
X7589215Y7412481D01*
X7599629Y7402068D01*
X7610043Y7396987D01*
X7625537Y7391654D01*
X7651445Y7391654D01*
X7667193Y7396987D01*
X7677607Y7402068D01*
X7688021Y7412481D01*
X7693101Y7422895D01*
X7693101Y7443723D01*
X7693101Y7357363D02*
G01*
X7584135Y7357363D01*
X7693101Y7357363D02*
G01*
X7693101Y7310628D01*
X7688021Y7295134D01*
X7682687Y7289800D01*
X7672273Y7284720D01*
X7661859Y7284720D01*
X7651445Y7289800D01*
X7646365Y7295134D01*
X7641285Y7310628D01*
X7641285Y7357363D01*
X7641285Y7321042D02*
G01*
X7584135Y7284720D01*
X7693101Y7214108D02*
G01*
X7584135Y7214108D01*
X7693101Y7250429D02*
G01*
X7693101Y7177786D01*
X7547559Y7143495D02*
G01*
X7547559Y7049770D01*
X7672273Y7015479D02*
G01*
X7677607Y7005320D01*
X7693101Y6989571D01*
X7584135Y6989571D01*
X7157608Y3480043D02*
G01*
X7266828Y3480043D01*
X7157608Y3480043D02*
G01*
X7157608Y3526779D01*
X7162942Y3542273D01*
X7168022Y3547607D01*
X7178436Y3552687D01*
X7188850Y3552687D01*
X7199264Y3547607D01*
X7204344Y3542273D01*
X7209678Y3526779D01*
X7209678Y3480043D01*
X7209678Y3516365D02*
G01*
X7266828Y3552687D01*
X7157608Y3628633D02*
G01*
X7266828Y3586977D01*
X7157608Y3628633D02*
G01*
X7266828Y3670035D01*
X7230506Y3602725D02*
G01*
X7230506Y3654541D01*
X7157608Y3704325D02*
G01*
X7266828Y3704325D01*
X7157608Y3704325D02*
G01*
X7157608Y3740901D01*
X7162942Y3756395D01*
X7173356Y3766809D01*
X7183516Y3771889D01*
X7199264Y3777223D01*
X7225172Y3777223D01*
X7240666Y3771889D01*
X7251080Y3766809D01*
X7261494Y3756395D01*
X7266828Y3740901D01*
X7266828Y3704325D01*
X7157608Y3811513D02*
G01*
X7266828Y3811513D01*
X7157608Y3877045D02*
G01*
X7162942Y3866631D01*
X7173356Y3856217D01*
X7183516Y3850883D01*
X7199264Y3845803D01*
X7225172Y3845803D01*
X7240666Y3850883D01*
X7251080Y3856217D01*
X7261494Y3866631D01*
X7266828Y3877045D01*
X7266828Y3897619D01*
X7261494Y3908033D01*
X7251080Y3918447D01*
X7240666Y3923781D01*
X7225172Y3928861D01*
X7199264Y3928861D01*
X7183516Y3923781D01*
X7173356Y3918447D01*
X7162942Y3908033D01*
X7157608Y3897619D01*
X7157608Y3877045D01*
X7157669Y5384800D02*
G01*
X7266635Y5384800D01*
X7157669Y5384800D02*
G01*
X7157669Y5431536D01*
X7162749Y5447029D01*
X7168083Y5452363D01*
X7178497Y5457444D01*
X7193991Y5457444D01*
X7204405Y5452363D01*
X7209485Y5447029D01*
X7214819Y5431536D01*
X7214819Y5384800D01*
X7157669Y5522976D02*
G01*
X7162749Y5512562D01*
X7173163Y5502147D01*
X7183577Y5497068D01*
X7199325Y5491734D01*
X7225233Y5491734D01*
X7240727Y5497068D01*
X7251141Y5502147D01*
X7261555Y5512562D01*
X7266635Y5522976D01*
X7266635Y5543804D01*
X7261555Y5554218D01*
X7251141Y5564631D01*
X7240727Y5569712D01*
X7225233Y5575045D01*
X7199325Y5575045D01*
X7183577Y5569712D01*
X7173163Y5564631D01*
X7162749Y5554218D01*
X7157669Y5543804D01*
X7157669Y5522976D01*
X7157669Y5609336D02*
G01*
X7266635Y5609336D01*
X7157669Y5609336D02*
G01*
X7157669Y5656071D01*
X7162749Y5671565D01*
X7168083Y5676900D01*
X7178497Y5681979D01*
X7188911Y5681979D01*
X7199325Y5676900D01*
X7204405Y5671565D01*
X7209485Y5656071D01*
X7209485Y5609336D01*
X7209485Y5645657D02*
G01*
X7266635Y5681979D01*
X7157669Y5752592D02*
G01*
X7266635Y5752592D01*
X7157669Y5716270D02*
G01*
X7157669Y5788913D01*
X7303211Y5823204D02*
G01*
X7303211Y5916929D01*
X7157669Y5961379D02*
G01*
X7157669Y6018529D01*
X7199325Y5987542D01*
X7199325Y6003036D01*
X7204405Y6013450D01*
X7209485Y6018529D01*
X7225233Y6023863D01*
X7235647Y6023863D01*
X7251141Y6018529D01*
X7261555Y6008370D01*
X7266635Y5992621D01*
X7266635Y5977128D01*
X7261555Y5961379D01*
X7256475Y5956300D01*
X7246061Y5951220D01*
X3082505Y2748026D02*
G01*
X3092919Y2753360D01*
X3103333Y2763773D01*
X3108413Y2773934D01*
X3108413Y2794762D01*
X3103333Y2805176D01*
X3092919Y2815589D01*
X3082505Y2820923D01*
X3066757Y2826004D01*
X3040849Y2826004D01*
X3025355Y2820923D01*
X3014941Y2815589D01*
X3004527Y2805176D01*
X2999447Y2794762D01*
X2999447Y2773934D01*
X3004527Y2763773D01*
X3014941Y2753360D01*
X3025355Y2748026D01*
X3108413Y2713736D02*
G01*
X2999447Y2713736D01*
X3108413Y2713736D02*
G01*
X2999447Y2641092D01*
X3108413Y2641092D02*
G01*
X2999447Y2641092D01*
X3087585Y2606802D02*
G01*
X3092919Y2596387D01*
X3108413Y2580894D01*
X2999447Y2580894D01*
D11*
X7298385Y874615D02*
G01*
X7298385Y684115D01*
X7552385Y684115D01*
X7552385Y2208115D01*
X7298385Y2208115D01*
D12*
X7298385Y2208115D02*
G01*
X7298385Y874615D01*
D11*
X7552385Y8128000D02*
G01*
X7552385Y8318500D01*
X7298385Y8318500D01*
X7298385Y6794500D01*
X7552385Y6794500D01*
D12*
X7552385Y6794500D02*
G01*
X7552385Y8128000D01*
D13*
X7552385Y2950992D02*
G01*
X7298385Y2950992D01*
X7298385Y4008993D01*
X7552385Y4008993D01*
X7552385Y2950992D01*
X7298385Y3228345D02*
G01*
X7552385Y3228345D01*
X7298385Y5006152D02*
G01*
X7552385Y5006152D01*
X7552385Y6040800D02*
G01*
X7298385Y6040800D01*
X7298385Y4728799D01*
X7552385Y4728799D01*
X7552385Y6040800D01*
X1909851Y2069401D02*
G01*
X1678101Y2069401D01*
X1678101Y3569398D01*
X2928099Y2304882D02*
G01*
X2928099Y2069401D01*
X2162350Y2069401D01*
X2928099Y2454869D02*
G01*
X2928099Y2381925D01*
X2928099Y2604881D02*
G01*
X2928099Y2531912D01*
X2928099Y2754868D02*
G01*
X2928099Y2681925D01*
X2928099Y2904881D02*
G01*
X2928099Y2831912D01*
X2928099Y3054893D02*
G01*
X2928099Y2981924D01*
X2928099Y3204880D02*
G01*
X2928099Y3131936D01*
X2162350Y3569398D02*
G01*
X2928099Y3569398D01*
X2928099Y3281923D01*
X1678101Y3569398D02*
G01*
X1909851Y3569398D01*
M02*
