G04 Layer: TopSilkscreenLayer*
G04 EasyEDA v6.5.23, 2023-06-18 13:26:56*
G04 e563b856323e489fb497cbcb29ae2dd2,10*
G04 Gerber Generator version 0.2*
G04 Scale: 100 percent, Rotated: No, Reflected: No *
G04 Dimensions in millimeters *
G04 leading zeros omitted , absolute positions ,4 integer and 5 decimal *
%FSLAX45Y45*%
%MOMM*%

%ADD10C,0.1524*%
%ADD11C,0.2032*%
%ADD12C,0.2030*%
%ADD13C,0.2540*%

%LPD*%
D10*
X6432270Y1446115D02*
G01*
X6541236Y1446115D01*
X6432270Y1446115D02*
G01*
X6432270Y1492851D01*
X6437350Y1508345D01*
X6442684Y1513679D01*
X6453098Y1518762D01*
X6468592Y1518762D01*
X6479006Y1513679D01*
X6484086Y1508345D01*
X6489420Y1492851D01*
X6489420Y1446115D01*
X6432270Y1584294D02*
G01*
X6437350Y1573880D01*
X6447764Y1563463D01*
X6458178Y1558383D01*
X6473926Y1553049D01*
X6499834Y1553049D01*
X6515328Y1558383D01*
X6525742Y1563463D01*
X6536156Y1573880D01*
X6541236Y1584294D01*
X6541236Y1605119D01*
X6536156Y1615533D01*
X6525742Y1625947D01*
X6515328Y1631030D01*
X6499834Y1636361D01*
X6473926Y1636361D01*
X6458178Y1631030D01*
X6447764Y1625947D01*
X6437350Y1615533D01*
X6432270Y1605119D01*
X6432270Y1584294D01*
X6432270Y1670651D02*
G01*
X6541236Y1670651D01*
X6432270Y1670651D02*
G01*
X6432270Y1717390D01*
X6437350Y1732881D01*
X6442684Y1738215D01*
X6453098Y1743295D01*
X6463512Y1743295D01*
X6473926Y1738215D01*
X6479006Y1732881D01*
X6484086Y1717390D01*
X6484086Y1670651D01*
X6484086Y1706976D02*
G01*
X6541236Y1743295D01*
X6432270Y1813907D02*
G01*
X6541236Y1813907D01*
X6432270Y1777585D02*
G01*
X6432270Y1850229D01*
X6577812Y1884519D02*
G01*
X6577812Y1978245D01*
X6432270Y2064351D02*
G01*
X6504914Y2012535D01*
X6504914Y2090262D01*
X6432270Y2064351D02*
G01*
X6541236Y2064351D01*
X6967702Y7607284D02*
G01*
X6858736Y7607284D01*
X6967702Y7607284D02*
G01*
X6967702Y7560548D01*
X6962622Y7545054D01*
X6957288Y7539720D01*
X6946874Y7534640D01*
X6931380Y7534640D01*
X6920966Y7539720D01*
X6915886Y7545054D01*
X6910552Y7560548D01*
X6910552Y7607284D01*
X6967702Y7469108D02*
G01*
X6962622Y7479522D01*
X6952208Y7489936D01*
X6941794Y7495016D01*
X6926046Y7500350D01*
X6900138Y7500350D01*
X6884644Y7495016D01*
X6874230Y7489936D01*
X6863816Y7479522D01*
X6858736Y7469108D01*
X6858736Y7448280D01*
X6863816Y7437866D01*
X6874230Y7427452D01*
X6884644Y7422372D01*
X6900138Y7417038D01*
X6926046Y7417038D01*
X6941794Y7422372D01*
X6952208Y7427452D01*
X6962622Y7437866D01*
X6967702Y7448280D01*
X6967702Y7469108D01*
X6967702Y7382748D02*
G01*
X6858736Y7382748D01*
X6967702Y7382748D02*
G01*
X6967702Y7336012D01*
X6962622Y7320518D01*
X6957288Y7315184D01*
X6946874Y7310104D01*
X6936460Y7310104D01*
X6926046Y7315184D01*
X6920966Y7320518D01*
X6915886Y7336012D01*
X6915886Y7382748D01*
X6915886Y7346426D02*
G01*
X6858736Y7310104D01*
X6967702Y7239492D02*
G01*
X6858736Y7239492D01*
X6967702Y7275814D02*
G01*
X6967702Y7203170D01*
X6822160Y7168880D02*
G01*
X6822160Y7075154D01*
X6946874Y7040864D02*
G01*
X6952208Y7030704D01*
X6967702Y7014956D01*
X6858736Y7014956D01*
X6432209Y3505443D02*
G01*
X6541429Y3505443D01*
X6432209Y3505443D02*
G01*
X6432209Y3552179D01*
X6437543Y3567673D01*
X6442623Y3573007D01*
X6453037Y3578087D01*
X6463451Y3578087D01*
X6473865Y3573007D01*
X6478945Y3567673D01*
X6484279Y3552179D01*
X6484279Y3505443D01*
X6484279Y3541765D02*
G01*
X6541429Y3578087D01*
X6432209Y3654033D02*
G01*
X6541429Y3612377D01*
X6432209Y3654033D02*
G01*
X6541429Y3695435D01*
X6505107Y3628125D02*
G01*
X6505107Y3679941D01*
X6432209Y3729725D02*
G01*
X6541429Y3729725D01*
X6432209Y3729725D02*
G01*
X6432209Y3766301D01*
X6437543Y3781795D01*
X6447957Y3792209D01*
X6458117Y3797289D01*
X6473865Y3802623D01*
X6499773Y3802623D01*
X6515267Y3797289D01*
X6525681Y3792209D01*
X6536095Y3781795D01*
X6541429Y3766301D01*
X6541429Y3729725D01*
X6432209Y3836913D02*
G01*
X6541429Y3836913D01*
X6432209Y3902445D02*
G01*
X6437543Y3892031D01*
X6447957Y3881617D01*
X6458117Y3876283D01*
X6473865Y3871203D01*
X6499773Y3871203D01*
X6515267Y3876283D01*
X6525681Y3881617D01*
X6536095Y3892031D01*
X6541429Y3902445D01*
X6541429Y3923019D01*
X6536095Y3933433D01*
X6525681Y3943847D01*
X6515267Y3949181D01*
X6499773Y3954261D01*
X6473865Y3954261D01*
X6458117Y3949181D01*
X6447957Y3943847D01*
X6437543Y3933433D01*
X6432209Y3923019D01*
X6432209Y3902445D01*
X6432270Y5410200D02*
G01*
X6541236Y5410200D01*
X6432270Y5410200D02*
G01*
X6432270Y5456936D01*
X6437350Y5472429D01*
X6442684Y5477763D01*
X6453098Y5482844D01*
X6468592Y5482844D01*
X6479006Y5477763D01*
X6484086Y5472429D01*
X6489420Y5456936D01*
X6489420Y5410200D01*
X6432270Y5548376D02*
G01*
X6437350Y5537962D01*
X6447764Y5527547D01*
X6458178Y5522468D01*
X6473926Y5517134D01*
X6499834Y5517134D01*
X6515328Y5522468D01*
X6525742Y5527547D01*
X6536156Y5537962D01*
X6541236Y5548376D01*
X6541236Y5569204D01*
X6536156Y5579618D01*
X6525742Y5590031D01*
X6515328Y5595112D01*
X6499834Y5600445D01*
X6473926Y5600445D01*
X6458178Y5595112D01*
X6447764Y5590031D01*
X6437350Y5579618D01*
X6432270Y5569204D01*
X6432270Y5548376D01*
X6432270Y5634736D02*
G01*
X6541236Y5634736D01*
X6432270Y5634736D02*
G01*
X6432270Y5681471D01*
X6437350Y5696965D01*
X6442684Y5702300D01*
X6453098Y5707379D01*
X6463512Y5707379D01*
X6473926Y5702300D01*
X6479006Y5696965D01*
X6484086Y5681471D01*
X6484086Y5634736D01*
X6484086Y5671057D02*
G01*
X6541236Y5707379D01*
X6432270Y5777992D02*
G01*
X6541236Y5777992D01*
X6432270Y5741670D02*
G01*
X6432270Y5814313D01*
X6577812Y5848604D02*
G01*
X6577812Y5942329D01*
X6432270Y5986779D02*
G01*
X6432270Y6043929D01*
X6473926Y6012942D01*
X6473926Y6028436D01*
X6479006Y6038850D01*
X6484086Y6043929D01*
X6499834Y6049263D01*
X6510248Y6049263D01*
X6525742Y6043929D01*
X6536156Y6033770D01*
X6541236Y6018021D01*
X6541236Y6002528D01*
X6536156Y5986779D01*
X6531076Y5981700D01*
X6520662Y5976620D01*
X1418805Y2786126D02*
G01*
X1429219Y2791460D01*
X1439633Y2801873D01*
X1444713Y2812034D01*
X1444713Y2832862D01*
X1439633Y2843276D01*
X1429219Y2853689D01*
X1418805Y2859023D01*
X1403057Y2864104D01*
X1377149Y2864104D01*
X1361655Y2859023D01*
X1351241Y2853689D01*
X1340827Y2843276D01*
X1335747Y2832862D01*
X1335747Y2812034D01*
X1340827Y2801873D01*
X1351241Y2791460D01*
X1361655Y2786126D01*
X1444713Y2751836D02*
G01*
X1335747Y2751836D01*
X1444713Y2751836D02*
G01*
X1335747Y2679192D01*
X1444713Y2679192D02*
G01*
X1335747Y2679192D01*
X1423885Y2644902D02*
G01*
X1429219Y2634487D01*
X1444713Y2618994D01*
X1335747Y2618994D01*
D11*
X6572986Y900015D02*
G01*
X6572986Y709515D01*
X6826986Y709515D01*
X6826986Y2233515D01*
X6572986Y2233515D01*
D12*
X6572986Y2233515D02*
G01*
X6572986Y900015D01*
D11*
X6826986Y8153384D02*
G01*
X6826986Y8343884D01*
X6572986Y8343884D01*
X6572986Y6819884D01*
X6826986Y6819884D01*
D12*
X6826986Y6819884D02*
G01*
X6826986Y8153384D01*
D13*
X6826986Y2976392D02*
G01*
X6572986Y2976392D01*
X6572986Y4034393D01*
X6826986Y4034393D01*
X6826986Y2976392D01*
X6572986Y3253745D02*
G01*
X6826986Y3253745D01*
X6572986Y5031552D02*
G01*
X6826986Y5031552D01*
X6826986Y6066200D02*
G01*
X6572986Y6066200D01*
X6572986Y4754199D01*
X6826986Y4754199D01*
X6826986Y6066200D01*
X246151Y2107501D02*
G01*
X14401Y2107501D01*
X14401Y3607498D01*
X1264399Y2342982D02*
G01*
X1264399Y2107501D01*
X498650Y2107501D01*
X1264399Y2492969D02*
G01*
X1264399Y2420025D01*
X1264399Y2642981D02*
G01*
X1264399Y2570012D01*
X1264399Y2792968D02*
G01*
X1264399Y2720025D01*
X1264399Y2942981D02*
G01*
X1264399Y2870012D01*
X1264399Y3092993D02*
G01*
X1264399Y3020024D01*
X1264399Y3242980D02*
G01*
X1264399Y3170036D01*
X498650Y3607498D02*
G01*
X1264399Y3607498D01*
X1264399Y3320023D01*
X14401Y3607498D02*
G01*
X246151Y3607498D01*
M02*
