G04 Layer: BottomSolderMaskLayer*
G04 EasyEDA v6.5.23, 2023-06-18 13:26:56*
G04 e563b856323e489fb497cbcb29ae2dd2,10*
G04 Gerber Generator version 0.2*
G04 Scale: 100 percent, Rotated: No, Reflected: No *
G04 Dimensions in millimeters *
G04 leading zeros omitted , absolute positions ,4 integer and 5 decimal *
%FSLAX45Y45*%
%MOMM*%

%AMMACRO1*1,1,$1,$2,$3*1,1,$1,$4,$5*1,1,$1,0-$2,0-$3*1,1,$1,0-$4,0-$5*20,1,$1,$2,$3,$4,$5,0*20,1,$1,$4,$5,0-$2,0-$3,0*20,1,$1,0-$2,0-$3,0-$4,0-$5,0*20,1,$1,0-$4,0-$5,$2,$3,0*4,1,4,$2,$3,$4,$5,0-$2,0-$3,0-$4,0-$5,$2,$3,0*%
%ADD10C,1.9016*%
%ADD11MACRO1,0.1016X-0.9X-0.9X-0.9X0.9*%
%ADD12C,1.7272*%
%ADD13MACRO1,0.1016X0.9X0.9X0.9X-0.9*%
%ADD14MACRO1,0.1016X-0.85X-0.85X-0.85X0.85*%
%ADD15C,1.8016*%
%ADD16C,1.1016*%
%ADD17O,2.3015956X1.6015970000000002*%

%LPD*%
D10*
G01*
X7425385Y2081115D03*
G01*
X7425385Y1827115D03*
G01*
X7425385Y1573115D03*
G01*
X7425385Y1319115D03*
G01*
X7425385Y1065115D03*
D11*
G01*
X7425385Y811117D03*
D12*
G01*
X6311900Y1066800D03*
G01*
X6565900Y1066800D03*
G01*
X6311900Y1320800D03*
G01*
X6565900Y1320800D03*
G01*
X6311900Y1574800D03*
G01*
X6565900Y1574800D03*
G01*
X6311900Y1828800D03*
G01*
X6565900Y1828800D03*
G01*
X6311900Y2082800D03*
G01*
X6565900Y2082800D03*
G01*
X6311900Y2336800D03*
G01*
X6565900Y2336800D03*
G01*
X6311900Y2590800D03*
G01*
X6565900Y2590800D03*
G01*
X6311900Y2844800D03*
G01*
X6565900Y2844800D03*
G01*
X6311900Y3098800D03*
G01*
X6565900Y3098800D03*
G01*
X6311900Y3352800D03*
G01*
X6565900Y3352800D03*
G01*
X6311900Y3606800D03*
G01*
X6565900Y3606800D03*
G01*
X6311900Y3860800D03*
G01*
X6565900Y3860800D03*
G01*
X6311900Y4114800D03*
G01*
X6565900Y4114800D03*
G01*
X6311900Y4368800D03*
G01*
X6565900Y4368800D03*
G01*
X6311900Y4622800D03*
G01*
X6565900Y4622800D03*
G01*
X6311900Y4876800D03*
G01*
X6565900Y4876800D03*
G01*
X6311900Y5130800D03*
G01*
X6565900Y5130800D03*
G01*
X6311900Y5384800D03*
G01*
X6565900Y5384800D03*
G01*
X6311900Y5638800D03*
G01*
X6565900Y5638800D03*
G01*
X6311900Y5892800D03*
G01*
X6565900Y5892800D03*
D10*
G01*
X7425385Y6921500D03*
G01*
X7425385Y7175500D03*
G01*
X7425385Y7429500D03*
G01*
X7425385Y7683500D03*
G01*
X7425385Y7937500D03*
D13*
G01*
X7425385Y8191500D03*
D14*
G01*
X7425386Y3098994D03*
D15*
G01*
X7425385Y3352993D03*
G01*
X7425385Y3606993D03*
G01*
X7425385Y3860993D03*
D14*
G01*
X7425386Y4876801D03*
D15*
G01*
X7425385Y5130800D03*
G01*
X7425385Y5384800D03*
G01*
X7425385Y5638800D03*
G01*
X7425385Y5892800D03*
D16*
G01*
X2866097Y2343404D03*
G01*
X2716085Y2418410D03*
G01*
X2866097Y2493390D03*
G01*
X2566098Y2493390D03*
G01*
X2716085Y2568397D03*
G01*
X2566098Y2643403D03*
G01*
X2866097Y2643403D03*
G01*
X2716085Y2718409D03*
G01*
X2866097Y2793390D03*
G01*
X2566098Y2793390D03*
G01*
X2716085Y2868396D03*
G01*
X2566098Y2943402D03*
G01*
X2866097Y2943402D03*
G01*
X2716085Y3018409D03*
G01*
X2866097Y3093415D03*
G01*
X2566098Y3093415D03*
G01*
X2716085Y3168395D03*
G01*
X2566098Y3243402D03*
G01*
X2866097Y3243402D03*
D17*
G01*
X2036102Y2033396D03*
G01*
X2036102Y3605403D03*
M02*
