G04 EAGLE Gerber RS-274X export*
G75*
%MOMM*%
%FSLAX34Y34*%
%LPD*%
%INTop Copper*%
%IPPOS*%
%AMOC8*
5,1,8,0,0,1.08239X$1,22.5*%
G01*
G04 Define Apertures*
%ADD10C,1.524000*%
%ADD11C,1.088000*%
%ADD12C,2.025000*%
%ADD13R,1.088000X1.088000*%
%ADD14R,1.560000X1.560000*%
%ADD15C,1.560000*%
%ADD16R,1.408000X1.408000*%
%ADD17C,1.408000*%
%ADD18C,0.152400*%
D10*
X396740Y189400D02*
X381500Y189400D01*
X381500Y214800D02*
X396740Y214800D01*
X396740Y240200D02*
X381500Y240200D01*
X381500Y265600D02*
X396740Y265600D01*
D11*
X226434Y79570D03*
X241434Y79570D03*
X256434Y79570D03*
X211434Y79570D03*
X196434Y79570D03*
X181434Y79570D03*
X233934Y94570D03*
X248934Y94570D03*
X263934Y94570D03*
X218934Y94570D03*
X203934Y94570D03*
X188934Y94570D03*
X226434Y109570D03*
X241434Y109570D03*
X256434Y109570D03*
X211434Y109570D03*
X196434Y109570D03*
X181434Y109570D03*
D12*
X145434Y26570D03*
X302434Y26570D03*
D13*
X271434Y109570D03*
D14*
X51860Y44700D03*
D15*
X51860Y70100D03*
X51860Y95500D03*
X51860Y120900D03*
X51860Y146300D03*
X51860Y171700D03*
X51860Y197100D03*
X51860Y222500D03*
D10*
X172100Y754880D02*
X172100Y770120D01*
X197500Y770120D02*
X197500Y754880D01*
X222900Y754880D02*
X222900Y770120D01*
X248300Y770120D02*
X248300Y754880D01*
D16*
X36800Y348300D03*
D17*
X36800Y368300D03*
X36800Y388300D03*
X36800Y408300D03*
D18*
X170688Y501396D02*
X170688Y762000D01*
X170688Y501396D02*
X38100Y368808D01*
X170688Y762000D02*
X172100Y762500D01*
X38100Y368808D02*
X36800Y368300D01*
X196596Y507492D02*
X196596Y762000D01*
X196596Y507492D02*
X38100Y348996D01*
X196596Y762000D02*
X197500Y762500D01*
X38100Y348996D02*
X36800Y348300D01*
X70104Y27432D02*
X144780Y27432D01*
X70104Y27432D02*
X53340Y44196D01*
X144780Y27432D02*
X145434Y26570D01*
X53340Y44196D02*
X51860Y44700D01*
X231648Y25908D02*
X301752Y25908D01*
X231648Y25908D02*
X230124Y24384D01*
X147828Y24384D01*
X146304Y25908D01*
X301752Y25908D02*
X302434Y26570D01*
X146304Y25908D02*
X145434Y26570D01*
X257556Y80772D02*
X303276Y80772D01*
X406908Y184404D01*
X406908Y248412D01*
X390144Y265176D01*
X257556Y80772D02*
X256434Y79570D01*
X389120Y265600D02*
X390144Y265176D01*
X272796Y96012D02*
X265176Y96012D01*
X272796Y96012D02*
X370332Y193548D01*
X370332Y220980D01*
X388620Y239268D01*
X265176Y96012D02*
X263934Y94570D01*
X388620Y239268D02*
X389120Y240200D01*
X195072Y109728D02*
X108204Y196596D01*
X53340Y196596D01*
X195072Y109728D02*
X196434Y109570D01*
X53340Y196596D02*
X51860Y197100D01*
X114300Y109728D02*
X181356Y109728D01*
X114300Y109728D02*
X53340Y170688D01*
X181356Y109728D02*
X181434Y109570D01*
X53340Y170688D02*
X51860Y171700D01*
X102108Y96012D02*
X187452Y96012D01*
X102108Y96012D02*
X53340Y144780D01*
X187452Y96012D02*
X188934Y94570D01*
X53340Y144780D02*
X51860Y146300D01*
X92964Y80772D02*
X181356Y80772D01*
X92964Y80772D02*
X53340Y120396D01*
X181356Y80772D02*
X181434Y79570D01*
X53340Y120396D02*
X51860Y120900D01*
X207264Y79248D02*
X210312Y79248D01*
X207264Y79248D02*
X198120Y70104D01*
X53340Y70104D01*
X210312Y79248D02*
X211434Y79570D01*
X53340Y70104D02*
X51860Y70100D01*
X240792Y109728D02*
X240792Y745236D01*
X224028Y762000D01*
X240792Y109728D02*
X241434Y109570D01*
X224028Y762000D02*
X222900Y762500D01*
X271272Y739140D02*
X271272Y109728D01*
X271272Y739140D02*
X248412Y762000D01*
X271272Y109728D02*
X271434Y109570D01*
X248412Y762000D02*
X248300Y762500D01*
M02*
