<?xml version="1.0" encoding="utf-8" standalone="no"?>
<!DOCTYPE svg PUBLIC "-//W3C//DTD SVG 1.1//EN"
  "http://www.w3.org/Graphics/SVG/1.1/DTD/svg11.dtd">
<svg xmlns:xlink="http://www.w3.org/1999/xlink" width="460.8pt" height="345.6pt" viewBox="0 0 460.8 345.6" xmlns="http://www.w3.org/2000/svg" version="1.1">
 <metadata>
  <rdf:RDF xmlns:dc="http://purl.org/dc/elements/1.1/" xmlns:cc="http://creativecommons.org/ns#" xmlns:rdf="http://www.w3.org/1999/02/22-rdf-syntax-ns#">
   <cc:Work>
    <dc:type rdf:resource="http://purl.org/dc/dcmitype/StillImage"/>
    <dc:date>2023-07-19T14:14:47.540215</dc:date>
    <dc:format>image/svg+xml</dc:format>
    <dc:creator>
     <cc:Agent>
      <dc:title>Matplotlib v3.5.3, https://matplotlib.org/</dc:title>
     </cc:Agent>
    </dc:creator>
   </cc:Work>
  </rdf:RDF>
 </metadata>
 <defs>
  <style type="text/css">*{stroke-linejoin: round; stroke-linecap: butt}</style>
 </defs>
 <g id="figure_1">
  <g id="patch_1">
   <path d="M 0 345.6 
L 460.8 345.6 
L 460.8 0 
L 0 0 
z
" style="fill: #ffffff"/>
  </g>
  <g id="axes_1">
   <g id="patch_2">
    <path d="M 57.6 99.322435 
L 219.927273 99.322435 
L 219.927273 41.472 
L 57.6 41.472 
z
" style="fill: #ffffff"/>
   </g>
   <g id="matplotlib.axis_1">
    <g id="xtick_1">
     <g id="line2d_1">
      <defs>
       <path id="m97e6810da5" d="M 0 0 
L 0 3.5 
" style="stroke: #000000; stroke-width: 0.8"/>
      </defs>
      <g>
       <use xlink:href="#m97e6810da5" x="61.10425" y="99.322435" style="stroke: #000000; stroke-width: 0.8"/>
      </g>
     </g>
     <g id="text_1">
      <!-- 0 -->
      <g transform="translate(57.923 113.920872)scale(0.1 -0.1)">
       <defs>
        <path id="DejaVuSans-30" d="M 2034 4250 
Q 1547 4250 1301 3770 
Q 1056 3291 1056 2328 
Q 1056 1369 1301 889 
Q 1547 409 2034 409 
Q 2525 409 2770 889 
Q 3016 1369 3016 2328 
Q 3016 3291 2770 3770 
Q 2525 4250 2034 4250 
z
M 2034 4750 
Q 2819 4750 3233 4129 
Q 3647 3509 3647 2328 
Q 3647 1150 3233 529 
Q 2819 -91 2034 -91 
Q 1250 -91 836 529 
Q 422 1150 422 2328 
Q 422 3509 836 4129 
Q 1250 4750 2034 4750 
z
" transform="scale(0.015625)"/>
       </defs>
       <use xlink:href="#DejaVuSans-30"/>
      </g>
     </g>
    </g>
    <g id="xtick_2">
     <g id="line2d_2">
      <g>
       <use xlink:href="#m97e6810da5" x="125.219065" y="99.322435" style="stroke: #000000; stroke-width: 0.8"/>
      </g>
     </g>
     <g id="text_2">
      <!-- 1000 -->
      <g transform="translate(112.494065 113.920872)scale(0.1 -0.1)">
       <defs>
        <path id="DejaVuSans-31" d="M 794 531 
L 1825 531 
L 1825 4091 
L 703 3866 
L 703 4441 
L 1819 4666 
L 2450 4666 
L 2450 531 
L 3481 531 
L 3481 0 
L 794 0 
L 794 531 
z
" transform="scale(0.015625)"/>
       </defs>
       <use xlink:href="#DejaVuSans-31"/>
       <use xlink:href="#DejaVuSans-30" x="63.623047"/>
       <use xlink:href="#DejaVuSans-30" x="127.246094"/>
       <use xlink:href="#DejaVuSans-30" x="190.869141"/>
      </g>
     </g>
    </g>
    <g id="xtick_3">
     <g id="line2d_3">
      <g>
       <use xlink:href="#m97e6810da5" x="189.33388" y="99.322435" style="stroke: #000000; stroke-width: 0.8"/>
      </g>
     </g>
     <g id="text_3">
      <!-- 2000 -->
      <g transform="translate(176.60888 113.920872)scale(0.1 -0.1)">
       <defs>
        <path id="DejaVuSans-32" d="M 1228 531 
L 3431 531 
L 3431 0 
L 469 0 
L 469 531 
Q 828 903 1448 1529 
Q 2069 2156 2228 2338 
Q 2531 2678 2651 2914 
Q 2772 3150 2772 3378 
Q 2772 3750 2511 3984 
Q 2250 4219 1831 4219 
Q 1534 4219 1204 4116 
Q 875 4013 500 3803 
L 500 4441 
Q 881 4594 1212 4672 
Q 1544 4750 1819 4750 
Q 2544 4750 2975 4387 
Q 3406 4025 3406 3419 
Q 3406 3131 3298 2873 
Q 3191 2616 2906 2266 
Q 2828 2175 2409 1742 
Q 1991 1309 1228 531 
z
" transform="scale(0.015625)"/>
       </defs>
       <use xlink:href="#DejaVuSans-32"/>
       <use xlink:href="#DejaVuSans-30" x="63.623047"/>
       <use xlink:href="#DejaVuSans-30" x="127.246094"/>
       <use xlink:href="#DejaVuSans-30" x="190.869141"/>
      </g>
     </g>
    </g>
    <g id="text_4">
     <!-- time ms -->
     <g transform="translate(118.40348 127.598997)scale(0.1 -0.1)">
      <defs>
       <path id="DejaVuSans-74" d="M 1172 4494 
L 1172 3500 
L 2356 3500 
L 2356 3053 
L 1172 3053 
L 1172 1153 
Q 1172 725 1289 603 
Q 1406 481 1766 481 
L 2356 481 
L 2356 0 
L 1766 0 
Q 1100 0 847 248 
Q 594 497 594 1153 
L 594 3053 
L 172 3053 
L 172 3500 
L 594 3500 
L 594 4494 
L 1172 4494 
z
" transform="scale(0.015625)"/>
       <path id="DejaVuSans-69" d="M 603 3500 
L 1178 3500 
L 1178 0 
L 603 0 
L 603 3500 
z
M 603 4863 
L 1178 4863 
L 1178 4134 
L 603 4134 
L 603 4863 
z
" transform="scale(0.015625)"/>
       <path id="DejaVuSans-6d" d="M 3328 2828 
Q 3544 3216 3844 3400 
Q 4144 3584 4550 3584 
Q 5097 3584 5394 3201 
Q 5691 2819 5691 2113 
L 5691 0 
L 5113 0 
L 5113 2094 
Q 5113 2597 4934 2840 
Q 4756 3084 4391 3084 
Q 3944 3084 3684 2787 
Q 3425 2491 3425 1978 
L 3425 0 
L 2847 0 
L 2847 2094 
Q 2847 2600 2669 2842 
Q 2491 3084 2119 3084 
Q 1678 3084 1418 2786 
Q 1159 2488 1159 1978 
L 1159 0 
L 581 0 
L 581 3500 
L 1159 3500 
L 1159 2956 
Q 1356 3278 1631 3431 
Q 1906 3584 2284 3584 
Q 2666 3584 2933 3390 
Q 3200 3197 3328 2828 
z
" transform="scale(0.015625)"/>
       <path id="DejaVuSans-65" d="M 3597 1894 
L 3597 1613 
L 953 1613 
Q 991 1019 1311 708 
Q 1631 397 2203 397 
Q 2534 397 2845 478 
Q 3156 559 3463 722 
L 3463 178 
Q 3153 47 2828 -22 
Q 2503 -91 2169 -91 
Q 1331 -91 842 396 
Q 353 884 353 1716 
Q 353 2575 817 3079 
Q 1281 3584 2069 3584 
Q 2775 3584 3186 3129 
Q 3597 2675 3597 1894 
z
M 3022 2063 
Q 3016 2534 2758 2815 
Q 2500 3097 2075 3097 
Q 1594 3097 1305 2825 
Q 1016 2553 972 2059 
L 3022 2063 
z
" transform="scale(0.015625)"/>
       <path id="DejaVuSans-20" transform="scale(0.015625)"/>
       <path id="DejaVuSans-73" d="M 2834 3397 
L 2834 2853 
Q 2591 2978 2328 3040 
Q 2066 3103 1784 3103 
Q 1356 3103 1142 2972 
Q 928 2841 928 2578 
Q 928 2378 1081 2264 
Q 1234 2150 1697 2047 
L 1894 2003 
Q 2506 1872 2764 1633 
Q 3022 1394 3022 966 
Q 3022 478 2636 193 
Q 2250 -91 1575 -91 
Q 1294 -91 989 -36 
Q 684 19 347 128 
L 347 722 
Q 666 556 975 473 
Q 1284 391 1588 391 
Q 1994 391 2212 530 
Q 2431 669 2431 922 
Q 2431 1156 2273 1281 
Q 2116 1406 1581 1522 
L 1381 1569 
Q 847 1681 609 1914 
Q 372 2147 372 2553 
Q 372 3047 722 3315 
Q 1072 3584 1716 3584 
Q 2034 3584 2315 3537 
Q 2597 3491 2834 3397 
z
" transform="scale(0.015625)"/>
      </defs>
      <use xlink:href="#DejaVuSans-74"/>
      <use xlink:href="#DejaVuSans-69" x="39.208984"/>
      <use xlink:href="#DejaVuSans-6d" x="66.992188"/>
      <use xlink:href="#DejaVuSans-65" x="164.404297"/>
      <use xlink:href="#DejaVuSans-20" x="225.927734"/>
      <use xlink:href="#DejaVuSans-6d" x="257.714844"/>
      <use xlink:href="#DejaVuSans-73" x="355.126953"/>
     </g>
    </g>
   </g>
   <g id="matplotlib.axis_2">
    <g id="ytick_1">
     <g id="line2d_4">
      <defs>
       <path id="m6fe1a6c6f4" d="M 0 0 
L -3.5 0 
" style="stroke: #000000; stroke-width: 0.8"/>
      </defs>
      <g>
       <use xlink:href="#m6fe1a6c6f4" x="57.6" y="70.397217" style="stroke: #000000; stroke-width: 0.8"/>
      </g>
     </g>
     <g id="text_5">
      <!-- 1003. -->
      <g transform="translate(21.971875 74.196436)scale(0.1 -0.1)">
       <defs>
        <path id="DejaVuSans-33" d="M 2597 2516 
Q 3050 2419 3304 2112 
Q 3559 1806 3559 1356 
Q 3559 666 3084 287 
Q 2609 -91 1734 -91 
Q 1441 -91 1130 -33 
Q 819 25 488 141 
L 488 750 
Q 750 597 1062 519 
Q 1375 441 1716 441 
Q 2309 441 2620 675 
Q 2931 909 2931 1356 
Q 2931 1769 2642 2001 
Q 2353 2234 1838 2234 
L 1294 2234 
L 1294 2753 
L 1863 2753 
Q 2328 2753 2575 2939 
Q 2822 3125 2822 3475 
Q 2822 3834 2567 4026 
Q 2313 4219 1838 4219 
Q 1578 4219 1281 4162 
Q 984 4106 628 3988 
L 628 4550 
Q 988 4650 1302 4700 
Q 1616 4750 1894 4750 
Q 2613 4750 3031 4423 
Q 3450 4097 3450 3541 
Q 3450 3153 3228 2886 
Q 3006 2619 2597 2516 
z
" transform="scale(0.015625)"/>
        <path id="DejaVuSans-2e" d="M 684 794 
L 1344 794 
L 1344 0 
L 684 0 
L 684 794 
z
" transform="scale(0.015625)"/>
       </defs>
       <use xlink:href="#DejaVuSans-31"/>
       <use xlink:href="#DejaVuSans-30" x="63.623047"/>
       <use xlink:href="#DejaVuSans-30" x="127.246094"/>
       <use xlink:href="#DejaVuSans-33" x="190.869141"/>
       <use xlink:href="#DejaVuSans-2e" x="254.492188"/>
      </g>
     </g>
    </g>
    <g id="text_6">
     <!-- Throttle Ref -->
     <g transform="translate(15.892187 99.683155)rotate(-90)scale(0.1 -0.1)">
      <defs>
       <path id="DejaVuSans-54" d="M -19 4666 
L 3928 4666 
L 3928 4134 
L 2272 4134 
L 2272 0 
L 1638 0 
L 1638 4134 
L -19 4134 
L -19 4666 
z
" transform="scale(0.015625)"/>
       <path id="DejaVuSans-68" d="M 3513 2113 
L 3513 0 
L 2938 0 
L 2938 2094 
Q 2938 2591 2744 2837 
Q 2550 3084 2163 3084 
Q 1697 3084 1428 2787 
Q 1159 2491 1159 1978 
L 1159 0 
L 581 0 
L 581 4863 
L 1159 4863 
L 1159 2956 
Q 1366 3272 1645 3428 
Q 1925 3584 2291 3584 
Q 2894 3584 3203 3211 
Q 3513 2838 3513 2113 
z
" transform="scale(0.015625)"/>
       <path id="DejaVuSans-72" d="M 2631 2963 
Q 2534 3019 2420 3045 
Q 2306 3072 2169 3072 
Q 1681 3072 1420 2755 
Q 1159 2438 1159 1844 
L 1159 0 
L 581 0 
L 581 3500 
L 1159 3500 
L 1159 2956 
Q 1341 3275 1631 3429 
Q 1922 3584 2338 3584 
Q 2397 3584 2469 3576 
Q 2541 3569 2628 3553 
L 2631 2963 
z
" transform="scale(0.015625)"/>
       <path id="DejaVuSans-6f" d="M 1959 3097 
Q 1497 3097 1228 2736 
Q 959 2375 959 1747 
Q 959 1119 1226 758 
Q 1494 397 1959 397 
Q 2419 397 2687 759 
Q 2956 1122 2956 1747 
Q 2956 2369 2687 2733 
Q 2419 3097 1959 3097 
z
M 1959 3584 
Q 2709 3584 3137 3096 
Q 3566 2609 3566 1747 
Q 3566 888 3137 398 
Q 2709 -91 1959 -91 
Q 1206 -91 779 398 
Q 353 888 353 1747 
Q 353 2609 779 3096 
Q 1206 3584 1959 3584 
z
" transform="scale(0.015625)"/>
       <path id="DejaVuSans-6c" d="M 603 4863 
L 1178 4863 
L 1178 0 
L 603 0 
L 603 4863 
z
" transform="scale(0.015625)"/>
       <path id="DejaVuSans-52" d="M 2841 2188 
Q 3044 2119 3236 1894 
Q 3428 1669 3622 1275 
L 4263 0 
L 3584 0 
L 2988 1197 
Q 2756 1666 2539 1819 
Q 2322 1972 1947 1972 
L 1259 1972 
L 1259 0 
L 628 0 
L 628 4666 
L 2053 4666 
Q 2853 4666 3247 4331 
Q 3641 3997 3641 3322 
Q 3641 2881 3436 2590 
Q 3231 2300 2841 2188 
z
M 1259 4147 
L 1259 2491 
L 2053 2491 
Q 2509 2491 2742 2702 
Q 2975 2913 2975 3322 
Q 2975 3731 2742 3939 
Q 2509 4147 2053 4147 
L 1259 4147 
z
" transform="scale(0.015625)"/>
       <path id="DejaVuSans-66" d="M 2375 4863 
L 2375 4384 
L 1825 4384 
Q 1516 4384 1395 4259 
Q 1275 4134 1275 3809 
L 1275 3500 
L 2222 3500 
L 2222 3053 
L 1275 3053 
L 1275 0 
L 697 0 
L 697 3053 
L 147 3053 
L 147 3500 
L 697 3500 
L 697 3744 
Q 697 4328 969 4595 
Q 1241 4863 1831 4863 
L 2375 4863 
z
" transform="scale(0.015625)"/>
      </defs>
      <use xlink:href="#DejaVuSans-54"/>
      <use xlink:href="#DejaVuSans-68" x="61.083984"/>
      <use xlink:href="#DejaVuSans-72" x="124.462891"/>
      <use xlink:href="#DejaVuSans-6f" x="163.326172"/>
      <use xlink:href="#DejaVuSans-74" x="224.507812"/>
      <use xlink:href="#DejaVuSans-74" x="263.716797"/>
      <use xlink:href="#DejaVuSans-6c" x="302.925781"/>
      <use xlink:href="#DejaVuSans-65" x="330.708984"/>
      <use xlink:href="#DejaVuSans-20" x="392.232422"/>
      <use xlink:href="#DejaVuSans-52" x="424.019531"/>
      <use xlink:href="#DejaVuSans-65" x="489.001953"/>
      <use xlink:href="#DejaVuSans-66" x="550.525391"/>
     </g>
    </g>
   </g>
   <g id="line2d_5">
    <path d="M 64.978512 70.397217 
L 67.527055 70.397217 
L 70.1425 70.397217 
L 71.492479 70.397217 
L 72.775701 70.397217 
L 74.847389 70.397217 
L 76.172612 70.397217 
L 78.144695 70.397217 
L 79.446693 70.397217 
L 81.731003 70.397217 
L 83.029892 70.397217 
L 84.705009 70.397217 
L 86.423871 70.397217 
L 87.736576 70.397217 
L 90.281361 70.397217 
L 91.563394 70.397217 
L 92.774144 70.397217 
L 94.221699 70.397217 
L 95.777457 70.397217 
L 96.99769 70.397217 
L 98.159241 70.397217 
L 99.907871 70.397217 
L 101.724735 70.397217 
L 103.240053 70.397217 
L 104.639475 70.397217 
L 106.432401 70.397217 
L 107.842459 70.397217 
L 109.259806 70.397217 
L 111.014168 70.397217 
L 112.236602 70.397217 
L 113.421435 70.397217 
L 115.089159 70.397217 
L 116.632632 70.397217 
L 117.838392 70.397217 
L 119.3485 70.397217 
L 120.515012 70.397217 
L 123.165714 70.397217 
L 125.001691 70.397217 
L 126.396342 70.397217 
L 127.517081 70.397217 
L 129.047005 70.397217 
L 130.767282 70.397217 
L 131.89644 70.397217 
L 133.001433 70.397217 
L 134.776521 70.397217 
L 136.539786 70.397217 
L 137.806973 70.397217 
L 139.424706 70.397217 
L 140.848284 70.397217 
L 142.050878 70.397217 
L 143.45499 70.397217 
L 144.656614 70.397217 
L 146.09446 70.397217 
L 147.574889 70.397217 
L 149.362636 70.397217 
L 150.382713 70.397217 
L 151.837887 70.397217 
L 153.478809 70.397217 
L 155.105221 70.397217 
L 156.877341 70.397217 
L 158.588899 70.397217 
L 159.887026 70.397217 
L 161.498766 70.397217 
L 163.166206 70.397217 
L 164.455603 70.397217 
L 166.110132 70.397217 
L 167.550598 70.397217 
L 168.862672 70.397217 
L 170.095942 70.397217 
L 171.527811 70.397217 
L 173.054474 70.397217 
L 174.69143 70.397217 
L 176.165152 70.397217 
L 177.436824 70.397217 
L 178.566803 70.397217 
L 179.66117 70.397217 
L 180.942022 70.397217 
L 182.40282 70.397217 
L 183.692345 70.397217 
L 185.862166 70.397217 
L 187.395796 70.397217 
L 188.480255 70.397217 
L 189.645318 70.397217 
L 191.108388 70.397217 
L 192.203929 70.397217 
L 193.871597 70.397217 
L 195.450592 70.397217 
L 196.576278 70.397217 
L 197.835826 70.397217 
L 199.198479 70.397217 
L 200.40125 70.397217 
L 201.749714 70.397217 
L 202.90679 70.397217 
L 204.456016 70.397217 
L 206.155259 70.397217 
L 207.350282 70.397217 
L 208.448111 70.397217 
L 209.90756 70.397217 
L 211.046423 70.397217 
L 212.54876 70.397217 
" clip-path="url(#p85c1c9b419)" style="fill: none; stroke: #1f77b4; stroke-width: 1.5; stroke-linecap: square"/>
   </g>
   <g id="patch_3">
    <path d="M 57.6 99.322435 
L 57.6 41.472 
" style="fill: none; stroke: #000000; stroke-width: 0.8; stroke-linejoin: miter; stroke-linecap: square"/>
   </g>
   <g id="patch_4">
    <path d="M 219.927273 99.322435 
L 219.927273 41.472 
" style="fill: none; stroke: #000000; stroke-width: 0.8; stroke-linejoin: miter; stroke-linecap: square"/>
   </g>
   <g id="patch_5">
    <path d="M 57.6 99.322435 
L 219.927273 99.322435 
" style="fill: none; stroke: #000000; stroke-width: 0.8; stroke-linejoin: miter; stroke-linecap: square"/>
   </g>
   <g id="patch_6">
    <path d="M 57.6 41.472 
L 219.927273 41.472 
" style="fill: none; stroke: #000000; stroke-width: 0.8; stroke-linejoin: miter; stroke-linecap: square"/>
   </g>
   <g id="legend_1">
    <g id="patch_7">
     <path d="M 124.967898 64.150125 
L 212.927273 64.150125 
Q 214.927273 64.150125 214.927273 62.150125 
L 214.927273 48.472 
Q 214.927273 46.472 212.927273 46.472 
L 124.967898 46.472 
Q 122.967898 46.472 122.967898 48.472 
L 122.967898 62.150125 
Q 122.967898 64.150125 124.967898 64.150125 
z
" style="fill: #ffffff; opacity: 0.8; stroke: #cccccc; stroke-linejoin: miter"/>
    </g>
    <g id="line2d_6">
     <path d="M 126.967898 54.570438 
L 136.967898 54.570438 
L 146.967898 54.570438 
" style="fill: none; stroke: #1f77b4; stroke-width: 1.5; stroke-linecap: square"/>
    </g>
    <g id="text_7">
     <!-- Throttle ref -->
     <g transform="translate(154.967898 58.070438)scale(0.1 -0.1)">
      <use xlink:href="#DejaVuSans-54"/>
      <use xlink:href="#DejaVuSans-68" x="61.083984"/>
      <use xlink:href="#DejaVuSans-72" x="124.462891"/>
      <use xlink:href="#DejaVuSans-6f" x="163.326172"/>
      <use xlink:href="#DejaVuSans-74" x="224.507812"/>
      <use xlink:href="#DejaVuSans-74" x="263.716797"/>
      <use xlink:href="#DejaVuSans-6c" x="302.925781"/>
      <use xlink:href="#DejaVuSans-65" x="330.708984"/>
      <use xlink:href="#DejaVuSans-20" x="392.232422"/>
      <use xlink:href="#DejaVuSans-72" x="424.019531"/>
      <use xlink:href="#DejaVuSans-65" x="462.882812"/>
      <use xlink:href="#DejaVuSans-66" x="524.40625"/>
     </g>
    </g>
   </g>
  </g>
  <g id="axes_2">
   <g id="patch_8">
    <path d="M 252.392727 99.322435 
L 414.72 99.322435 
L 414.72 41.472 
L 252.392727 41.472 
z
" style="fill: #ffffff"/>
   </g>
   <g id="matplotlib.axis_3">
    <g id="xtick_4">
     <g id="line2d_7">
      <g>
       <use xlink:href="#m97e6810da5" x="255.896978" y="99.322435" style="stroke: #000000; stroke-width: 0.8"/>
      </g>
     </g>
     <g id="text_8">
      <!-- 0 -->
      <g transform="translate(252.715728 113.920872)scale(0.1 -0.1)">
       <use xlink:href="#DejaVuSans-30"/>
      </g>
     </g>
    </g>
    <g id="xtick_5">
     <g id="line2d_8">
      <g>
       <use xlink:href="#m97e6810da5" x="320.011793" y="99.322435" style="stroke: #000000; stroke-width: 0.8"/>
      </g>
     </g>
     <g id="text_9">
      <!-- 1000 -->
      <g transform="translate(307.286793 113.920872)scale(0.1 -0.1)">
       <use xlink:href="#DejaVuSans-31"/>
       <use xlink:href="#DejaVuSans-30" x="63.623047"/>
       <use xlink:href="#DejaVuSans-30" x="127.246094"/>
       <use xlink:href="#DejaVuSans-30" x="190.869141"/>
      </g>
     </g>
    </g>
    <g id="xtick_6">
     <g id="line2d_9">
      <g>
       <use xlink:href="#m97e6810da5" x="384.126608" y="99.322435" style="stroke: #000000; stroke-width: 0.8"/>
      </g>
     </g>
     <g id="text_10">
      <!-- 2000 -->
      <g transform="translate(371.401608 113.920872)scale(0.1 -0.1)">
       <use xlink:href="#DejaVuSans-32"/>
       <use xlink:href="#DejaVuSans-30" x="63.623047"/>
       <use xlink:href="#DejaVuSans-30" x="127.246094"/>
       <use xlink:href="#DejaVuSans-30" x="190.869141"/>
      </g>
     </g>
    </g>
    <g id="text_11">
     <!-- time ms -->
     <g transform="translate(313.196207 127.598997)scale(0.1 -0.1)">
      <use xlink:href="#DejaVuSans-74"/>
      <use xlink:href="#DejaVuSans-69" x="39.208984"/>
      <use xlink:href="#DejaVuSans-6d" x="66.992188"/>
      <use xlink:href="#DejaVuSans-65" x="164.404297"/>
      <use xlink:href="#DejaVuSans-20" x="225.927734"/>
      <use xlink:href="#DejaVuSans-6d" x="257.714844"/>
      <use xlink:href="#DejaVuSans-73" x="355.126953"/>
     </g>
    </g>
   </g>
   <g id="matplotlib.axis_4">
    <g id="ytick_2">
     <g id="line2d_10">
      <g>
       <use xlink:href="#m6fe1a6c6f4" x="252.392727" y="85.423304" style="stroke: #000000; stroke-width: 0.8"/>
      </g>
     </g>
     <g id="text_12">
      <!-- 80 -->
      <g transform="translate(232.667727 89.222523)scale(0.1 -0.1)">
       <defs>
        <path id="DejaVuSans-38" d="M 2034 2216 
Q 1584 2216 1326 1975 
Q 1069 1734 1069 1313 
Q 1069 891 1326 650 
Q 1584 409 2034 409 
Q 2484 409 2743 651 
Q 3003 894 3003 1313 
Q 3003 1734 2745 1975 
Q 2488 2216 2034 2216 
z
M 1403 2484 
Q 997 2584 770 2862 
Q 544 3141 544 3541 
Q 544 4100 942 4425 
Q 1341 4750 2034 4750 
Q 2731 4750 3128 4425 
Q 3525 4100 3525 3541 
Q 3525 3141 3298 2862 
Q 3072 2584 2669 2484 
Q 3125 2378 3379 2068 
Q 3634 1759 3634 1313 
Q 3634 634 3220 271 
Q 2806 -91 2034 -91 
Q 1263 -91 848 271 
Q 434 634 434 1313 
Q 434 1759 690 2068 
Q 947 2378 1403 2484 
z
M 1172 3481 
Q 1172 3119 1398 2916 
Q 1625 2713 2034 2713 
Q 2441 2713 2670 2916 
Q 2900 3119 2900 3481 
Q 2900 3844 2670 4047 
Q 2441 4250 2034 4250 
Q 1625 4250 1398 4047 
Q 1172 3844 1172 3481 
z
" transform="scale(0.015625)"/>
       </defs>
       <use xlink:href="#DejaVuSans-38"/>
       <use xlink:href="#DejaVuSans-30" x="63.623047"/>
      </g>
     </g>
    </g>
    <g id="ytick_3">
     <g id="line2d_11">
      <g>
       <use xlink:href="#m6fe1a6c6f4" x="252.392727" y="47.858087" style="stroke: #000000; stroke-width: 0.8"/>
      </g>
     </g>
     <g id="text_13">
      <!-- 90 -->
      <g transform="translate(232.667727 51.657306)scale(0.1 -0.1)">
       <defs>
        <path id="DejaVuSans-39" d="M 703 97 
L 703 672 
Q 941 559 1184 500 
Q 1428 441 1663 441 
Q 2288 441 2617 861 
Q 2947 1281 2994 2138 
Q 2813 1869 2534 1725 
Q 2256 1581 1919 1581 
Q 1219 1581 811 2004 
Q 403 2428 403 3163 
Q 403 3881 828 4315 
Q 1253 4750 1959 4750 
Q 2769 4750 3195 4129 
Q 3622 3509 3622 2328 
Q 3622 1225 3098 567 
Q 2575 -91 1691 -91 
Q 1453 -91 1209 -44 
Q 966 3 703 97 
z
M 1959 2075 
Q 2384 2075 2632 2365 
Q 2881 2656 2881 3163 
Q 2881 3666 2632 3958 
Q 2384 4250 1959 4250 
Q 1534 4250 1286 3958 
Q 1038 3666 1038 3163 
Q 1038 2656 1286 2365 
Q 1534 2075 1959 2075 
z
" transform="scale(0.015625)"/>
       </defs>
       <use xlink:href="#DejaVuSans-39"/>
       <use xlink:href="#DejaVuSans-30" x="63.623047"/>
      </g>
     </g>
    </g>
    <g id="text_14">
     <!-- Altitude Z -->
     <g transform="translate(226.58804 94.949561)rotate(-90)scale(0.1 -0.1)">
      <defs>
       <path id="DejaVuSans-41" d="M 2188 4044 
L 1331 1722 
L 3047 1722 
L 2188 4044 
z
M 1831 4666 
L 2547 4666 
L 4325 0 
L 3669 0 
L 3244 1197 
L 1141 1197 
L 716 0 
L 50 0 
L 1831 4666 
z
" transform="scale(0.015625)"/>
       <path id="DejaVuSans-75" d="M 544 1381 
L 544 3500 
L 1119 3500 
L 1119 1403 
Q 1119 906 1312 657 
Q 1506 409 1894 409 
Q 2359 409 2629 706 
Q 2900 1003 2900 1516 
L 2900 3500 
L 3475 3500 
L 3475 0 
L 2900 0 
L 2900 538 
Q 2691 219 2414 64 
Q 2138 -91 1772 -91 
Q 1169 -91 856 284 
Q 544 659 544 1381 
z
M 1991 3584 
L 1991 3584 
z
" transform="scale(0.015625)"/>
       <path id="DejaVuSans-64" d="M 2906 2969 
L 2906 4863 
L 3481 4863 
L 3481 0 
L 2906 0 
L 2906 525 
Q 2725 213 2448 61 
Q 2172 -91 1784 -91 
Q 1150 -91 751 415 
Q 353 922 353 1747 
Q 353 2572 751 3078 
Q 1150 3584 1784 3584 
Q 2172 3584 2448 3432 
Q 2725 3281 2906 2969 
z
M 947 1747 
Q 947 1113 1208 752 
Q 1469 391 1925 391 
Q 2381 391 2643 752 
Q 2906 1113 2906 1747 
Q 2906 2381 2643 2742 
Q 2381 3103 1925 3103 
Q 1469 3103 1208 2742 
Q 947 2381 947 1747 
z
" transform="scale(0.015625)"/>
       <path id="DejaVuSans-5a" d="M 359 4666 
L 4025 4666 
L 4025 4184 
L 1075 531 
L 4097 531 
L 4097 0 
L 288 0 
L 288 481 
L 3238 4134 
L 359 4134 
L 359 4666 
z
" transform="scale(0.015625)"/>
      </defs>
      <use xlink:href="#DejaVuSans-41"/>
      <use xlink:href="#DejaVuSans-6c" x="68.408203"/>
      <use xlink:href="#DejaVuSans-74" x="96.191406"/>
      <use xlink:href="#DejaVuSans-69" x="135.400391"/>
      <use xlink:href="#DejaVuSans-74" x="163.183594"/>
      <use xlink:href="#DejaVuSans-75" x="202.392578"/>
      <use xlink:href="#DejaVuSans-64" x="265.771484"/>
      <use xlink:href="#DejaVuSans-65" x="329.248047"/>
      <use xlink:href="#DejaVuSans-20" x="390.771484"/>
      <use xlink:href="#DejaVuSans-5a" x="422.558594"/>
     </g>
    </g>
   </g>
   <g id="line2d_12">
    <path d="M 259.77124 66.640696 
L 262.319782 62.884174 
L 264.935227 66.640696 
L 266.285206 85.423304 
L 267.568429 74.153739 
L 269.640116 55.37113 
L 270.965339 62.884174 
L 272.937422 85.423304 
L 274.239421 59.127652 
L 276.523731 59.127652 
L 277.822619 77.910261 
L 279.497736 66.640696 
L 281.216598 62.884174 
L 282.529303 77.910261 
L 285.074088 74.153739 
L 286.356121 74.153739 
L 287.566872 66.640696 
L 289.014426 77.910261 
L 290.570185 70.397217 
L 291.790417 70.397217 
L 292.951968 74.153739 
L 294.700598 70.397217 
L 296.517462 74.153739 
L 298.03278 70.397217 
L 299.432203 62.884174 
L 301.225128 59.127652 
L 302.635186 66.640696 
L 304.052533 66.640696 
L 305.806895 74.153739 
L 307.029329 74.153739 
L 308.214162 66.640696 
L 309.881886 66.640696 
L 311.42536 62.884174 
L 312.631119 81.666783 
L 314.141227 81.666783 
L 315.307739 62.884174 
L 317.958441 74.153739 
L 319.794418 70.397217 
L 321.18907 55.37113 
L 322.309809 81.666783 
L 323.839732 59.127652 
L 325.560009 70.397217 
L 326.689167 74.153739 
L 327.79416 70.397217 
L 329.569248 81.666783 
L 331.332513 85.423304 
L 332.5997 44.101565 
L 334.217434 70.397217 
L 335.641011 85.423304 
L 336.843605 74.153739 
L 338.247717 59.127652 
L 339.449341 70.397217 
L 340.887187 62.884174 
L 342.367616 74.153739 
L 344.155363 51.614609 
L 345.17544 55.37113 
L 346.630615 70.397217 
L 348.271536 55.37113 
L 349.897949 96.69287 
L 351.670068 77.910261 
L 353.381627 85.423304 
L 354.679753 89.179826 
L 356.291493 51.614609 
L 357.958933 51.614609 
L 359.248331 74.153739 
L 360.90286 77.910261 
L 362.343326 55.37113 
L 363.655399 77.910261 
L 364.88867 59.127652 
L 366.320538 66.640696 
L 367.847201 74.153739 
L 369.484157 81.666783 
L 370.957879 74.153739 
L 372.229552 81.666783 
L 373.35953 47.858087 
L 374.453897 59.127652 
L 375.734749 59.127652 
L 377.195547 66.640696 
L 378.485072 77.910261 
L 380.654894 70.397217 
L 382.188523 74.153739 
L 383.272982 74.153739 
L 384.438046 81.666783 
L 385.901115 74.153739 
L 386.996656 44.101565 
L 388.664324 59.127652 
L 390.24332 66.640696 
L 391.369005 70.397217 
L 392.628554 77.910261 
L 393.991206 66.640696 
L 395.193977 70.397217 
L 396.542442 55.37113 
L 397.699517 77.910261 
L 399.248743 59.127652 
L 400.947986 62.884174 
L 402.14301 70.397217 
L 403.240838 66.640696 
L 404.700287 59.127652 
L 405.83915 70.397217 
L 407.341488 74.153739 
" clip-path="url(#p40a1dd1b91)" style="fill: none; stroke: #1f77b4; stroke-width: 1.5; stroke-linecap: square"/>
   </g>
   <g id="patch_9">
    <path d="M 252.392727 99.322435 
L 252.392727 41.472 
" style="fill: none; stroke: #000000; stroke-width: 0.8; stroke-linejoin: miter; stroke-linecap: square"/>
   </g>
   <g id="patch_10">
    <path d="M 414.72 99.322435 
L 414.72 41.472 
" style="fill: none; stroke: #000000; stroke-width: 0.8; stroke-linejoin: miter; stroke-linecap: square"/>
   </g>
   <g id="patch_11">
    <path d="M 252.392727 99.322435 
L 414.72 99.322435 
" style="fill: none; stroke: #000000; stroke-width: 0.8; stroke-linejoin: miter; stroke-linecap: square"/>
   </g>
   <g id="patch_12">
    <path d="M 252.392727 41.472 
L 414.72 41.472 
" style="fill: none; stroke: #000000; stroke-width: 0.8; stroke-linejoin: miter; stroke-linecap: square"/>
   </g>
   <g id="legend_2">
    <g id="patch_13">
     <path d="M 259.392727 94.322435 
L 353.128665 94.322435 
Q 355.128665 94.322435 355.128665 92.322435 
L 355.128665 78.64431 
Q 355.128665 76.64431 353.128665 76.64431 
L 259.392727 76.64431 
Q 257.392727 76.64431 257.392727 78.64431 
L 257.392727 92.322435 
Q 257.392727 94.322435 259.392727 94.322435 
z
" style="fill: #ffffff; opacity: 0.8; stroke: #cccccc; stroke-linejoin: miter"/>
    </g>
    <g id="line2d_13">
     <path d="M 261.392727 84.742747 
L 271.392727 84.742747 
L 281.392727 84.742747 
" style="fill: none; stroke: #1f77b4; stroke-width: 1.5; stroke-linecap: square"/>
    </g>
    <g id="text_15">
     <!-- Altitude mm -->
     <g transform="translate(289.392727 88.242747)scale(0.1 -0.1)">
      <use xlink:href="#DejaVuSans-41"/>
      <use xlink:href="#DejaVuSans-6c" x="68.408203"/>
      <use xlink:href="#DejaVuSans-74" x="96.191406"/>
      <use xlink:href="#DejaVuSans-69" x="135.400391"/>
      <use xlink:href="#DejaVuSans-74" x="163.183594"/>
      <use xlink:href="#DejaVuSans-75" x="202.392578"/>
      <use xlink:href="#DejaVuSans-64" x="265.771484"/>
      <use xlink:href="#DejaVuSans-65" x="329.248047"/>
      <use xlink:href="#DejaVuSans-20" x="390.771484"/>
      <use xlink:href="#DejaVuSans-6d" x="422.558594"/>
      <use xlink:href="#DejaVuSans-6d" x="519.970703"/>
     </g>
    </g>
   </g>
  </g>
  <g id="axes_3">
   <g id="patch_14">
    <path d="M 57.6 168.742957 
L 219.927273 168.742957 
L 219.927273 110.892522 
L 57.6 110.892522 
z
" style="fill: #ffffff"/>
   </g>
   <g id="matplotlib.axis_5">
    <g id="xtick_7">
     <g id="line2d_14">
      <g>
       <use xlink:href="#m97e6810da5" x="61.10425" y="168.742957" style="stroke: #000000; stroke-width: 0.8"/>
      </g>
     </g>
     <g id="text_16">
      <!-- 0 -->
      <g transform="translate(57.923 183.341394)scale(0.1 -0.1)">
       <use xlink:href="#DejaVuSans-30"/>
      </g>
     </g>
    </g>
    <g id="xtick_8">
     <g id="line2d_15">
      <g>
       <use xlink:href="#m97e6810da5" x="125.219065" y="168.742957" style="stroke: #000000; stroke-width: 0.8"/>
      </g>
     </g>
     <g id="text_17">
      <!-- 1000 -->
      <g transform="translate(112.494065 183.341394)scale(0.1 -0.1)">
       <use xlink:href="#DejaVuSans-31"/>
       <use xlink:href="#DejaVuSans-30" x="63.623047"/>
       <use xlink:href="#DejaVuSans-30" x="127.246094"/>
       <use xlink:href="#DejaVuSans-30" x="190.869141"/>
      </g>
     </g>
    </g>
    <g id="xtick_9">
     <g id="line2d_16">
      <g>
       <use xlink:href="#m97e6810da5" x="189.33388" y="168.742957" style="stroke: #000000; stroke-width: 0.8"/>
      </g>
     </g>
     <g id="text_18">
      <!-- 2000 -->
      <g transform="translate(176.60888 183.341394)scale(0.1 -0.1)">
       <use xlink:href="#DejaVuSans-32"/>
       <use xlink:href="#DejaVuSans-30" x="63.623047"/>
       <use xlink:href="#DejaVuSans-30" x="127.246094"/>
       <use xlink:href="#DejaVuSans-30" x="190.869141"/>
      </g>
     </g>
    </g>
    <g id="text_19">
     <!-- time ms -->
     <g transform="translate(118.40348 197.019519)scale(0.1 -0.1)">
      <use xlink:href="#DejaVuSans-74"/>
      <use xlink:href="#DejaVuSans-69" x="39.208984"/>
      <use xlink:href="#DejaVuSans-6d" x="66.992188"/>
      <use xlink:href="#DejaVuSans-65" x="164.404297"/>
      <use xlink:href="#DejaVuSans-20" x="225.927734"/>
      <use xlink:href="#DejaVuSans-6d" x="257.714844"/>
      <use xlink:href="#DejaVuSans-73" x="355.126953"/>
     </g>
    </g>
   </g>
   <g id="matplotlib.axis_6">
    <g id="ytick_4">
     <g id="line2d_17">
      <g>
       <use xlink:href="#m6fe1a6c6f4" x="57.6" y="152.924229" style="stroke: #000000; stroke-width: 0.8"/>
      </g>
     </g>
     <g id="text_20">
      <!-- 33.0 -->
      <g transform="translate(28.334375 156.723448)scale(0.1 -0.1)">
       <use xlink:href="#DejaVuSans-33"/>
       <use xlink:href="#DejaVuSans-33" x="63.623047"/>
       <use xlink:href="#DejaVuSans-2e" x="127.246094"/>
       <use xlink:href="#DejaVuSans-30" x="159.033203"/>
      </g>
     </g>
    </g>
    <g id="ytick_5">
     <g id="line2d_18">
      <g>
       <use xlink:href="#m6fe1a6c6f4" x="57.6" y="130.942566" style="stroke: #000000; stroke-width: 0.8"/>
      </g>
     </g>
     <g id="text_21">
      <!-- 33.5 -->
      <g transform="translate(28.334375 134.741785)scale(0.1 -0.1)">
       <defs>
        <path id="DejaVuSans-35" d="M 691 4666 
L 3169 4666 
L 3169 4134 
L 1269 4134 
L 1269 2991 
Q 1406 3038 1543 3061 
Q 1681 3084 1819 3084 
Q 2600 3084 3056 2656 
Q 3513 2228 3513 1497 
Q 3513 744 3044 326 
Q 2575 -91 1722 -91 
Q 1428 -91 1123 -41 
Q 819 9 494 109 
L 494 744 
Q 775 591 1075 516 
Q 1375 441 1709 441 
Q 2250 441 2565 725 
Q 2881 1009 2881 1497 
Q 2881 1984 2565 2268 
Q 2250 2553 1709 2553 
Q 1456 2553 1204 2497 
Q 953 2441 691 2322 
L 691 4666 
z
" transform="scale(0.015625)"/>
       </defs>
       <use xlink:href="#DejaVuSans-33"/>
       <use xlink:href="#DejaVuSans-33" x="63.623047"/>
       <use xlink:href="#DejaVuSans-2e" x="127.246094"/>
       <use xlink:href="#DejaVuSans-35" x="159.033203"/>
      </g>
     </g>
    </g>
    <g id="text_22">
     <!-- Yaw -->
     <g transform="translate(22.254688 149.33727)rotate(-90)scale(0.1 -0.1)">
      <defs>
       <path id="DejaVuSans-59" d="M -13 4666 
L 666 4666 
L 1959 2747 
L 3244 4666 
L 3922 4666 
L 2272 2222 
L 2272 0 
L 1638 0 
L 1638 2222 
L -13 4666 
z
" transform="scale(0.015625)"/>
       <path id="DejaVuSans-61" d="M 2194 1759 
Q 1497 1759 1228 1600 
Q 959 1441 959 1056 
Q 959 750 1161 570 
Q 1363 391 1709 391 
Q 2188 391 2477 730 
Q 2766 1069 2766 1631 
L 2766 1759 
L 2194 1759 
z
M 3341 1997 
L 3341 0 
L 2766 0 
L 2766 531 
Q 2569 213 2275 61 
Q 1981 -91 1556 -91 
Q 1019 -91 701 211 
Q 384 513 384 1019 
Q 384 1609 779 1909 
Q 1175 2209 1959 2209 
L 2766 2209 
L 2766 2266 
Q 2766 2663 2505 2880 
Q 2244 3097 1772 3097 
Q 1472 3097 1187 3025 
Q 903 2953 641 2809 
L 641 3341 
Q 956 3463 1253 3523 
Q 1550 3584 1831 3584 
Q 2591 3584 2966 3190 
Q 3341 2797 3341 1997 
z
" transform="scale(0.015625)"/>
       <path id="DejaVuSans-77" d="M 269 3500 
L 844 3500 
L 1563 769 
L 2278 3500 
L 2956 3500 
L 3675 769 
L 4391 3500 
L 4966 3500 
L 4050 0 
L 3372 0 
L 2619 2869 
L 1863 0 
L 1184 0 
L 269 3500 
z
" transform="scale(0.015625)"/>
      </defs>
      <use xlink:href="#DejaVuSans-59"/>
      <use xlink:href="#DejaVuSans-61" x="47.333984"/>
      <use xlink:href="#DejaVuSans-77" x="108.613281"/>
     </g>
    </g>
   </g>
   <g id="line2d_19">
    <path d="M 64.978512 113.522087 
L 67.527055 116.301468 
L 70.1425 116.301468 
L 71.492479 116.301468 
L 72.775701 116.301468 
L 74.847389 116.301468 
L 76.172612 116.301468 
L 78.144695 116.301468 
L 79.446693 116.301468 
L 81.731003 116.301468 
L 83.029892 116.301468 
L 84.705009 116.301468 
L 86.423871 113.522087 
L 87.736576 113.522087 
L 90.281361 166.113391 
L 91.563394 166.113391 
L 92.774144 166.113391 
L 94.221699 166.113391 
L 95.777457 166.113391 
L 96.99769 166.113391 
L 98.159241 166.113391 
L 99.907871 166.113391 
L 101.724735 166.113391 
L 103.240053 166.113391 
L 104.639475 166.113391 
L 106.432401 166.113391 
L 107.842459 166.113391 
L 109.259806 166.113391 
L 111.014168 166.113391 
L 112.236602 166.113391 
L 113.421435 166.113391 
L 115.089159 166.113391 
L 116.632632 166.113391 
L 117.838392 166.113391 
L 119.3485 166.113391 
L 120.515012 166.113391 
L 123.165714 166.113391 
L 125.001691 166.113391 
L 126.396342 166.113391 
L 127.517081 166.113391 
L 129.047005 166.113391 
L 130.767282 166.113391 
L 131.89644 166.113391 
L 133.001433 166.113391 
L 134.776521 166.113391 
L 136.539786 166.113391 
L 137.806973 166.113391 
L 139.424706 166.113391 
L 140.848284 166.113391 
L 142.050878 166.113391 
L 143.45499 166.113391 
L 144.656614 166.113391 
L 146.09446 166.113391 
L 147.574889 166.113391 
L 149.362636 166.113391 
L 150.382713 166.113391 
L 151.837887 166.113391 
L 153.478809 166.113391 
L 155.105221 166.113391 
L 156.877341 166.113391 
L 158.588899 166.113391 
L 159.887026 166.113391 
L 161.498766 166.113391 
L 163.166206 166.113391 
L 164.455603 166.113391 
L 166.110132 166.113391 
L 167.550598 166.113391 
L 168.862672 166.113391 
L 170.095942 166.113391 
L 171.527811 166.113391 
L 173.054474 166.113391 
L 174.69143 166.113391 
L 176.165152 166.113391 
L 177.436824 166.113391 
L 178.566803 166.113391 
L 179.66117 166.113391 
L 180.942022 166.113391 
L 182.40282 166.113391 
L 183.692345 166.113391 
L 185.862166 166.113391 
L 187.395796 166.113391 
L 188.480255 166.113391 
L 189.645318 166.113391 
L 191.108388 166.113391 
L 192.203929 166.113391 
L 193.871597 166.113391 
L 195.450592 166.113391 
L 196.576278 166.113391 
L 197.835826 166.113391 
L 199.198479 166.113391 
L 200.40125 166.113391 
L 201.749714 166.113391 
L 202.90679 166.113391 
L 204.456016 166.113391 
L 206.155259 166.113391 
L 207.350282 166.113391 
L 208.448111 166.113391 
L 209.90756 166.113391 
L 211.046423 166.113391 
L 212.54876 166.113391 
" clip-path="url(#pd9b9b52a94)" style="fill: none; stroke: #1f77b4; stroke-width: 1.5; stroke-linecap: square"/>
   </g>
   <g id="patch_15">
    <path d="M 57.6 168.742957 
L 57.6 110.892522 
" style="fill: none; stroke: #000000; stroke-width: 0.8; stroke-linejoin: miter; stroke-linecap: square"/>
   </g>
   <g id="patch_16">
    <path d="M 219.927273 168.742957 
L 219.927273 110.892522 
" style="fill: none; stroke: #000000; stroke-width: 0.8; stroke-linejoin: miter; stroke-linecap: square"/>
   </g>
   <g id="patch_17">
    <path d="M 57.6 168.742957 
L 219.927273 168.742957 
" style="fill: none; stroke: #000000; stroke-width: 0.8; stroke-linejoin: miter; stroke-linecap: square"/>
   </g>
   <g id="patch_18">
    <path d="M 57.6 110.892522 
L 219.927273 110.892522 
" style="fill: none; stroke: #000000; stroke-width: 0.8; stroke-linejoin: miter; stroke-linecap: square"/>
   </g>
   <g id="legend_3">
    <g id="patch_19">
     <path d="M 139.860085 133.570647 
L 212.927273 133.570647 
Q 214.927273 133.570647 214.927273 131.570647 
L 214.927273 117.892522 
Q 214.927273 115.892522 212.927273 115.892522 
L 139.860085 115.892522 
Q 137.860085 115.892522 137.860085 117.892522 
L 137.860085 131.570647 
Q 137.860085 133.570647 139.860085 133.570647 
z
" style="fill: #ffffff; opacity: 0.8; stroke: #cccccc; stroke-linejoin: miter"/>
    </g>
    <g id="line2d_20">
     <path d="M 141.860085 123.990959 
L 151.860085 123.990959 
L 161.860085 123.990959 
" style="fill: none; stroke: #1f77b4; stroke-width: 1.5; stroke-linecap: square"/>
    </g>
    <g id="text_23">
     <!-- Yaw deg -->
     <g transform="translate(169.860085 127.490959)scale(0.1 -0.1)">
      <defs>
       <path id="DejaVuSans-67" d="M 2906 1791 
Q 2906 2416 2648 2759 
Q 2391 3103 1925 3103 
Q 1463 3103 1205 2759 
Q 947 2416 947 1791 
Q 947 1169 1205 825 
Q 1463 481 1925 481 
Q 2391 481 2648 825 
Q 2906 1169 2906 1791 
z
M 3481 434 
Q 3481 -459 3084 -895 
Q 2688 -1331 1869 -1331 
Q 1566 -1331 1297 -1286 
Q 1028 -1241 775 -1147 
L 775 -588 
Q 1028 -725 1275 -790 
Q 1522 -856 1778 -856 
Q 2344 -856 2625 -561 
Q 2906 -266 2906 331 
L 2906 616 
Q 2728 306 2450 153 
Q 2172 0 1784 0 
Q 1141 0 747 490 
Q 353 981 353 1791 
Q 353 2603 747 3093 
Q 1141 3584 1784 3584 
Q 2172 3584 2450 3431 
Q 2728 3278 2906 2969 
L 2906 3500 
L 3481 3500 
L 3481 434 
z
" transform="scale(0.015625)"/>
      </defs>
      <use xlink:href="#DejaVuSans-59"/>
      <use xlink:href="#DejaVuSans-61" x="47.333984"/>
      <use xlink:href="#DejaVuSans-77" x="108.613281"/>
      <use xlink:href="#DejaVuSans-20" x="190.400391"/>
      <use xlink:href="#DejaVuSans-64" x="222.1875"/>
      <use xlink:href="#DejaVuSans-65" x="285.664062"/>
      <use xlink:href="#DejaVuSans-67" x="347.1875"/>
     </g>
    </g>
   </g>
  </g>
  <g id="axes_4">
   <g id="patch_20">
    <path d="M 252.392727 168.742957 
L 414.72 168.742957 
L 414.72 110.892522 
L 252.392727 110.892522 
z
" style="fill: #ffffff"/>
   </g>
   <g id="matplotlib.axis_7">
    <g id="xtick_10">
     <g id="line2d_21">
      <g>
       <use xlink:href="#m97e6810da5" x="255.896978" y="168.742957" style="stroke: #000000; stroke-width: 0.8"/>
      </g>
     </g>
     <g id="text_24">
      <!-- 0 -->
      <g transform="translate(252.715728 183.341394)scale(0.1 -0.1)">
       <use xlink:href="#DejaVuSans-30"/>
      </g>
     </g>
    </g>
    <g id="xtick_11">
     <g id="line2d_22">
      <g>
       <use xlink:href="#m97e6810da5" x="320.011793" y="168.742957" style="stroke: #000000; stroke-width: 0.8"/>
      </g>
     </g>
     <g id="text_25">
      <!-- 1000 -->
      <g transform="translate(307.286793 183.341394)scale(0.1 -0.1)">
       <use xlink:href="#DejaVuSans-31"/>
       <use xlink:href="#DejaVuSans-30" x="63.623047"/>
       <use xlink:href="#DejaVuSans-30" x="127.246094"/>
       <use xlink:href="#DejaVuSans-30" x="190.869141"/>
      </g>
     </g>
    </g>
    <g id="xtick_12">
     <g id="line2d_23">
      <g>
       <use xlink:href="#m97e6810da5" x="384.126608" y="168.742957" style="stroke: #000000; stroke-width: 0.8"/>
      </g>
     </g>
     <g id="text_26">
      <!-- 2000 -->
      <g transform="translate(371.401608 183.341394)scale(0.1 -0.1)">
       <use xlink:href="#DejaVuSans-32"/>
       <use xlink:href="#DejaVuSans-30" x="63.623047"/>
       <use xlink:href="#DejaVuSans-30" x="127.246094"/>
       <use xlink:href="#DejaVuSans-30" x="190.869141"/>
      </g>
     </g>
    </g>
    <g id="text_27">
     <!-- time ms -->
     <g transform="translate(313.196207 197.019519)scale(0.1 -0.1)">
      <use xlink:href="#DejaVuSans-74"/>
      <use xlink:href="#DejaVuSans-69" x="39.208984"/>
      <use xlink:href="#DejaVuSans-6d" x="66.992188"/>
      <use xlink:href="#DejaVuSans-65" x="164.404297"/>
      <use xlink:href="#DejaVuSans-20" x="225.927734"/>
      <use xlink:href="#DejaVuSans-6d" x="257.714844"/>
      <use xlink:href="#DejaVuSans-73" x="355.126953"/>
     </g>
    </g>
   </g>
   <g id="matplotlib.axis_8">
    <g id="ytick_6">
     <g id="line2d_24">
      <g>
       <use xlink:href="#m6fe1a6c6f4" x="252.392727" y="166.113391" style="stroke: #000000; stroke-width: 0.8"/>
      </g>
     </g>
     <g id="text_28">
      <!-- 0.03 -->
      <g transform="translate(223.127102 169.91261)scale(0.1 -0.1)">
       <use xlink:href="#DejaVuSans-30"/>
       <use xlink:href="#DejaVuSans-2e" x="63.623047"/>
       <use xlink:href="#DejaVuSans-30" x="95.410156"/>
       <use xlink:href="#DejaVuSans-33" x="159.033203"/>
      </g>
     </g>
    </g>
    <g id="ytick_7">
     <g id="line2d_25">
      <g>
       <use xlink:href="#m6fe1a6c6f4" x="252.392727" y="113.522087" style="stroke: #000000; stroke-width: 0.8"/>
      </g>
     </g>
     <g id="text_29">
      <!-- 0.04 -->
      <g transform="translate(223.127102 117.321306)scale(0.1 -0.1)">
       <defs>
        <path id="DejaVuSans-34" d="M 2419 4116 
L 825 1625 
L 2419 1625 
L 2419 4116 
z
M 2253 4666 
L 3047 4666 
L 3047 1625 
L 3713 1625 
L 3713 1100 
L 3047 1100 
L 3047 0 
L 2419 0 
L 2419 1100 
L 313 1100 
L 313 1709 
L 2253 4666 
z
" transform="scale(0.015625)"/>
       </defs>
       <use xlink:href="#DejaVuSans-30"/>
       <use xlink:href="#DejaVuSans-2e" x="63.623047"/>
       <use xlink:href="#DejaVuSans-30" x="95.410156"/>
       <use xlink:href="#DejaVuSans-34" x="159.033203"/>
      </g>
     </g>
    </g>
    <g id="text_30">
     <!-- Acc_x -->
     <g transform="translate(216.76929 154.108364)rotate(-90)scale(0.1 -0.1)">
      <defs>
       <path id="DejaVuSans-63" d="M 3122 3366 
L 3122 2828 
Q 2878 2963 2633 3030 
Q 2388 3097 2138 3097 
Q 1578 3097 1268 2742 
Q 959 2388 959 1747 
Q 959 1106 1268 751 
Q 1578 397 2138 397 
Q 2388 397 2633 464 
Q 2878 531 3122 666 
L 3122 134 
Q 2881 22 2623 -34 
Q 2366 -91 2075 -91 
Q 1284 -91 818 406 
Q 353 903 353 1747 
Q 353 2603 823 3093 
Q 1294 3584 2113 3584 
Q 2378 3584 2631 3529 
Q 2884 3475 3122 3366 
z
" transform="scale(0.015625)"/>
       <path id="DejaVuSans-5f" d="M 3263 -1063 
L 3263 -1509 
L -63 -1509 
L -63 -1063 
L 3263 -1063 
z
" transform="scale(0.015625)"/>
       <path id="DejaVuSans-78" d="M 3513 3500 
L 2247 1797 
L 3578 0 
L 2900 0 
L 1881 1375 
L 863 0 
L 184 0 
L 1544 1831 
L 300 3500 
L 978 3500 
L 1906 2253 
L 2834 3500 
L 3513 3500 
z
" transform="scale(0.015625)"/>
      </defs>
      <use xlink:href="#DejaVuSans-41"/>
      <use xlink:href="#DejaVuSans-63" x="66.658203"/>
      <use xlink:href="#DejaVuSans-63" x="121.638672"/>
      <use xlink:href="#DejaVuSans-5f" x="176.619141"/>
      <use xlink:href="#DejaVuSans-78" x="226.619141"/>
     </g>
    </g>
   </g>
   <g id="line2d_26">
    <path d="M 259.77124 113.522087 
L 262.319782 166.113391 
L 264.935227 113.522087 
L 266.285206 113.522087 
L 267.568429 113.522087 
L 269.640116 113.522087 
L 270.965339 113.522087 
L 272.937422 166.113391 
L 274.239421 113.522087 
L 276.523731 166.113391 
L 277.822619 113.522087 
L 279.497736 113.522087 
L 281.216598 113.522087 
L 282.529303 113.522087 
L 285.074088 113.522087 
L 286.356121 113.522087 
L 287.566872 113.522087 
L 289.014426 113.522087 
L 290.570185 113.522087 
L 291.790417 113.522087 
L 292.951968 113.522087 
L 294.700598 113.522087 
L 296.517462 166.113391 
L 298.03278 113.522087 
L 299.432203 113.522087 
L 301.225128 113.522087 
L 302.635186 166.113391 
L 304.052533 113.522087 
L 305.806895 113.522087 
L 307.029329 113.522087 
L 308.214162 113.522087 
L 309.881886 113.522087 
L 311.42536 113.522087 
L 312.631119 113.522087 
L 314.141227 166.113391 
L 315.307739 113.522087 
L 317.958441 113.522087 
L 319.794418 166.113391 
L 321.18907 113.522087 
L 322.309809 113.522087 
L 323.839732 113.522087 
L 325.560009 113.522087 
L 326.689167 113.522087 
L 327.79416 113.522087 
L 329.569248 113.522087 
L 331.332513 113.522087 
L 332.5997 113.522087 
L 334.217434 113.522087 
L 335.641011 166.113391 
L 336.843605 113.522087 
L 338.247717 113.522087 
L 339.449341 113.522087 
L 340.887187 166.113391 
L 342.367616 113.522087 
L 344.155363 113.522087 
L 345.17544 166.113391 
L 346.630615 113.522087 
L 348.271536 113.522087 
L 349.897949 113.522087 
L 351.670068 113.522087 
L 353.381627 113.522087 
L 354.679753 113.522087 
L 356.291493 113.522087 
L 357.958933 113.522087 
L 359.248331 113.522087 
L 360.90286 113.522087 
L 362.343326 113.522087 
L 363.655399 113.522087 
L 364.88867 113.522087 
L 366.320538 113.522087 
L 367.847201 113.522087 
L 369.484157 166.113391 
L 370.957879 113.522087 
L 372.229552 113.522087 
L 373.35953 113.522087 
L 374.453897 113.522087 
L 375.734749 113.522087 
L 377.195547 113.522087 
L 378.485072 113.522087 
L 380.654894 113.522087 
L 382.188523 113.522087 
L 383.272982 166.113391 
L 384.438046 113.522087 
L 385.901115 113.522087 
L 386.996656 113.522087 
L 388.664324 113.522087 
L 390.24332 113.522087 
L 391.369005 113.522087 
L 392.628554 113.522087 
L 393.991206 113.522087 
L 395.193977 113.522087 
L 396.542442 113.522087 
L 397.699517 113.522087 
L 399.248743 166.113391 
L 400.947986 113.522087 
L 402.14301 113.522087 
L 403.240838 113.522087 
L 404.700287 113.522087 
L 405.83915 113.522087 
L 407.341488 113.522087 
" clip-path="url(#pc0537493fd)" style="fill: none; stroke: #1f77b4; stroke-width: 1.5; stroke-linecap: square"/>
   </g>
   <g id="patch_21">
    <path d="M 252.392727 168.742957 
L 252.392727 110.892522 
" style="fill: none; stroke: #000000; stroke-width: 0.8; stroke-linejoin: miter; stroke-linecap: square"/>
   </g>
   <g id="patch_22">
    <path d="M 414.72 168.742957 
L 414.72 110.892522 
" style="fill: none; stroke: #000000; stroke-width: 0.8; stroke-linejoin: miter; stroke-linecap: square"/>
   </g>
   <g id="patch_23">
    <path d="M 252.392727 168.742957 
L 414.72 168.742957 
" style="fill: none; stroke: #000000; stroke-width: 0.8; stroke-linejoin: miter; stroke-linecap: square"/>
   </g>
   <g id="patch_24">
    <path d="M 252.392727 110.892522 
L 414.72 110.892522 
" style="fill: none; stroke: #000000; stroke-width: 0.8; stroke-linejoin: miter; stroke-linecap: square"/>
   </g>
   <g id="legend_4">
    <g id="patch_25">
     <path d="M 334.434062 133.848772 
L 407.72 133.848772 
Q 409.72 133.848772 409.72 131.848772 
L 409.72 117.892522 
Q 409.72 115.892522 407.72 115.892522 
L 334.434062 115.892522 
Q 332.434062 115.892522 332.434062 117.892522 
L 332.434062 131.848772 
Q 332.434062 133.848772 334.434062 133.848772 
z
" style="fill: #ffffff; opacity: 0.8; stroke: #cccccc; stroke-linejoin: miter"/>
    </g>
    <g id="line2d_27">
     <path d="M 336.434062 123.990959 
L 346.434062 123.990959 
L 356.434062 123.990959 
" style="fill: none; stroke: #1f77b4; stroke-width: 1.5; stroke-linecap: square"/>
    </g>
    <g id="text_31">
     <!-- Acc_x  g -->
     <g transform="translate(364.434062 127.490959)scale(0.1 -0.1)">
      <use xlink:href="#DejaVuSans-41"/>
      <use xlink:href="#DejaVuSans-63" x="66.658203"/>
      <use xlink:href="#DejaVuSans-63" x="121.638672"/>
      <use xlink:href="#DejaVuSans-5f" x="176.619141"/>
      <use xlink:href="#DejaVuSans-78" x="226.619141"/>
      <use xlink:href="#DejaVuSans-20" x="285.798828"/>
      <use xlink:href="#DejaVuSans-20" x="317.585938"/>
      <use xlink:href="#DejaVuSans-67" x="349.373047"/>
     </g>
    </g>
   </g>
  </g>
  <g id="axes_5">
   <g id="patch_26">
    <path d="M 57.6 238.163478 
L 219.927273 238.163478 
L 219.927273 180.313043 
L 57.6 180.313043 
z
" style="fill: #ffffff"/>
   </g>
   <g id="matplotlib.axis_9">
    <g id="xtick_13">
     <g id="line2d_28">
      <g>
       <use xlink:href="#m97e6810da5" x="61.10425" y="238.163478" style="stroke: #000000; stroke-width: 0.8"/>
      </g>
     </g>
     <g id="text_32">
      <!-- 0 -->
      <g transform="translate(57.923 252.761916)scale(0.1 -0.1)">
       <use xlink:href="#DejaVuSans-30"/>
      </g>
     </g>
    </g>
    <g id="xtick_14">
     <g id="line2d_29">
      <g>
       <use xlink:href="#m97e6810da5" x="125.219065" y="238.163478" style="stroke: #000000; stroke-width: 0.8"/>
      </g>
     </g>
     <g id="text_33">
      <!-- 1000 -->
      <g transform="translate(112.494065 252.761916)scale(0.1 -0.1)">
       <use xlink:href="#DejaVuSans-31"/>
       <use xlink:href="#DejaVuSans-30" x="63.623047"/>
       <use xlink:href="#DejaVuSans-30" x="127.246094"/>
       <use xlink:href="#DejaVuSans-30" x="190.869141"/>
      </g>
     </g>
    </g>
    <g id="xtick_15">
     <g id="line2d_30">
      <g>
       <use xlink:href="#m97e6810da5" x="189.33388" y="238.163478" style="stroke: #000000; stroke-width: 0.8"/>
      </g>
     </g>
     <g id="text_34">
      <!-- 2000 -->
      <g transform="translate(176.60888 252.761916)scale(0.1 -0.1)">
       <use xlink:href="#DejaVuSans-32"/>
       <use xlink:href="#DejaVuSans-30" x="63.623047"/>
       <use xlink:href="#DejaVuSans-30" x="127.246094"/>
       <use xlink:href="#DejaVuSans-30" x="190.869141"/>
      </g>
     </g>
    </g>
    <g id="text_35">
     <!-- time ms -->
     <g transform="translate(118.40348 266.440041)scale(0.1 -0.1)">
      <use xlink:href="#DejaVuSans-74"/>
      <use xlink:href="#DejaVuSans-69" x="39.208984"/>
      <use xlink:href="#DejaVuSans-6d" x="66.992188"/>
      <use xlink:href="#DejaVuSans-65" x="164.404297"/>
      <use xlink:href="#DejaVuSans-20" x="225.927734"/>
      <use xlink:href="#DejaVuSans-6d" x="257.714844"/>
      <use xlink:href="#DejaVuSans-73" x="355.126953"/>
     </g>
    </g>
   </g>
   <g id="matplotlib.axis_10">
    <g id="ytick_8">
     <g id="line2d_31">
      <g>
       <use xlink:href="#m6fe1a6c6f4" x="57.6" y="215.579429" style="stroke: #000000; stroke-width: 0.8"/>
      </g>
     </g>
     <g id="text_36">
      <!-- −3.0 -->
      <g transform="translate(26.317187 219.378647)scale(0.1 -0.1)">
       <defs>
        <path id="DejaVuSans-2212" d="M 678 2272 
L 4684 2272 
L 4684 1741 
L 678 1741 
L 678 2272 
z
" transform="scale(0.015625)"/>
       </defs>
       <use xlink:href="#DejaVuSans-2212"/>
       <use xlink:href="#DejaVuSans-33" x="83.789062"/>
       <use xlink:href="#DejaVuSans-2e" x="147.412109"/>
       <use xlink:href="#DejaVuSans-30" x="179.199219"/>
      </g>
     </g>
    </g>
    <g id="ytick_9">
     <g id="line2d_32">
      <g>
       <use xlink:href="#m6fe1a6c6f4" x="57.6" y="192.581364" style="stroke: #000000; stroke-width: 0.8"/>
      </g>
     </g>
     <g id="text_37">
      <!-- −2.5 -->
      <g transform="translate(26.317187 196.380583)scale(0.1 -0.1)">
       <use xlink:href="#DejaVuSans-2212"/>
       <use xlink:href="#DejaVuSans-32" x="83.789062"/>
       <use xlink:href="#DejaVuSans-2e" x="147.412109"/>
       <use xlink:href="#DejaVuSans-35" x="179.199219"/>
      </g>
     </g>
    </g>
    <g id="text_38">
     <!-- Pitch -->
     <g transform="translate(20.2375 221.407792)rotate(-90)scale(0.1 -0.1)">
      <defs>
       <path id="DejaVuSans-50" d="M 1259 4147 
L 1259 2394 
L 2053 2394 
Q 2494 2394 2734 2622 
Q 2975 2850 2975 3272 
Q 2975 3691 2734 3919 
Q 2494 4147 2053 4147 
L 1259 4147 
z
M 628 4666 
L 2053 4666 
Q 2838 4666 3239 4311 
Q 3641 3956 3641 3272 
Q 3641 2581 3239 2228 
Q 2838 1875 2053 1875 
L 1259 1875 
L 1259 0 
L 628 0 
L 628 4666 
z
" transform="scale(0.015625)"/>
      </defs>
      <use xlink:href="#DejaVuSans-50"/>
      <use xlink:href="#DejaVuSans-69" x="58.052734"/>
      <use xlink:href="#DejaVuSans-74" x="85.835938"/>
      <use xlink:href="#DejaVuSans-63" x="125.044922"/>
      <use xlink:href="#DejaVuSans-68" x="180.025391"/>
     </g>
    </g>
   </g>
   <g id="line2d_33">
    <path d="M 64.978512 233.321036 
L 67.527055 182.942609 
L 70.1425 182.942609 
L 71.492479 182.942609 
L 72.775701 182.942609 
L 74.847389 182.942609 
L 76.172612 182.942609 
L 78.144695 182.942609 
L 79.446693 182.942609 
L 81.731003 182.942609 
L 83.029892 182.942609 
L 84.705009 182.942609 
L 86.423871 233.321036 
L 87.736576 233.321036 
L 90.281361 235.533913 
L 91.563394 235.533913 
L 92.774144 235.533913 
L 94.221699 235.533913 
L 95.777457 235.533913 
L 96.99769 235.533913 
L 98.159241 235.533913 
L 99.907871 235.533913 
L 101.724735 235.533913 
L 103.240053 235.533913 
L 104.639475 235.533913 
L 106.432401 235.533913 
L 107.842459 235.533913 
L 109.259806 235.533913 
L 111.014168 235.533913 
L 112.236602 235.533913 
L 113.421435 235.533913 
L 115.089159 235.533913 
L 116.632632 235.533913 
L 117.838392 235.533913 
L 119.3485 235.533913 
L 120.515012 235.533913 
L 123.165714 235.533913 
L 125.001691 235.533913 
L 126.396342 235.533913 
L 127.517081 235.533913 
L 129.047005 235.533913 
L 130.767282 235.533913 
L 131.89644 235.533913 
L 133.001433 235.533913 
L 134.776521 235.533913 
L 136.539786 235.533913 
L 137.806973 235.533913 
L 139.424706 235.533913 
L 140.848284 235.533913 
L 142.050878 235.533913 
L 143.45499 235.533913 
L 144.656614 235.533913 
L 146.09446 235.533913 
L 147.574889 235.533913 
L 149.362636 235.533913 
L 150.382713 235.533913 
L 151.837887 235.533913 
L 153.478809 235.533913 
L 155.105221 235.533913 
L 156.877341 235.533913 
L 158.588899 235.533913 
L 159.887026 235.533913 
L 161.498766 235.533913 
L 163.166206 235.533913 
L 164.455603 235.533913 
L 166.110132 235.533913 
L 167.550598 235.533913 
L 168.862672 235.533913 
L 170.095942 235.533913 
L 171.527811 235.533913 
L 173.054474 235.533913 
L 174.69143 235.533913 
L 176.165152 235.533913 
L 177.436824 235.533913 
L 178.566803 235.533913 
L 179.66117 235.533913 
L 180.942022 235.533913 
L 182.40282 235.533913 
L 183.692345 235.533913 
L 185.862166 235.533913 
L 187.395796 235.533913 
L 188.480255 235.533913 
L 189.645318 235.533913 
L 191.108388 235.533913 
L 192.203929 235.533913 
L 193.871597 235.533913 
L 195.450592 235.533913 
L 196.576278 235.533913 
L 197.835826 235.533913 
L 199.198479 235.533913 
L 200.40125 235.533913 
L 201.749714 235.533913 
L 202.90679 235.533913 
L 204.456016 235.533913 
L 206.155259 235.533913 
L 207.350282 235.533913 
L 208.448111 235.533913 
L 209.90756 235.533913 
L 211.046423 235.533913 
L 212.54876 235.533913 
" clip-path="url(#pac0b492486)" style="fill: none; stroke: #1f77b4; stroke-width: 1.5; stroke-linecap: square"/>
   </g>
   <g id="patch_27">
    <path d="M 57.6 238.163478 
L 57.6 180.313043 
" style="fill: none; stroke: #000000; stroke-width: 0.8; stroke-linejoin: miter; stroke-linecap: square"/>
   </g>
   <g id="patch_28">
    <path d="M 219.927273 238.163478 
L 219.927273 180.313043 
" style="fill: none; stroke: #000000; stroke-width: 0.8; stroke-linejoin: miter; stroke-linecap: square"/>
   </g>
   <g id="patch_29">
    <path d="M 57.6 238.163478 
L 219.927273 238.163478 
" style="fill: none; stroke: #000000; stroke-width: 0.8; stroke-linejoin: miter; stroke-linecap: square"/>
   </g>
   <g id="patch_30">
    <path d="M 57.6 180.313043 
L 219.927273 180.313043 
" style="fill: none; stroke: #000000; stroke-width: 0.8; stroke-linejoin: miter; stroke-linecap: square"/>
   </g>
   <g id="legend_5">
    <g id="patch_31">
     <path d="M 134.560085 202.991168 
L 212.927273 202.991168 
Q 214.927273 202.991168 214.927273 200.991168 
L 214.927273 187.313043 
Q 214.927273 185.313043 212.927273 185.313043 
L 134.560085 185.313043 
Q 132.560085 185.313043 132.560085 187.313043 
L 132.560085 200.991168 
Q 132.560085 202.991168 134.560085 202.991168 
z
" style="fill: #ffffff; opacity: 0.8; stroke: #cccccc; stroke-linejoin: miter"/>
    </g>
    <g id="line2d_34">
     <path d="M 136.560085 193.411481 
L 146.560085 193.411481 
L 156.560085 193.411481 
" style="fill: none; stroke: #1f77b4; stroke-width: 1.5; stroke-linecap: square"/>
    </g>
    <g id="text_39">
     <!-- Pitch deg -->
     <g transform="translate(164.560085 196.911481)scale(0.1 -0.1)">
      <use xlink:href="#DejaVuSans-50"/>
      <use xlink:href="#DejaVuSans-69" x="58.052734"/>
      <use xlink:href="#DejaVuSans-74" x="85.835938"/>
      <use xlink:href="#DejaVuSans-63" x="125.044922"/>
      <use xlink:href="#DejaVuSans-68" x="180.025391"/>
      <use xlink:href="#DejaVuSans-20" x="243.404297"/>
      <use xlink:href="#DejaVuSans-64" x="275.191406"/>
      <use xlink:href="#DejaVuSans-65" x="338.667969"/>
      <use xlink:href="#DejaVuSans-67" x="400.191406"/>
     </g>
    </g>
   </g>
  </g>
  <g id="axes_6">
   <g id="patch_32">
    <path d="M 252.392727 238.163478 
L 414.72 238.163478 
L 414.72 180.313043 
L 252.392727 180.313043 
z
" style="fill: #ffffff"/>
   </g>
   <g id="matplotlib.axis_11">
    <g id="xtick_16">
     <g id="line2d_35">
      <g>
       <use xlink:href="#m97e6810da5" x="255.896978" y="238.163478" style="stroke: #000000; stroke-width: 0.8"/>
      </g>
     </g>
     <g id="text_40">
      <!-- 0 -->
      <g transform="translate(252.715728 252.761916)scale(0.1 -0.1)">
       <use xlink:href="#DejaVuSans-30"/>
      </g>
     </g>
    </g>
    <g id="xtick_17">
     <g id="line2d_36">
      <g>
       <use xlink:href="#m97e6810da5" x="320.011793" y="238.163478" style="stroke: #000000; stroke-width: 0.8"/>
      </g>
     </g>
     <g id="text_41">
      <!-- 1000 -->
      <g transform="translate(307.286793 252.761916)scale(0.1 -0.1)">
       <use xlink:href="#DejaVuSans-31"/>
       <use xlink:href="#DejaVuSans-30" x="63.623047"/>
       <use xlink:href="#DejaVuSans-30" x="127.246094"/>
       <use xlink:href="#DejaVuSans-30" x="190.869141"/>
      </g>
     </g>
    </g>
    <g id="xtick_18">
     <g id="line2d_37">
      <g>
       <use xlink:href="#m97e6810da5" x="384.126608" y="238.163478" style="stroke: #000000; stroke-width: 0.8"/>
      </g>
     </g>
     <g id="text_42">
      <!-- 2000 -->
      <g transform="translate(371.401608 252.761916)scale(0.1 -0.1)">
       <use xlink:href="#DejaVuSans-32"/>
       <use xlink:href="#DejaVuSans-30" x="63.623047"/>
       <use xlink:href="#DejaVuSans-30" x="127.246094"/>
       <use xlink:href="#DejaVuSans-30" x="190.869141"/>
      </g>
     </g>
    </g>
    <g id="text_43">
     <!-- time ms -->
     <g transform="translate(313.196207 266.440041)scale(0.1 -0.1)">
      <use xlink:href="#DejaVuSans-74"/>
      <use xlink:href="#DejaVuSans-69" x="39.208984"/>
      <use xlink:href="#DejaVuSans-6d" x="66.992188"/>
      <use xlink:href="#DejaVuSans-65" x="164.404297"/>
      <use xlink:href="#DejaVuSans-20" x="225.927734"/>
      <use xlink:href="#DejaVuSans-6d" x="257.714844"/>
      <use xlink:href="#DejaVuSans-73" x="355.126953"/>
     </g>
    </g>
   </g>
   <g id="matplotlib.axis_12">
    <g id="ytick_10">
     <g id="line2d_38">
      <g>
       <use xlink:href="#m6fe1a6c6f4" x="252.392727" y="231.151304" style="stroke: #000000; stroke-width: 0.8"/>
      </g>
     </g>
     <g id="text_44">
      <!-- 0.0575 -->
      <g transform="translate(210.402102 234.950523)scale(0.1 -0.1)">
       <defs>
        <path id="DejaVuSans-37" d="M 525 4666 
L 3525 4666 
L 3525 4397 
L 1831 0 
L 1172 0 
L 2766 4134 
L 525 4134 
L 525 4666 
z
" transform="scale(0.015625)"/>
       </defs>
       <use xlink:href="#DejaVuSans-30"/>
       <use xlink:href="#DejaVuSans-2e" x="63.623047"/>
       <use xlink:href="#DejaVuSans-30" x="95.410156"/>
       <use xlink:href="#DejaVuSans-35" x="159.033203"/>
       <use xlink:href="#DejaVuSans-37" x="222.65625"/>
       <use xlink:href="#DejaVuSans-35" x="286.279297"/>
      </g>
     </g>
    </g>
    <g id="ytick_11">
     <g id="line2d_39">
      <g>
       <use xlink:href="#m6fe1a6c6f4" x="252.392727" y="209.238261" style="stroke: #000000; stroke-width: 0.8"/>
      </g>
     </g>
     <g id="text_45">
      <!-- 0.0600 -->
      <g transform="translate(210.402102 213.03748)scale(0.1 -0.1)">
       <defs>
        <path id="DejaVuSans-36" d="M 2113 2584 
Q 1688 2584 1439 2293 
Q 1191 2003 1191 1497 
Q 1191 994 1439 701 
Q 1688 409 2113 409 
Q 2538 409 2786 701 
Q 3034 994 3034 1497 
Q 3034 2003 2786 2293 
Q 2538 2584 2113 2584 
z
M 3366 4563 
L 3366 3988 
Q 3128 4100 2886 4159 
Q 2644 4219 2406 4219 
Q 1781 4219 1451 3797 
Q 1122 3375 1075 2522 
Q 1259 2794 1537 2939 
Q 1816 3084 2150 3084 
Q 2853 3084 3261 2657 
Q 3669 2231 3669 1497 
Q 3669 778 3244 343 
Q 2819 -91 2113 -91 
Q 1303 -91 875 529 
Q 447 1150 447 2328 
Q 447 3434 972 4092 
Q 1497 4750 2381 4750 
Q 2619 4750 2861 4703 
Q 3103 4656 3366 4563 
z
" transform="scale(0.015625)"/>
       </defs>
       <use xlink:href="#DejaVuSans-30"/>
       <use xlink:href="#DejaVuSans-2e" x="63.623047"/>
       <use xlink:href="#DejaVuSans-30" x="95.410156"/>
       <use xlink:href="#DejaVuSans-36" x="159.033203"/>
       <use xlink:href="#DejaVuSans-30" x="222.65625"/>
       <use xlink:href="#DejaVuSans-30" x="286.279297"/>
      </g>
     </g>
    </g>
    <g id="ytick_12">
     <g id="line2d_40">
      <g>
       <use xlink:href="#m6fe1a6c6f4" x="252.392727" y="187.325217" style="stroke: #000000; stroke-width: 0.8"/>
      </g>
     </g>
     <g id="text_46">
      <!-- 0.0625 -->
      <g transform="translate(210.402102 191.124436)scale(0.1 -0.1)">
       <use xlink:href="#DejaVuSans-30"/>
       <use xlink:href="#DejaVuSans-2e" x="63.623047"/>
       <use xlink:href="#DejaVuSans-30" x="95.410156"/>
       <use xlink:href="#DejaVuSans-36" x="159.033203"/>
       <use xlink:href="#DejaVuSans-32" x="222.65625"/>
       <use xlink:href="#DejaVuSans-35" x="286.279297"/>
      </g>
     </g>
    </g>
    <g id="text_47">
     <!-- Acc_y -->
     <g transform="translate(204.04429 223.528886)rotate(-90)scale(0.1 -0.1)">
      <defs>
       <path id="DejaVuSans-79" d="M 2059 -325 
Q 1816 -950 1584 -1140 
Q 1353 -1331 966 -1331 
L 506 -1331 
L 506 -850 
L 844 -850 
Q 1081 -850 1212 -737 
Q 1344 -625 1503 -206 
L 1606 56 
L 191 3500 
L 800 3500 
L 1894 763 
L 2988 3500 
L 3597 3500 
L 2059 -325 
z
" transform="scale(0.015625)"/>
      </defs>
      <use xlink:href="#DejaVuSans-41"/>
      <use xlink:href="#DejaVuSans-63" x="66.658203"/>
      <use xlink:href="#DejaVuSans-63" x="121.638672"/>
      <use xlink:href="#DejaVuSans-5f" x="176.619141"/>
      <use xlink:href="#DejaVuSans-79" x="226.619141"/>
     </g>
    </g>
   </g>
   <g id="line2d_41">
    <path d="M 259.77124 209.238261 
L 262.319782 209.238261 
L 264.935227 209.238261 
L 266.285206 209.238261 
L 267.568429 209.238261 
L 269.640116 209.238261 
L 270.965339 209.238261 
L 272.937422 209.238261 
L 274.239421 209.238261 
L 276.523731 209.238261 
L 277.822619 209.238261 
L 279.497736 209.238261 
L 281.216598 209.238261 
L 282.529303 209.238261 
L 285.074088 209.238261 
L 286.356121 209.238261 
L 287.566872 209.238261 
L 289.014426 209.238261 
L 290.570185 209.238261 
L 291.790417 209.238261 
L 292.951968 209.238261 
L 294.700598 209.238261 
L 296.517462 209.238261 
L 298.03278 209.238261 
L 299.432203 209.238261 
L 301.225128 209.238261 
L 302.635186 209.238261 
L 304.052533 209.238261 
L 305.806895 209.238261 
L 307.029329 209.238261 
L 308.214162 209.238261 
L 309.881886 209.238261 
L 311.42536 209.238261 
L 312.631119 209.238261 
L 314.141227 209.238261 
L 315.307739 209.238261 
L 317.958441 209.238261 
L 319.794418 209.238261 
L 321.18907 209.238261 
L 322.309809 209.238261 
L 323.839732 209.238261 
L 325.560009 209.238261 
L 326.689167 209.238261 
L 327.79416 209.238261 
L 329.569248 209.238261 
L 331.332513 209.238261 
L 332.5997 209.238261 
L 334.217434 209.238261 
L 335.641011 209.238261 
L 336.843605 209.238261 
L 338.247717 209.238261 
L 339.449341 209.238261 
L 340.887187 209.238261 
L 342.367616 209.238261 
L 344.155363 209.238261 
L 345.17544 209.238261 
L 346.630615 209.238261 
L 348.271536 209.238261 
L 349.897949 209.238261 
L 351.670068 209.238261 
L 353.381627 209.238261 
L 354.679753 209.238261 
L 356.291493 209.238261 
L 357.958933 209.238261 
L 359.248331 209.238261 
L 360.90286 209.238261 
L 362.343326 209.238261 
L 363.655399 209.238261 
L 364.88867 209.238261 
L 366.320538 209.238261 
L 367.847201 209.238261 
L 369.484157 209.238261 
L 370.957879 209.238261 
L 372.229552 209.238261 
L 373.35953 209.238261 
L 374.453897 209.238261 
L 375.734749 209.238261 
L 377.195547 209.238261 
L 378.485072 209.238261 
L 380.654894 209.238261 
L 382.188523 209.238261 
L 383.272982 209.238261 
L 384.438046 209.238261 
L 385.901115 209.238261 
L 386.996656 209.238261 
L 388.664324 209.238261 
L 390.24332 209.238261 
L 391.369005 209.238261 
L 392.628554 209.238261 
L 393.991206 209.238261 
L 395.193977 209.238261 
L 396.542442 209.238261 
L 397.699517 209.238261 
L 399.248743 209.238261 
L 400.947986 209.238261 
L 402.14301 209.238261 
L 403.240838 209.238261 
L 404.700287 209.238261 
L 405.83915 209.238261 
L 407.341488 209.238261 
" clip-path="url(#p4dc93c371d)" style="fill: none; stroke: #1f77b4; stroke-width: 1.5; stroke-linecap: square"/>
   </g>
   <g id="patch_33">
    <path d="M 252.392727 238.163478 
L 252.392727 180.313043 
" style="fill: none; stroke: #000000; stroke-width: 0.8; stroke-linejoin: miter; stroke-linecap: square"/>
   </g>
   <g id="patch_34">
    <path d="M 414.72 238.163478 
L 414.72 180.313043 
" style="fill: none; stroke: #000000; stroke-width: 0.8; stroke-linejoin: miter; stroke-linecap: square"/>
   </g>
   <g id="patch_35">
    <path d="M 252.392727 238.163478 
L 414.72 238.163478 
" style="fill: none; stroke: #000000; stroke-width: 0.8; stroke-linejoin: miter; stroke-linecap: square"/>
   </g>
   <g id="patch_36">
    <path d="M 252.392727 180.313043 
L 414.72 180.313043 
" style="fill: none; stroke: #000000; stroke-width: 0.8; stroke-linejoin: miter; stroke-linecap: square"/>
   </g>
   <g id="legend_6">
    <g id="patch_37">
     <path d="M 337.612188 203.269293 
L 407.72 203.269293 
Q 409.72 203.269293 409.72 201.269293 
L 409.72 187.313043 
Q 409.72 185.313043 407.72 185.313043 
L 337.612188 185.313043 
Q 335.612188 185.313043 335.612188 187.313043 
L 335.612188 201.269293 
Q 335.612188 203.269293 337.612188 203.269293 
z
" style="fill: #ffffff; opacity: 0.8; stroke: #cccccc; stroke-linejoin: miter"/>
    </g>
    <g id="line2d_42">
     <path d="M 339.612188 193.411481 
L 349.612188 193.411481 
L 359.612188 193.411481 
" style="fill: none; stroke: #1f77b4; stroke-width: 1.5; stroke-linecap: square"/>
    </g>
    <g id="text_48">
     <!-- Acc_y g -->
     <g transform="translate(367.612188 196.911481)scale(0.1 -0.1)">
      <use xlink:href="#DejaVuSans-41"/>
      <use xlink:href="#DejaVuSans-63" x="66.658203"/>
      <use xlink:href="#DejaVuSans-63" x="121.638672"/>
      <use xlink:href="#DejaVuSans-5f" x="176.619141"/>
      <use xlink:href="#DejaVuSans-79" x="226.619141"/>
      <use xlink:href="#DejaVuSans-20" x="285.798828"/>
      <use xlink:href="#DejaVuSans-67" x="317.585938"/>
     </g>
    </g>
   </g>
  </g>
  <g id="axes_7">
   <g id="patch_38">
    <path d="M 57.6 307.584 
L 219.927273 307.584 
L 219.927273 249.733565 
L 57.6 249.733565 
z
" style="fill: #ffffff"/>
   </g>
   <g id="matplotlib.axis_13">
    <g id="xtick_19">
     <g id="line2d_43">
      <g>
       <use xlink:href="#m97e6810da5" x="61.10425" y="307.584" style="stroke: #000000; stroke-width: 0.8"/>
      </g>
     </g>
     <g id="text_49">
      <!-- 0 -->
      <g transform="translate(57.923 322.182437)scale(0.1 -0.1)">
       <use xlink:href="#DejaVuSans-30"/>
      </g>
     </g>
    </g>
    <g id="xtick_20">
     <g id="line2d_44">
      <g>
       <use xlink:href="#m97e6810da5" x="125.219065" y="307.584" style="stroke: #000000; stroke-width: 0.8"/>
      </g>
     </g>
     <g id="text_50">
      <!-- 1000 -->
      <g transform="translate(112.494065 322.182437)scale(0.1 -0.1)">
       <use xlink:href="#DejaVuSans-31"/>
       <use xlink:href="#DejaVuSans-30" x="63.623047"/>
       <use xlink:href="#DejaVuSans-30" x="127.246094"/>
       <use xlink:href="#DejaVuSans-30" x="190.869141"/>
      </g>
     </g>
    </g>
    <g id="xtick_21">
     <g id="line2d_45">
      <g>
       <use xlink:href="#m97e6810da5" x="189.33388" y="307.584" style="stroke: #000000; stroke-width: 0.8"/>
      </g>
     </g>
     <g id="text_51">
      <!-- 2000 -->
      <g transform="translate(176.60888 322.182437)scale(0.1 -0.1)">
       <use xlink:href="#DejaVuSans-32"/>
       <use xlink:href="#DejaVuSans-30" x="63.623047"/>
       <use xlink:href="#DejaVuSans-30" x="127.246094"/>
       <use xlink:href="#DejaVuSans-30" x="190.869141"/>
      </g>
     </g>
    </g>
    <g id="text_52">
     <!-- time ms -->
     <g transform="translate(118.40348 335.860562)scale(0.1 -0.1)">
      <use xlink:href="#DejaVuSans-74"/>
      <use xlink:href="#DejaVuSans-69" x="39.208984"/>
      <use xlink:href="#DejaVuSans-6d" x="66.992188"/>
      <use xlink:href="#DejaVuSans-65" x="164.404297"/>
      <use xlink:href="#DejaVuSans-20" x="225.927734"/>
      <use xlink:href="#DejaVuSans-6d" x="257.714844"/>
      <use xlink:href="#DejaVuSans-73" x="355.126953"/>
     </g>
    </g>
   </g>
   <g id="matplotlib.axis_14">
    <g id="ytick_13">
     <g id="line2d_46">
      <g>
       <use xlink:href="#m6fe1a6c6f4" x="57.6" y="300.599408" style="stroke: #000000; stroke-width: 0.8"/>
      </g>
     </g>
     <g id="text_53">
      <!-- −4.6 -->
      <g transform="translate(26.317187 304.398627)scale(0.1 -0.1)">
       <use xlink:href="#DejaVuSans-2212"/>
       <use xlink:href="#DejaVuSans-34" x="83.789062"/>
       <use xlink:href="#DejaVuSans-2e" x="147.412109"/>
       <use xlink:href="#DejaVuSans-36" x="179.199219"/>
      </g>
     </g>
    </g>
    <g id="ytick_14">
     <g id="line2d_47">
      <g>
       <use xlink:href="#m6fe1a6c6f4" x="57.6" y="269.362036" style="stroke: #000000; stroke-width: 0.8"/>
      </g>
     </g>
     <g id="text_54">
      <!-- −4.4 -->
      <g transform="translate(26.317187 273.161255)scale(0.1 -0.1)">
       <use xlink:href="#DejaVuSans-2212"/>
       <use xlink:href="#DejaVuSans-34" x="83.789062"/>
       <use xlink:href="#DejaVuSans-2e" x="147.412109"/>
       <use xlink:href="#DejaVuSans-34" x="179.199219"/>
      </g>
     </g>
    </g>
    <g id="text_55">
     <!-- Roll -->
     <g transform="translate(20.2375 287.745501)rotate(-90)scale(0.1 -0.1)">
      <use xlink:href="#DejaVuSans-52"/>
      <use xlink:href="#DejaVuSans-6f" x="64.982422"/>
      <use xlink:href="#DejaVuSans-6c" x="126.164062"/>
      <use xlink:href="#DejaVuSans-6c" x="153.947266"/>
     </g>
    </g>
   </g>
   <g id="line2d_48">
    <path d="M 64.978512 304.954435 
L 67.527055 252.36313 
L 70.1425 252.36313 
L 71.492479 252.36313 
L 72.775701 252.36313 
L 74.847389 252.36313 
L 76.172612 252.36313 
L 78.144695 252.36313 
L 79.446693 252.36313 
L 81.731003 252.36313 
L 83.029892 252.36313 
L 84.705009 252.36313 
L 86.423871 304.954435 
L 87.736576 304.954435 
L 90.281361 299.402179 
L 91.563394 299.402179 
L 92.774144 299.402179 
L 94.221699 299.402179 
L 95.777457 299.402179 
L 96.99769 299.402179 
L 98.159241 299.402179 
L 99.907871 299.402179 
L 101.724735 299.402179 
L 103.240053 299.402179 
L 104.639475 299.402179 
L 106.432401 299.402179 
L 107.842459 299.402179 
L 109.259806 299.402179 
L 111.014168 299.402179 
L 112.236602 299.402179 
L 113.421435 299.402179 
L 115.089159 299.402179 
L 116.632632 299.402179 
L 117.838392 299.402179 
L 119.3485 299.402179 
L 120.515012 299.402179 
L 123.165714 299.402179 
L 125.001691 299.402179 
L 126.396342 299.402179 
L 127.517081 299.402179 
L 129.047005 299.402179 
L 130.767282 299.402179 
L 131.89644 299.402179 
L 133.001433 299.402179 
L 134.776521 299.402179 
L 136.539786 299.402179 
L 137.806973 299.402179 
L 139.424706 299.402179 
L 140.848284 299.402179 
L 142.050878 299.402179 
L 143.45499 299.402179 
L 144.656614 299.402179 
L 146.09446 299.402179 
L 147.574889 299.402179 
L 149.362636 299.402179 
L 150.382713 299.402179 
L 151.837887 299.402179 
L 153.478809 299.402179 
L 155.105221 299.402179 
L 156.877341 299.402179 
L 158.588899 299.402179 
L 159.887026 299.402179 
L 161.498766 299.402179 
L 163.166206 299.402179 
L 164.455603 299.402179 
L 166.110132 299.402179 
L 167.550598 299.402179 
L 168.862672 299.402179 
L 170.095942 299.402179 
L 171.527811 299.402179 
L 173.054474 299.402179 
L 174.69143 299.402179 
L 176.165152 299.402179 
L 177.436824 299.402179 
L 178.566803 299.402179 
L 179.66117 299.402179 
L 180.942022 299.402179 
L 182.40282 299.402179 
L 183.692345 299.402179 
L 185.862166 299.402179 
L 187.395796 299.402179 
L 188.480255 299.402179 
L 189.645318 299.402179 
L 191.108388 299.402179 
L 192.203929 299.402179 
L 193.871597 299.402179 
L 195.450592 299.402179 
L 196.576278 299.402179 
L 197.835826 299.402179 
L 199.198479 299.402179 
L 200.40125 299.402179 
L 201.749714 299.402179 
L 202.90679 299.402179 
L 204.456016 299.402179 
L 206.155259 299.402179 
L 207.350282 299.402179 
L 208.448111 299.402179 
L 209.90756 299.402179 
L 211.046423 299.402179 
L 212.54876 299.402179 
" clip-path="url(#p19244864b0)" style="fill: none; stroke: #1f77b4; stroke-width: 1.5; stroke-linecap: square"/>
   </g>
   <g id="patch_39">
    <path d="M 57.6 307.584 
L 57.6 249.733565 
" style="fill: none; stroke: #000000; stroke-width: 0.8; stroke-linejoin: miter; stroke-linecap: square"/>
   </g>
   <g id="patch_40">
    <path d="M 219.927273 307.584 
L 219.927273 249.733565 
" style="fill: none; stroke: #000000; stroke-width: 0.8; stroke-linejoin: miter; stroke-linecap: square"/>
   </g>
   <g id="patch_41">
    <path d="M 57.6 307.584 
L 219.927273 307.584 
" style="fill: none; stroke: #000000; stroke-width: 0.8; stroke-linejoin: miter; stroke-linecap: square"/>
   </g>
   <g id="patch_42">
    <path d="M 57.6 249.733565 
L 219.927273 249.733565 
" style="fill: none; stroke: #000000; stroke-width: 0.8; stroke-linejoin: miter; stroke-linecap: square"/>
   </g>
   <g id="legend_7">
    <g id="patch_43">
     <path d="M 140.72571 272.41169 
L 212.927273 272.41169 
Q 214.927273 272.41169 214.927273 270.41169 
L 214.927273 256.733565 
Q 214.927273 254.733565 212.927273 254.733565 
L 140.72571 254.733565 
Q 138.72571 254.733565 138.72571 256.733565 
L 138.72571 270.41169 
Q 138.72571 272.41169 140.72571 272.41169 
z
" style="fill: #ffffff; opacity: 0.8; stroke: #cccccc; stroke-linejoin: miter"/>
    </g>
    <g id="line2d_49">
     <path d="M 142.72571 262.832003 
L 152.72571 262.832003 
L 162.72571 262.832003 
" style="fill: none; stroke: #1f77b4; stroke-width: 1.5; stroke-linecap: square"/>
    </g>
    <g id="text_56">
     <!-- Roll deg -->
     <g transform="translate(170.72571 266.332003)scale(0.1 -0.1)">
      <use xlink:href="#DejaVuSans-52"/>
      <use xlink:href="#DejaVuSans-6f" x="64.982422"/>
      <use xlink:href="#DejaVuSans-6c" x="126.164062"/>
      <use xlink:href="#DejaVuSans-6c" x="153.947266"/>
      <use xlink:href="#DejaVuSans-20" x="181.730469"/>
      <use xlink:href="#DejaVuSans-64" x="213.517578"/>
      <use xlink:href="#DejaVuSans-65" x="276.994141"/>
      <use xlink:href="#DejaVuSans-67" x="338.517578"/>
     </g>
    </g>
   </g>
  </g>
  <g id="axes_8">
   <g id="patch_44">
    <path d="M 252.392727 307.584 
L 414.72 307.584 
L 414.72 249.733565 
L 252.392727 249.733565 
z
" style="fill: #ffffff"/>
   </g>
   <g id="matplotlib.axis_15">
    <g id="xtick_22">
     <g id="line2d_50">
      <g>
       <use xlink:href="#m97e6810da5" x="255.896978" y="307.584" style="stroke: #000000; stroke-width: 0.8"/>
      </g>
     </g>
     <g id="text_57">
      <!-- 0 -->
      <g transform="translate(252.715728 322.182437)scale(0.1 -0.1)">
       <use xlink:href="#DejaVuSans-30"/>
      </g>
     </g>
    </g>
    <g id="xtick_23">
     <g id="line2d_51">
      <g>
       <use xlink:href="#m97e6810da5" x="320.011793" y="307.584" style="stroke: #000000; stroke-width: 0.8"/>
      </g>
     </g>
     <g id="text_58">
      <!-- 1000 -->
      <g transform="translate(307.286793 322.182437)scale(0.1 -0.1)">
       <use xlink:href="#DejaVuSans-31"/>
       <use xlink:href="#DejaVuSans-30" x="63.623047"/>
       <use xlink:href="#DejaVuSans-30" x="127.246094"/>
       <use xlink:href="#DejaVuSans-30" x="190.869141"/>
      </g>
     </g>
    </g>
    <g id="xtick_24">
     <g id="line2d_52">
      <g>
       <use xlink:href="#m97e6810da5" x="384.126608" y="307.584" style="stroke: #000000; stroke-width: 0.8"/>
      </g>
     </g>
     <g id="text_59">
      <!-- 2000 -->
      <g transform="translate(371.401608 322.182437)scale(0.1 -0.1)">
       <use xlink:href="#DejaVuSans-32"/>
       <use xlink:href="#DejaVuSans-30" x="63.623047"/>
       <use xlink:href="#DejaVuSans-30" x="127.246094"/>
       <use xlink:href="#DejaVuSans-30" x="190.869141"/>
      </g>
     </g>
    </g>
    <g id="text_60">
     <!-- time ms -->
     <g transform="translate(313.196207 335.860562)scale(0.1 -0.1)">
      <use xlink:href="#DejaVuSans-74"/>
      <use xlink:href="#DejaVuSans-69" x="39.208984"/>
      <use xlink:href="#DejaVuSans-6d" x="66.992188"/>
      <use xlink:href="#DejaVuSans-65" x="164.404297"/>
      <use xlink:href="#DejaVuSans-20" x="225.927734"/>
      <use xlink:href="#DejaVuSans-6d" x="257.714844"/>
      <use xlink:href="#DejaVuSans-73" x="355.126953"/>
     </g>
    </g>
   </g>
   <g id="matplotlib.axis_16">
    <g id="ytick_15">
     <g id="line2d_53">
      <g>
       <use xlink:href="#m6fe1a6c6f4" x="252.392727" y="294.924134" style="stroke: #000000; stroke-width: 0.8"/>
      </g>
     </g>
     <g id="text_61">
      <!-- −1.00 -->
      <g transform="translate(214.747415 298.723353)scale(0.1 -0.1)">
       <use xlink:href="#DejaVuSans-2212"/>
       <use xlink:href="#DejaVuSans-31" x="83.789062"/>
       <use xlink:href="#DejaVuSans-2e" x="147.412109"/>
       <use xlink:href="#DejaVuSans-30" x="179.199219"/>
       <use xlink:href="#DejaVuSans-30" x="242.822266"/>
      </g>
     </g>
    </g>
    <g id="ytick_16">
     <g id="line2d_54">
      <g>
       <use xlink:href="#m6fe1a6c6f4" x="252.392727" y="267.815215" style="stroke: #000000; stroke-width: 0.8"/>
      </g>
     </g>
     <g id="text_62">
      <!-- −0.95 -->
      <g transform="translate(214.747415 271.614433)scale(0.1 -0.1)">
       <use xlink:href="#DejaVuSans-2212"/>
       <use xlink:href="#DejaVuSans-30" x="83.789062"/>
       <use xlink:href="#DejaVuSans-2e" x="147.412109"/>
       <use xlink:href="#DejaVuSans-39" x="179.199219"/>
       <use xlink:href="#DejaVuSans-35" x="242.822266"/>
      </g>
     </g>
    </g>
    <g id="text_63">
     <!-- Acc_z -->
     <g transform="translate(208.389602 292.614251)rotate(-90)scale(0.1 -0.1)">
      <defs>
       <path id="DejaVuSans-7a" d="M 353 3500 
L 3084 3500 
L 3084 2975 
L 922 459 
L 3084 459 
L 3084 0 
L 275 0 
L 275 525 
L 2438 3041 
L 353 3041 
L 353 3500 
z
" transform="scale(0.015625)"/>
      </defs>
      <use xlink:href="#DejaVuSans-41"/>
      <use xlink:href="#DejaVuSans-63" x="66.658203"/>
      <use xlink:href="#DejaVuSans-63" x="121.638672"/>
      <use xlink:href="#DejaVuSans-5f" x="176.619141"/>
      <use xlink:href="#DejaVuSans-7a" x="226.619141"/>
     </g>
    </g>
   </g>
   <g id="line2d_55">
    <path d="M 259.77124 278.658783 
L 262.319782 278.658783 
L 264.935227 278.658783 
L 266.285206 278.658783 
L 267.568429 278.658783 
L 269.640116 278.658783 
L 270.965339 278.658783 
L 272.937422 278.658783 
L 274.239421 278.658783 
L 276.523731 278.658783 
L 277.822619 278.658783 
L 279.497736 278.658783 
L 281.216598 278.658783 
L 282.529303 278.658783 
L 285.074088 278.658783 
L 286.356121 278.658783 
L 287.566872 278.658783 
L 289.014426 278.658783 
L 290.570185 278.658783 
L 291.790417 278.658783 
L 292.951968 278.658783 
L 294.700598 278.658783 
L 296.517462 278.658783 
L 298.03278 278.658783 
L 299.432203 278.658783 
L 301.225128 278.658783 
L 302.635186 278.658783 
L 304.052533 278.658783 
L 305.806895 278.658783 
L 307.029329 278.658783 
L 308.214162 278.658783 
L 309.881886 278.658783 
L 311.42536 278.658783 
L 312.631119 278.658783 
L 314.141227 278.658783 
L 315.307739 278.658783 
L 317.958441 278.658783 
L 319.794418 278.658783 
L 321.18907 278.658783 
L 322.309809 278.658783 
L 323.839732 278.658783 
L 325.560009 278.658783 
L 326.689167 278.658783 
L 327.79416 278.658783 
L 329.569248 278.658783 
L 331.332513 278.658783 
L 332.5997 278.658783 
L 334.217434 278.658783 
L 335.641011 278.658783 
L 336.843605 278.658783 
L 338.247717 278.658783 
L 339.449341 278.658783 
L 340.887187 278.658783 
L 342.367616 278.658783 
L 344.155363 278.658783 
L 345.17544 278.658783 
L 346.630615 278.658783 
L 348.271536 278.658783 
L 349.897949 278.658783 
L 351.670068 278.658783 
L 353.381627 278.658783 
L 354.679753 278.658783 
L 356.291493 278.658783 
L 357.958933 278.658783 
L 359.248331 278.658783 
L 360.90286 278.658783 
L 362.343326 278.658783 
L 363.655399 278.658783 
L 364.88867 278.658783 
L 366.320538 278.658783 
L 367.847201 278.658783 
L 369.484157 278.658783 
L 370.957879 278.658783 
L 372.229552 278.658783 
L 373.35953 278.658783 
L 374.453897 278.658783 
L 375.734749 278.658783 
L 377.195547 278.658783 
L 378.485072 278.658783 
L 380.654894 278.658783 
L 382.188523 278.658783 
L 383.272982 278.658783 
L 384.438046 278.658783 
L 385.901115 278.658783 
L 386.996656 278.658783 
L 388.664324 278.658783 
L 390.24332 278.658783 
L 391.369005 278.658783 
L 392.628554 278.658783 
L 393.991206 278.658783 
L 395.193977 278.658783 
L 396.542442 278.658783 
L 397.699517 278.658783 
L 399.248743 278.658783 
L 400.947986 278.658783 
L 402.14301 278.658783 
L 403.240838 278.658783 
L 404.700287 278.658783 
L 405.83915 278.658783 
L 407.341488 278.658783 
" clip-path="url(#p6a79cdf631)" style="fill: none; stroke: #1f77b4; stroke-width: 1.5; stroke-linecap: square"/>
   </g>
   <g id="patch_45">
    <path d="M 252.392727 307.584 
L 252.392727 249.733565 
" style="fill: none; stroke: #000000; stroke-width: 0.8; stroke-linejoin: miter; stroke-linecap: square"/>
   </g>
   <g id="patch_46">
    <path d="M 414.72 307.584 
L 414.72 249.733565 
" style="fill: none; stroke: #000000; stroke-width: 0.8; stroke-linejoin: miter; stroke-linecap: square"/>
   </g>
   <g id="patch_47">
    <path d="M 252.392727 307.584 
L 414.72 307.584 
" style="fill: none; stroke: #000000; stroke-width: 0.8; stroke-linejoin: miter; stroke-linecap: square"/>
   </g>
   <g id="patch_48">
    <path d="M 252.392727 249.733565 
L 414.72 249.733565 
" style="fill: none; stroke: #000000; stroke-width: 0.8; stroke-linejoin: miter; stroke-linecap: square"/>
   </g>
   <g id="legend_8">
    <g id="patch_49">
     <path d="M 338.2825 272.689815 
L 407.72 272.689815 
Q 409.72 272.689815 409.72 270.689815 
L 409.72 256.733565 
Q 409.72 254.733565 407.72 254.733565 
L 338.2825 254.733565 
Q 336.2825 254.733565 336.2825 256.733565 
L 336.2825 270.689815 
Q 336.2825 272.689815 338.2825 272.689815 
z
" style="fill: #ffffff; opacity: 0.8; stroke: #cccccc; stroke-linejoin: miter"/>
    </g>
    <g id="line2d_56">
     <path d="M 340.2825 262.832003 
L 350.2825 262.832003 
L 360.2825 262.832003 
" style="fill: none; stroke: #1f77b4; stroke-width: 1.5; stroke-linecap: square"/>
    </g>
    <g id="text_64">
     <!-- Acc_z g -->
     <g transform="translate(368.2825 266.332003)scale(0.1 -0.1)">
      <use xlink:href="#DejaVuSans-41"/>
      <use xlink:href="#DejaVuSans-63" x="66.658203"/>
      <use xlink:href="#DejaVuSans-63" x="121.638672"/>
      <use xlink:href="#DejaVuSans-5f" x="176.619141"/>
      <use xlink:href="#DejaVuSans-7a" x="226.619141"/>
      <use xlink:href="#DejaVuSans-20" x="279.109375"/>
      <use xlink:href="#DejaVuSans-67" x="310.896484"/>
     </g>
    </g>
   </g>
  </g>
 </g>
 <defs>
  <clipPath id="p85c1c9b419">
   <rect x="57.6" y="41.472" width="162.327273" height="57.850435"/>
  </clipPath>
  <clipPath id="p40a1dd1b91">
   <rect x="252.392727" y="41.472" width="162.327273" height="57.850435"/>
  </clipPath>
  <clipPath id="pd9b9b52a94">
   <rect x="57.6" y="110.892522" width="162.327273" height="57.850435"/>
  </clipPath>
  <clipPath id="pc0537493fd">
   <rect x="252.392727" y="110.892522" width="162.327273" height="57.850435"/>
  </clipPath>
  <clipPath id="pac0b492486">
   <rect x="57.6" y="180.313043" width="162.327273" height="57.850435"/>
  </clipPath>
  <clipPath id="p4dc93c371d">
   <rect x="252.392727" y="180.313043" width="162.327273" height="57.850435"/>
  </clipPath>
  <clipPath id="p19244864b0">
   <rect x="57.6" y="249.733565" width="162.327273" height="57.850435"/>
  </clipPath>
  <clipPath id="p6a79cdf631">
   <rect x="252.392727" y="249.733565" width="162.327273" height="57.850435"/>
  </clipPath>
 </defs>
</svg>
