M48
METRIC,LZ,000.000
;FILE_FORMAT=3:3
;TYPE=PLATED
;Layer: PTH_Through
;EasyEDA v6.5.23, 2023-06-18 13:26:56
;e563b856323e489fb497cbcb29ae2dd2,10
;Gerber Generator version 0.2
;Holesize 1 = 0.600 mm
T01C0.600
;Holesize 2 = 0.798 mm
T02C0.798
;Holesize 3 = 0.800 mm
T03C0.800
;Holesize 4 = 0.915 mm
T04C0.915
;Holesize 5 = 1.000 mm
T05C1.000
;Holesize 6 = 1.101 mm
T06C1.101
;Holesize 7 = 1.200 mm
T07C1.200
%
G05
G90
T01
X032065Y012024
X031315Y010524
X030565Y012024
X030565Y009024
X029815Y010524
X029065Y009024
X029065Y012024
X028315Y010524
X027565Y012024
X027565Y009024
X026815Y010524
X026065Y009024
X026065Y012024
X025315Y010524
X024565Y012024
X024565Y009024
X023815Y010524
X023065Y009024
X023065Y012024
T02
X017780Y036068
X017780Y038125
X017780Y040107
X017780Y042113
T03
X042799Y043287
X042799Y053487
X039390Y050673
X029190Y050673
T04
X053213Y030607
X053213Y033147
X053213Y035687
X053213Y038227
T05
X035165Y003424G85X035165Y004024
X019445Y003424G85X019445Y004024
X021336Y054221G85X021336Y054221
X023876Y054221G85X023876Y054221
X026416Y054221G85X026416Y054221
X028956Y054221G85X028956Y054221
T06
X034163Y021590
X031623Y021590
X029083Y021590
X026543Y021590
T07
X003429Y003683
X003429Y006223
X003429Y008763
X003429Y011303
X003429Y013843
X003429Y016383
X003429Y018923
X003429Y021463
M30
