G04 Layer: TopLayer*
G04 EasyEDA v6.5.23, 2023-06-18 13:26:56*
G04 e563b856323e489fb497cbcb29ae2dd2,10*
G04 Gerber Generator version 0.2*
G04 Scale: 100 percent, Rotated: No, Reflected: No *
G04 Dimensions in millimeters *
G04 leading zeros omitted , absolute positions ,4 integer and 5 decimal *
%FSLAX45Y45*%
%MOMM*%

%ADD10R,1.8000X1.8000*%
%ADD11C,1.8000*%
%ADD12C,1.5240*%
%ADD13R,1.5240X1.5240*%
%ADD14C,1.0000*%
%ADD15O,1.499997X2.1999956000000003*%
%ADD16C,1.4000*%
%ADD17R,1.5080X1.5080*%
%ADD18C,1.5080*%

%LPD*%
D10*
G01*
X342900Y368300D03*
D11*
G01*
X342900Y622300D03*
G01*
X342900Y876300D03*
G01*
X342900Y1130300D03*
G01*
X342900Y1384300D03*
G01*
X342900Y1638300D03*
G01*
X342900Y1892300D03*
G01*
X342900Y2146300D03*
D10*
G01*
X3416300Y2159000D03*
D11*
G01*
X3162300Y2159000D03*
G01*
X2908300Y2159000D03*
G01*
X2654300Y2159000D03*
D12*
G01*
X1778000Y3606800D03*
G01*
X1778000Y3812539D03*
G01*
X1778000Y4010660D03*
D13*
G01*
X1778000Y4211320D03*
D14*
G01*
X3206495Y1202397D03*
G01*
X3131489Y1052385D03*
G01*
X3056509Y1202397D03*
G01*
X3056509Y902398D03*
G01*
X2981502Y1052385D03*
G01*
X2906496Y902398D03*
G01*
X2906496Y1202397D03*
G01*
X2831490Y1052385D03*
G01*
X2756509Y1202397D03*
G01*
X2756509Y902398D03*
G01*
X2681503Y1052385D03*
G01*
X2606497Y902398D03*
G01*
X2606497Y1202397D03*
G01*
X2531490Y1052385D03*
G01*
X2456484Y1202397D03*
G01*
X2456484Y902398D03*
G01*
X2381504Y1052385D03*
G01*
X2306497Y902398D03*
G01*
X2306497Y1202397D03*
D15*
G01*
X3516502Y372402D03*
G01*
X1944497Y372402D03*
D16*
G01*
X4279900Y4328693D03*
G01*
X4279900Y5348706D03*
G01*
X3939006Y5067300D03*
G01*
X2918993Y5067300D03*
D17*
G01*
X2133600Y5422087D03*
D18*
G01*
X2387600Y5422087D03*
G01*
X2641600Y5422087D03*
G01*
X2895600Y5422087D03*
D13*
G01*
X5321300Y3060700D03*
D12*
G01*
X5321300Y3314700D03*
G01*
X5321300Y3568700D03*
G01*
X5321300Y3822700D03*
M02*
