G04 Layer: BottomLayer*
G04 EasyEDA v6.5.23, 2023-06-18 13:26:56*
G04 e563b856323e489fb497cbcb29ae2dd2,10*
G04 Gerber Generator version 0.2*
G04 Scale: 100 percent, Rotated: No, Reflected: No *
G04 Dimensions in millimeters *
G04 leading zeros omitted , absolute positions ,4 integer and 5 decimal *
%FSLAX45Y45*%
%MOMM*%

%ADD10C,0.3000*%
%ADD11C,0.2540*%
%ADD12R,1.8000X1.8000*%
%ADD13C,1.8000*%
%ADD14C,1.5240*%
%ADD15R,1.5240X1.5240*%
%ADD16C,1.0000*%
%ADD17O,1.499997X2.1999956000000003*%
%ADD18C,1.4000*%
%ADD19R,1.5080X1.5080*%
%ADD20C,1.5080*%

%LPD*%
D10*
X2456434Y1202436D02*
G01*
X2456434Y1417065D01*
X2286000Y1587500D01*
X939800Y1587500D01*
X635000Y1892300D01*
X342900Y1892300D01*
X2306574Y902462D02*
G01*
X812037Y902462D01*
X584200Y1130300D01*
X342900Y1130300D01*
X2306574Y1202436D02*
G01*
X2306497Y1202397D01*
X1041400Y1206500D01*
X609600Y1638300D01*
X342900Y1638300D01*
X2381504Y1052321D02*
G01*
X928878Y1052321D01*
X596900Y1384300D01*
X342900Y1384300D01*
X2456434Y902462D02*
G01*
X2315972Y762000D01*
X520700Y762000D01*
X520700Y876300D01*
X342900Y876300D01*
X2606547Y902462D02*
G01*
X2606547Y841247D01*
X2387600Y622300D01*
X342900Y622300D01*
X1944497Y372402D02*
G01*
X1940394Y368300D01*
X342900Y368300D01*
X3416300Y2159000D02*
G01*
X5499100Y2159000D01*
X5600700Y2260600D01*
X5600700Y3213100D01*
X5499100Y3314700D01*
X5321300Y3314700D01*
X3131565Y1052321D02*
G01*
X4722622Y1052321D01*
X5816600Y2146300D01*
X5816600Y3289300D01*
X5524500Y3581400D01*
X5334000Y3581400D01*
X5321300Y3568700D01*
X3056381Y902462D02*
G01*
X4852161Y902462D01*
X6045200Y2095500D01*
X6045200Y3479800D01*
X5715000Y3810000D01*
X5334000Y3810000D01*
X5321300Y3822700D01*
X2906522Y902462D02*
G01*
X2906522Y789178D01*
X3060700Y635000D01*
X4864100Y635000D01*
X6261100Y2032000D01*
X6261100Y4292600D01*
X5778500Y4775200D01*
X3784600Y4775200D01*
X3530600Y5029200D01*
X3530600Y5511800D01*
X3263900Y5778500D01*
X2362200Y5778500D01*
X2133600Y5549900D01*
X2133600Y5422137D01*
X3416300Y2159000D02*
G01*
X3416300Y2654300D01*
X3276600Y2794000D01*
X1562100Y2794000D01*
X1181100Y3175000D01*
X1181100Y4000500D01*
X1391920Y4211320D01*
X1778000Y4211320D01*
X2387600Y5422137D02*
G01*
X2387600Y5003800D01*
X2184400Y4800600D01*
X1282700Y4800600D01*
X952500Y4470400D01*
X952500Y3035300D01*
X1460500Y2527300D01*
X2578100Y2527300D01*
X2781300Y2324100D01*
X2781300Y1227073D01*
X2756408Y1202436D01*
X2133600Y5422137D02*
G01*
X2133600Y5257800D01*
X1943100Y5067300D01*
X1117600Y5067300D01*
X698500Y4648200D01*
X698500Y2857500D01*
X1397000Y2159000D01*
X2654300Y2159000D01*
X3939031Y5067300D02*
G01*
X3939031Y5751068D01*
X3632200Y6057900D01*
X1701800Y6057900D01*
X457200Y4813300D01*
X457200Y2628900D01*
X1270000Y1816100D01*
X2324100Y1816100D01*
X2603500Y1536700D01*
X2603500Y1205484D01*
X2606547Y1202436D01*
X1778000Y4010660D02*
G01*
X1780539Y4013200D01*
X4737100Y4013200D01*
X4900965Y4177065D01*
X4900965Y4775200D01*
X2895600Y5422137D02*
G01*
X3036061Y5422137D01*
X3213100Y5245100D01*
X3213100Y4328668D01*
D11*
X3939031Y5067300D02*
G01*
X3939031Y5348731D01*
X4279900Y5348731D01*
D10*
X3416300Y2159000D02*
G01*
X3276600Y2298700D01*
X3035300Y2298700D01*
X3035300Y1223606D01*
X3056509Y1202397D01*
X2918993Y5067300D02*
G01*
X2755900Y5067300D01*
X2641600Y5181600D01*
X2641600Y5422087D01*
D11*
X1778000Y4211320D02*
G01*
X1778000Y4533900D01*
X2908300Y4533900D01*
X3113506Y4328693D01*
X4279900Y4328693D01*
D10*
X1778000Y4010660D02*
G01*
X1559560Y4010660D01*
X1409700Y3860800D01*
X1409700Y3289300D01*
X1638300Y3060700D01*
X5321300Y3060700D01*
X1944497Y372402D02*
G01*
X3516502Y372402D01*
X3162300Y2159000D02*
G01*
X3162300Y1511300D01*
X3206495Y1467104D01*
X3206495Y1202436D01*
X2908300Y2159000D02*
G01*
X2906522Y1202436D01*
X1778000Y3606800D02*
G01*
X5283200Y3606800D01*
X5321300Y3568700D01*
X1778000Y3812539D02*
G01*
X5311140Y3812539D01*
X5321300Y3822700D01*
D12*
G01*
X342900Y368300D03*
D13*
G01*
X342900Y622300D03*
G01*
X342900Y876300D03*
G01*
X342900Y1130300D03*
G01*
X342900Y1384300D03*
G01*
X342900Y1638300D03*
G01*
X342900Y1892300D03*
G01*
X342900Y2146300D03*
D12*
G01*
X3416300Y2159000D03*
D13*
G01*
X3162300Y2159000D03*
G01*
X2908300Y2159000D03*
G01*
X2654300Y2159000D03*
D14*
G01*
X1778000Y3606800D03*
G01*
X1778000Y3812539D03*
G01*
X1778000Y4010660D03*
D15*
G01*
X1778000Y4211320D03*
D16*
G01*
X3206495Y1202397D03*
G01*
X3131489Y1052385D03*
G01*
X3056509Y1202397D03*
G01*
X3056509Y902398D03*
G01*
X2981502Y1052385D03*
G01*
X2906496Y902398D03*
G01*
X2906496Y1202397D03*
G01*
X2831490Y1052385D03*
G01*
X2756509Y1202397D03*
G01*
X2756509Y902398D03*
G01*
X2681503Y1052385D03*
G01*
X2606497Y902398D03*
G01*
X2606497Y1202397D03*
G01*
X2531490Y1052385D03*
G01*
X2456484Y1202397D03*
G01*
X2456484Y902398D03*
G01*
X2381504Y1052385D03*
G01*
X2306497Y902398D03*
G01*
X2306497Y1202397D03*
D17*
G01*
X3516502Y372402D03*
G01*
X1944497Y372402D03*
D18*
G01*
X4279900Y4328693D03*
G01*
X4279900Y5348706D03*
G01*
X3939006Y5067300D03*
G01*
X2918993Y5067300D03*
D19*
G01*
X2133600Y5422087D03*
D20*
G01*
X2387600Y5422087D03*
G01*
X2641600Y5422087D03*
G01*
X2895600Y5422087D03*
D15*
G01*
X5321300Y3060700D03*
D14*
G01*
X5321300Y3314700D03*
G01*
X5321300Y3568700D03*
G01*
X5321300Y3822700D03*
M02*
