M48
METRIC,LZ,000.000
;FILE_FORMAT=3:3
;TYPE=PLATED
;Layer: PTH_Through
;EasyEDA v6.5.23, 2023-06-03 17:25:55
;e563b856323e489fb497cbcb29ae2dd2,10
;Gerber Generator version 0.2
;Holesize 1 = 0.635 mm
T01C0.635
;Holesize 2 = 0.800 mm
T02C0.800
;Holesize 3 = 0.915 mm
T03C0.915
;Holesize 4 = 1.101 mm
T04C1.101
%
G05
G90
T01
X010417Y044323G85X010411Y044323
X018027Y044323G85X018022Y044323
T02
X019812Y096032
X019812Y098532
T03
X026797Y093726
X026797Y091186
X026797Y088646
X026797Y086106
X026797Y083566
X026797Y081026
X026797Y078486
X026797Y075946
X026797Y073406
X026797Y070866
X026797Y068326
X026797Y065786
X026797Y063246
X026797Y060706
X026797Y058166
X026797Y055626
X026797Y053086
X026797Y050546
X026797Y048006
X049657Y048006
X049657Y050546
X049657Y053086
X049657Y055626
X049657Y058166
X049657Y060706
X049657Y063246
X049657Y065786
X049657Y068326
X049657Y070866
X049657Y073406
X049657Y075946
X049657Y078486
X049657Y081026
X049657Y083566
X049657Y086106
X049657Y088646
X049657Y091186
X049657Y093726
X055691Y058990
X055691Y081850
X055691Y079310
X055691Y076770
X055691Y074230
X055691Y071690
X055691Y069150
X055691Y066610
X055691Y064070
X055691Y061530
T04
X019812Y070739
X019812Y073279
X019812Y075819
X019812Y078359
X072644Y041783
X072644Y044323
X072644Y046863
X072644Y049403
X072644Y051943
X072644Y054483
X072644Y057023
X072644Y059563
X072644Y062103
X072644Y064643
X072644Y067183
X072644Y069723
X072644Y072263
X057277Y091059
X057277Y093599
X019812Y050419
X019812Y052959
X019812Y055499
X019812Y058039
X019812Y060579
X019812Y063119
X019812Y065659
X019812Y082677
X019812Y085217
X019812Y087757
X019812Y090297
M30
