G04 Layer: BottomSolderMaskLayer*
G04 EasyEDA v6.5.23, 2023-06-03 17:25:55*
G04 e563b856323e489fb497cbcb29ae2dd2,10*
G04 Gerber Generator version 0.2*
G04 Scale: 100 percent, Rotated: No, Reflected: No *
G04 Dimensions in millimeters *
G04 leading zeros omitted , absolute positions ,4 integer and 5 decimal *
%FSLAX45Y45*%
%MOMM*%

%AMMACRO1*1,1,$1,$2,$3*1,1,$1,$4,$5*1,1,$1,0-$2,0-$3*1,1,$1,0-$4,0-$5*20,1,$1,$2,$3,$4,$5,0*20,1,$1,$4,$5,0-$2,0-$3,0*20,1,$1,0-$2,0-$3,0-$4,0-$5,0*20,1,$1,0-$4,0-$5,$2,$3,0*4,1,4,$2,$3,$4,$5,0-$2,0-$3,0-$4,0-$5,$2,$3,0*%
%ADD10MACRO1,0.1016X1.016X-1.016X-1.016X-1.016*%
%ADD11C,2.1336*%
%ADD12MACRO1,0.2032X1.143X0.635X1.143X-0.635*%
%ADD13O,2.3876X1.3716000000000002*%
%ADD14C,1.9000*%
%ADD15MACRO1,0.3X-0.8X-0.8X-0.8X0.8*%
%ADD16MACRO1,0.1016X-0.85X-0.85X-0.85X0.85*%
%ADD17C,1.8016*%
%ADD18C,1.6256*%
%ADD19R,1.7016X1.7016*%
%ADD20C,1.7016*%
%ADD21MACRO1,0.1016X-0.9X-0.9X-0.9X0.9*%
%ADD22C,1.9016*%

%LPD*%
D10*
G01*
X1041400Y4432300D03*
D11*
G01*
X1802409Y4432300D03*
D12*
G01*
X2679700Y9372600D03*
D13*
G01*
X2679700Y9118600D03*
G01*
X2679700Y8864600D03*
G01*
X2679700Y8610600D03*
G01*
X2679700Y8356600D03*
G01*
X2679700Y8102600D03*
G01*
X2679700Y7848600D03*
G01*
X2679700Y7594600D03*
G01*
X2679700Y7340600D03*
G01*
X2679700Y7086600D03*
G01*
X2679700Y6832600D03*
G01*
X2679700Y6578600D03*
G01*
X2679700Y6324600D03*
G01*
X2679700Y6070600D03*
G01*
X2679700Y5816600D03*
G01*
X2679700Y5562600D03*
G01*
X2679700Y5308600D03*
G01*
X2679700Y5054600D03*
G01*
X2679700Y4800600D03*
G01*
X4965700Y4800600D03*
G01*
X4965700Y5054600D03*
G01*
X4965700Y5308600D03*
G01*
X4965700Y5562600D03*
G01*
X4965700Y5816600D03*
G01*
X4965700Y6070600D03*
G01*
X4965700Y6324600D03*
G01*
X4965700Y6578600D03*
G01*
X4965700Y6832600D03*
G01*
X4965700Y7086600D03*
G01*
X4965700Y7340600D03*
G01*
X4965700Y7594600D03*
G01*
X4965700Y7848600D03*
G01*
X4965700Y8102600D03*
G01*
X4965700Y8356600D03*
G01*
X4965700Y8610600D03*
G01*
X4965700Y8864600D03*
G01*
X4965700Y9118600D03*
G01*
X4965700Y9372600D03*
D14*
G01*
X1981200Y9603206D03*
D15*
G01*
X1981199Y9853201D03*
D16*
G01*
X1981199Y7073900D03*
D17*
G01*
X1981200Y7327900D03*
G01*
X1981200Y7581900D03*
G01*
X1981200Y7835900D03*
D18*
G01*
X5569087Y5898982D03*
G01*
X5569087Y8184982D03*
G01*
X5569087Y7930982D03*
G01*
X5569087Y7676982D03*
G01*
X5569087Y7422982D03*
G01*
X5569087Y7168982D03*
G01*
X5569087Y6914982D03*
G01*
X5569087Y6660982D03*
G01*
X5569087Y6406982D03*
G01*
X5569087Y6152982D03*
D19*
G01*
X7264400Y4178300D03*
D20*
G01*
X7264400Y4432300D03*
G01*
X7264400Y4686300D03*
G01*
X7264400Y4940300D03*
G01*
X7264400Y5194300D03*
G01*
X7264400Y5448300D03*
G01*
X7264400Y5702300D03*
G01*
X7264400Y5956300D03*
G01*
X7264400Y6210300D03*
G01*
X7264400Y6464300D03*
G01*
X7264400Y6718300D03*
G01*
X7264400Y6972300D03*
G01*
X7264400Y7226300D03*
D21*
G01*
X5727700Y9105900D03*
D22*
G01*
X5727700Y9359900D03*
D16*
G01*
X1981199Y5041900D03*
D17*
G01*
X1981200Y5295900D03*
G01*
X1981200Y5549900D03*
G01*
X1981200Y5803900D03*
G01*
X1981200Y6057900D03*
G01*
X1981200Y6311900D03*
G01*
X1981200Y6565900D03*
D16*
G01*
X1981199Y8267700D03*
D17*
G01*
X1981200Y8521700D03*
G01*
X1981200Y8775700D03*
G01*
X1981200Y9029700D03*
M02*
