G04 Layer: BottomSilkscreenLayer*
G04 EasyEDA v6.5.23, 2023-06-03 17:25:55*
G04 e563b856323e489fb497cbcb29ae2dd2,10*
G04 Gerber Generator version 0.2*
G04 Scale: 100 percent, Rotated: No, Reflected: No *
G04 Dimensions in millimeters *
G04 leading zeros omitted , absolute positions ,4 integer and 5 decimal *
%FSLAX45Y45*%
%MOMM*%

%ADD10C,0.2032*%
%ADD11C,0.1524*%
%ADD12C,0.2540*%

%LPD*%
D10*
X5391287Y8235022D02*
G01*
X5354965Y8139516D01*
X5318643Y8235022D02*
G01*
X5354965Y8139516D01*
X5220345Y8212416D02*
G01*
X5224917Y8221558D01*
X5234061Y8230448D01*
X5243205Y8235022D01*
X5261239Y8235022D01*
X5270383Y8230448D01*
X5279527Y8221558D01*
X5284099Y8212416D01*
X5288671Y8198698D01*
X5288671Y8176097D01*
X5284099Y8162381D01*
X5279527Y8153232D01*
X5270383Y8144090D01*
X5261239Y8139516D01*
X5243205Y8139516D01*
X5234061Y8144090D01*
X5224917Y8153232D01*
X5220345Y8162381D01*
X5122301Y8212416D02*
G01*
X5126619Y8221558D01*
X5135763Y8230448D01*
X5144907Y8235022D01*
X5163195Y8235022D01*
X5172087Y8230448D01*
X5181229Y8221558D01*
X5185801Y8212416D01*
X5190373Y8198698D01*
X5190373Y8176097D01*
X5185801Y8162381D01*
X5181229Y8153232D01*
X5172087Y8144090D01*
X5163195Y8139516D01*
X5144907Y8139516D01*
X5135763Y8144090D01*
X5126619Y8153232D01*
X5122301Y8162381D01*
X5323215Y7958416D02*
G01*
X5327533Y7967558D01*
X5336677Y7976448D01*
X5345821Y7981022D01*
X5364109Y7981022D01*
X5372999Y7976448D01*
X5382143Y7967558D01*
X5386715Y7958416D01*
X5391287Y7944698D01*
X5391287Y7922097D01*
X5386715Y7908381D01*
X5382143Y7899232D01*
X5372999Y7890090D01*
X5364109Y7885516D01*
X5345821Y7885516D01*
X5336677Y7890090D01*
X5327533Y7899232D01*
X5323215Y7908381D01*
X5323215Y7922097D01*
X5345821Y7922097D02*
G01*
X5323215Y7922097D01*
X5292989Y7981022D02*
G01*
X5292989Y7885516D01*
X5292989Y7981022D02*
G01*
X5229489Y7885516D01*
X5229489Y7981022D02*
G01*
X5229489Y7885516D01*
X5199517Y7981022D02*
G01*
X5199517Y7885516D01*
X5199517Y7981022D02*
G01*
X5167767Y7981022D01*
X5154051Y7976448D01*
X5144907Y7967558D01*
X5140337Y7958416D01*
X5135763Y7944698D01*
X5135763Y7922097D01*
X5140337Y7908381D01*
X5144907Y7899232D01*
X5154051Y7890090D01*
X5167767Y7885516D01*
X5199517Y7885516D01*
X5327533Y7713558D02*
G01*
X5336677Y7722448D01*
X5350393Y7727022D01*
X5368681Y7727022D01*
X5382143Y7722448D01*
X5391287Y7713558D01*
X5391287Y7704416D01*
X5386715Y7695272D01*
X5382143Y7690698D01*
X5372999Y7686131D01*
X5345821Y7676982D01*
X5336677Y7672666D01*
X5332105Y7668097D01*
X5327533Y7658948D01*
X5327533Y7645232D01*
X5336677Y7636090D01*
X5350393Y7631516D01*
X5368681Y7631516D01*
X5382143Y7636090D01*
X5391287Y7645232D01*
X5229489Y7704416D02*
G01*
X5234061Y7713558D01*
X5243205Y7722448D01*
X5252095Y7727022D01*
X5270383Y7727022D01*
X5279527Y7722448D01*
X5288671Y7713558D01*
X5292989Y7704416D01*
X5297561Y7690698D01*
X5297561Y7668097D01*
X5292989Y7654381D01*
X5288671Y7645232D01*
X5279527Y7636090D01*
X5270383Y7631516D01*
X5252095Y7631516D01*
X5243205Y7636090D01*
X5234061Y7645232D01*
X5229489Y7654381D01*
X5199517Y7727022D02*
G01*
X5199517Y7631516D01*
X5199517Y7631516D02*
G01*
X5144907Y7631516D01*
X5327533Y7459558D02*
G01*
X5336677Y7468448D01*
X5350393Y7473022D01*
X5368681Y7473022D01*
X5382143Y7468448D01*
X5391287Y7459558D01*
X5391287Y7450416D01*
X5386715Y7441272D01*
X5382143Y7436698D01*
X5372999Y7432131D01*
X5345821Y7422982D01*
X5336677Y7418666D01*
X5332105Y7414097D01*
X5327533Y7404948D01*
X5327533Y7391232D01*
X5336677Y7382090D01*
X5350393Y7377516D01*
X5368681Y7377516D01*
X5382143Y7382090D01*
X5391287Y7391232D01*
X5297561Y7473022D02*
G01*
X5297561Y7377516D01*
X5297561Y7473022D02*
G01*
X5265811Y7473022D01*
X5252095Y7468448D01*
X5243205Y7459558D01*
X5238633Y7450416D01*
X5234061Y7436698D01*
X5234061Y7414097D01*
X5238633Y7400381D01*
X5243205Y7391232D01*
X5252095Y7382090D01*
X5265811Y7377516D01*
X5297561Y7377516D01*
X5167767Y7473022D02*
G01*
X5204089Y7377516D01*
X5167767Y7473022D02*
G01*
X5131191Y7377516D01*
X5190373Y7409522D02*
G01*
X5144907Y7409522D01*
X5391287Y7219022D02*
G01*
X5391287Y7123516D01*
X5391287Y7219022D02*
G01*
X5332105Y7219022D01*
X5391287Y7173556D02*
G01*
X5354965Y7173556D01*
X5391287Y7123516D02*
G01*
X5332105Y7123516D01*
X5302133Y7219022D02*
G01*
X5302133Y7123516D01*
X5302133Y7219022D02*
G01*
X5270383Y7219022D01*
X5256667Y7214448D01*
X5247777Y7205558D01*
X5243205Y7196416D01*
X5238633Y7182698D01*
X5238633Y7160097D01*
X5243205Y7146381D01*
X5247777Y7137232D01*
X5256667Y7128090D01*
X5270383Y7123516D01*
X5302133Y7123516D01*
X5172087Y7219022D02*
G01*
X5208661Y7123516D01*
X5172087Y7219022D02*
G01*
X5135763Y7123516D01*
X5194945Y7155522D02*
G01*
X5149479Y7155522D01*
X5391287Y6965022D02*
G01*
X5391287Y6869516D01*
X5391287Y6965022D02*
G01*
X5332105Y6965022D01*
X5391287Y6919556D02*
G01*
X5354965Y6919556D01*
X5391287Y6869516D02*
G01*
X5332105Y6869516D01*
X5234061Y6942416D02*
G01*
X5238633Y6951558D01*
X5247777Y6960448D01*
X5256667Y6965022D01*
X5274955Y6965022D01*
X5284099Y6960448D01*
X5292989Y6951558D01*
X5297561Y6942416D01*
X5302133Y6928698D01*
X5302133Y6906097D01*
X5297561Y6892381D01*
X5292989Y6883232D01*
X5284099Y6874090D01*
X5274955Y6869516D01*
X5256667Y6869516D01*
X5247777Y6874090D01*
X5238633Y6883232D01*
X5234061Y6892381D01*
X5204089Y6965022D02*
G01*
X5204089Y6869516D01*
X5204089Y6869516D02*
G01*
X5149479Y6869516D01*
X5354965Y6711022D02*
G01*
X5391287Y6615516D01*
X5354965Y6711022D02*
G01*
X5318643Y6615516D01*
X5377571Y6647522D02*
G01*
X5332105Y6647522D01*
X5288671Y6711022D02*
G01*
X5288671Y6615516D01*
X5288671Y6711022D02*
G01*
X5256667Y6711022D01*
X5243205Y6706448D01*
X5234061Y6697558D01*
X5229489Y6688416D01*
X5224917Y6674698D01*
X5224917Y6652097D01*
X5229489Y6638381D01*
X5234061Y6629232D01*
X5243205Y6620090D01*
X5256667Y6615516D01*
X5288671Y6615516D01*
X5194945Y6711022D02*
G01*
X5194945Y6615516D01*
X5194945Y6711022D02*
G01*
X5163195Y6711022D01*
X5149479Y6706448D01*
X5140337Y6697558D01*
X5135763Y6688416D01*
X5131191Y6674698D01*
X5131191Y6652097D01*
X5135763Y6638381D01*
X5140337Y6629232D01*
X5149479Y6620090D01*
X5163195Y6615516D01*
X5194945Y6615516D01*
X5391287Y6457022D02*
G01*
X5391287Y6361516D01*
X5361315Y6457022D02*
G01*
X5361315Y6361516D01*
X5361315Y6457022D02*
G01*
X5297561Y6361516D01*
X5297561Y6457022D02*
G01*
X5297561Y6361516D01*
X5235839Y6457022D02*
G01*
X5235839Y6361516D01*
X5267589Y6457022D02*
G01*
X5204089Y6457022D01*
X5391287Y6203022D02*
G01*
X5391287Y6107516D01*
X5391287Y6203022D02*
G01*
X5327533Y6107516D01*
X5327533Y6203022D02*
G01*
X5327533Y6107516D01*
X5229489Y6180416D02*
G01*
X5234061Y6189558D01*
X5243205Y6198448D01*
X5252095Y6203022D01*
X5270383Y6203022D01*
X5279527Y6198448D01*
X5288671Y6189558D01*
X5292989Y6180416D01*
X5297561Y6166698D01*
X5297561Y6144097D01*
X5292989Y6130381D01*
X5288671Y6121232D01*
X5279527Y6112090D01*
X5270383Y6107516D01*
X5252095Y6107516D01*
X5243205Y6112090D01*
X5234061Y6121232D01*
X5229489Y6130381D01*
X5135763Y6189558D02*
G01*
X5144907Y6198448D01*
X5158623Y6203022D01*
X5176657Y6203022D01*
X5190373Y6198448D01*
X5199517Y6189558D01*
X5199517Y6180416D01*
X5194945Y6171272D01*
X5190373Y6166698D01*
X5181229Y6162131D01*
X5154051Y6152982D01*
X5144907Y6148666D01*
X5140337Y6144097D01*
X5135763Y6134948D01*
X5135763Y6121232D01*
X5144907Y6112090D01*
X5158623Y6107516D01*
X5176657Y6107516D01*
X5190373Y6112090D01*
X5199517Y6121232D01*
X5391287Y5949022D02*
G01*
X5391287Y5853516D01*
X5391287Y5949022D02*
G01*
X5332105Y5949022D01*
X5391287Y5903556D02*
G01*
X5354965Y5903556D01*
X5238633Y5935558D02*
G01*
X5247777Y5944448D01*
X5261239Y5949022D01*
X5279527Y5949022D01*
X5292989Y5944448D01*
X5302133Y5935558D01*
X5302133Y5926416D01*
X5297561Y5917272D01*
X5292989Y5912698D01*
X5284099Y5908131D01*
X5256667Y5898982D01*
X5247777Y5894666D01*
X5243205Y5890097D01*
X5238633Y5880948D01*
X5238633Y5867232D01*
X5247777Y5858090D01*
X5261239Y5853516D01*
X5279527Y5853516D01*
X5292989Y5858090D01*
X5302133Y5867232D01*
X5208661Y5949022D02*
G01*
X5172087Y5903556D01*
X5172087Y5853516D01*
X5135763Y5949022D02*
G01*
X5172087Y5903556D01*
X5105791Y5949022D02*
G01*
X5105791Y5853516D01*
X5105791Y5949022D02*
G01*
X5042291Y5853516D01*
X5042291Y5949022D02*
G01*
X5042291Y5853516D01*
X4943993Y5926416D02*
G01*
X4948565Y5935558D01*
X4957709Y5944448D01*
X4966853Y5949022D01*
X4984887Y5949022D01*
X4994031Y5944448D01*
X5003175Y5935558D01*
X5007747Y5926416D01*
X5012319Y5912698D01*
X5012319Y5890097D01*
X5007747Y5876381D01*
X5003175Y5867232D01*
X4994031Y5858090D01*
X4984887Y5853516D01*
X4966853Y5853516D01*
X4957709Y5858090D01*
X4948565Y5867232D01*
X4943993Y5876381D01*
D11*
X4934087Y8478098D02*
G01*
X4934087Y8369132D01*
X4934087Y8478098D02*
G01*
X4892431Y8369132D01*
X4851029Y8478098D02*
G01*
X4892431Y8369132D01*
X4851029Y8478098D02*
G01*
X4851029Y8369132D01*
X4816739Y8478098D02*
G01*
X4816739Y8369132D01*
X4816739Y8478098D02*
G01*
X4770003Y8478098D01*
X4754255Y8473023D01*
X4749175Y8467689D01*
X4743841Y8457272D01*
X4743841Y8441781D01*
X4749175Y8431364D01*
X4754255Y8426282D01*
X4770003Y8420948D01*
X4816739Y8420948D01*
X4709551Y8478098D02*
G01*
X4709551Y8400122D01*
X4704471Y8384631D01*
X4694057Y8374214D01*
X4678563Y8369132D01*
X4668149Y8369132D01*
X4652401Y8374214D01*
X4641987Y8384631D01*
X4636907Y8400122D01*
X4636907Y8478098D01*
X4535053Y8441781D02*
G01*
X4540387Y8426282D01*
X4550547Y8415873D01*
X4566295Y8410539D01*
X4571375Y8410539D01*
X4587123Y8415873D01*
X4597537Y8426282D01*
X4602617Y8441781D01*
X4602617Y8446858D01*
X4597537Y8462606D01*
X4587123Y8473023D01*
X4571375Y8478098D01*
X4566295Y8478098D01*
X4550547Y8473023D01*
X4540387Y8462606D01*
X4535053Y8441781D01*
X4535053Y8415873D01*
X4540387Y8389708D01*
X4550547Y8374214D01*
X4566295Y8369132D01*
X4576709Y8369132D01*
X4592203Y8374214D01*
X4597537Y8384631D01*
X4495683Y8452190D02*
G01*
X4495683Y8457272D01*
X4490349Y8467689D01*
X4485269Y8473023D01*
X4474855Y8478098D01*
X4454027Y8478098D01*
X4443613Y8473023D01*
X4438533Y8467689D01*
X4433199Y8457272D01*
X4433199Y8446858D01*
X4438533Y8436447D01*
X4448947Y8420948D01*
X4500763Y8369132D01*
X4428119Y8369132D01*
X4331345Y8478098D02*
G01*
X4383415Y8478098D01*
X4388495Y8431364D01*
X4383415Y8436447D01*
X4367667Y8441781D01*
X4352173Y8441781D01*
X4336679Y8436447D01*
X4326265Y8426282D01*
X4320931Y8410539D01*
X4320931Y8400122D01*
X4326265Y8384631D01*
X4336679Y8374214D01*
X4352173Y8369132D01*
X4367667Y8369132D01*
X4383415Y8374214D01*
X4388495Y8379297D01*
X4393829Y8389708D01*
X4255653Y8478098D02*
G01*
X4271147Y8473023D01*
X4281561Y8457272D01*
X4286641Y8431364D01*
X4286641Y8415873D01*
X4281561Y8389708D01*
X4271147Y8374214D01*
X4255653Y8369132D01*
X4245239Y8369132D01*
X4229491Y8374214D01*
X4219077Y8389708D01*
X4213997Y8415873D01*
X4213997Y8431364D01*
X4219077Y8457272D01*
X4229491Y8473023D01*
X4245239Y8478098D01*
X4255653Y8478098D01*
D12*
X5709091Y8324992D02*
G01*
X4159082Y8324992D01*
X4159082Y5734979D01*
X5709091Y5734979D01*
X5709091Y8324992D01*
M02*
