G04 Layer: BottomLayer*
G04 EasyEDA v6.5.23, 2023-06-03 17:25:55*
G04 e563b856323e489fb497cbcb29ae2dd2,10*
G04 Gerber Generator version 0.2*
G04 Scale: 100 percent, Rotated: No, Reflected: No *
G04 Dimensions in millimeters *
G04 leading zeros omitted , absolute positions ,4 integer and 5 decimal *
%FSLAX45Y45*%
%MOMM*%

%ADD10C,0.5000*%
%ADD11C,0.3000*%
%ADD12C,0.4000*%
%ADD13R,2.0320X2.0320*%
%ADD14C,2.0320*%
%ADD15R,2.2860X1.2700*%
%ADD16O,2.286X1.27*%
%ADD17C,1.6000*%
%ADD18R,1.6000X1.6000*%
%ADD19R,1.7000X1.7000*%
%ADD20C,1.7000*%
%ADD21C,1.5240*%
%ADD22R,1.8000X1.8000*%
%ADD23C,1.8000*%

%LPD*%
D10*
X3213100Y3911600D02*
G01*
X3213100Y3911600D01*
X7912100Y3911600D01*
X8140700Y4140200D01*
X8140700Y6921500D01*
X7848600Y7226300D01*
X7264400Y7226300D01*
X1041400Y4432300D02*
G01*
X1562100Y3911600D01*
X3213100Y3911600D01*
X3467100Y4165600D01*
X3467100Y5664200D01*
X3060700Y6070600D01*
X2679700Y6070600D01*
X5569087Y7930982D02*
G01*
X6559717Y7930982D01*
X7264400Y7226300D01*
D11*
X4965700Y7594600D02*
G01*
X5511800Y7048500D01*
X7188200Y7048500D01*
X7264400Y6972300D01*
X4965700Y7340600D02*
G01*
X5511800Y6794500D01*
X7188200Y6794500D01*
X7264400Y6718300D01*
X4965700Y7086600D02*
G01*
X5511800Y6540500D01*
X7188200Y6540500D01*
X7264400Y6464300D01*
X4965700Y6832600D02*
G01*
X5511800Y6286500D01*
X7188200Y6286500D01*
X7264400Y6210300D01*
X4965700Y6578600D02*
G01*
X5524500Y6019800D01*
X7200900Y6019800D01*
X7264400Y5956300D01*
D10*
X5727700Y9359900D02*
G01*
X5715000Y9372600D01*
X4965700Y9372600D01*
X5727700Y9105900D02*
G01*
X4965700Y9105900D01*
X4965700Y9118600D01*
D11*
X4965700Y6324600D02*
G01*
X5588000Y5702300D01*
X7264400Y5702300D01*
D12*
X4965700Y5308600D02*
G01*
X5588000Y4686300D01*
X7264400Y4686300D01*
X4965700Y5054600D02*
G01*
X5359400Y4660900D01*
X5359400Y4432300D01*
X7264400Y4432300D01*
X4965700Y6070600D02*
G01*
X5588000Y5448300D01*
X7264400Y5448300D01*
X4965700Y5816600D02*
G01*
X5588000Y5194300D01*
X7264400Y5194300D01*
D11*
X5569204Y7422895D02*
G01*
X5207000Y7785100D01*
X5207000Y7950200D01*
X5054600Y8102600D01*
X4965700Y8102600D01*
X5569204Y7676895D02*
G01*
X5321300Y7924800D01*
X5321300Y8623300D01*
X5080000Y8864600D01*
X4965700Y8864600D01*
D10*
X2679700Y5054600D02*
G01*
X1993900Y5054600D01*
X1981200Y5041900D01*
X2679700Y8864600D02*
G01*
X2540000Y8864600D01*
X2374900Y9029700D01*
X1981200Y9029700D01*
X2679700Y9372600D02*
G01*
X3009900Y9702800D01*
X5994400Y9702800D01*
X6210300Y9486900D01*
X6210300Y8420100D01*
X5975182Y8184982D01*
X5569087Y8184982D01*
X2679700Y5562600D02*
G01*
X1993900Y5562600D01*
X1981200Y5549900D01*
D12*
X4965700Y5562600D02*
G01*
X5588000Y4940300D01*
X7264400Y4940300D01*
D10*
X4965700Y4800600D02*
G01*
X4965700Y4178300D01*
X7264400Y4178300D01*
X1802406Y4432300D02*
G01*
X1688106Y4546600D01*
X1549400Y4546600D01*
X1511300Y4584700D01*
X1511300Y6832600D01*
X2679700Y6832600D01*
X1981200Y9853190D02*
G01*
X1447800Y9855200D01*
X1041400Y9448800D01*
X1041400Y4432300D01*
X2679700Y6070600D02*
G01*
X1993900Y6070600D01*
X1981200Y6057900D01*
X2679700Y5308600D02*
G01*
X1993900Y5308600D01*
X1981200Y5295900D01*
X2679700Y5816600D02*
G01*
X1993900Y5816600D01*
X1981200Y5803900D01*
X2679700Y6324600D02*
G01*
X1993900Y6324600D01*
X1981200Y6311900D01*
X2679700Y6578600D02*
G01*
X1993900Y6578600D01*
X1981200Y6565900D01*
X2679700Y7086600D02*
G01*
X1993900Y7086600D01*
X1981200Y7073900D01*
X2679700Y7340600D02*
G01*
X1993900Y7340600D01*
X1981200Y7327900D01*
X2679700Y7594600D02*
G01*
X1993900Y7594600D01*
X1981200Y7581900D01*
X2679700Y7848600D02*
G01*
X1993900Y7848600D01*
X1981200Y7835900D01*
X2679700Y8102600D02*
G01*
X2476500Y8102600D01*
X2311400Y8267700D01*
X1981200Y8267700D01*
X2679700Y8356600D02*
G01*
X2476500Y8356600D01*
X2311400Y8521700D01*
X1981200Y8521700D01*
X2679700Y8610600D02*
G01*
X2501900Y8610600D01*
X2336800Y8775700D01*
X1981200Y8775700D01*
X2679700Y9118600D02*
G01*
X2540000Y9118600D01*
X2413000Y9245600D01*
X2413000Y9486900D01*
X2298700Y9601200D01*
X1981200Y9603234D01*
D13*
G01*
X1041400Y4432300D03*
D14*
G01*
X1802409Y4432300D03*
D15*
G01*
X2679700Y9372600D03*
D16*
G01*
X2679700Y9118600D03*
G01*
X2679700Y8864600D03*
G01*
X2679700Y8610600D03*
G01*
X2679700Y8356600D03*
G01*
X2679700Y8102600D03*
G01*
X2679700Y7848600D03*
G01*
X2679700Y7594600D03*
G01*
X2679700Y7340600D03*
G01*
X2679700Y7086600D03*
G01*
X2679700Y6832600D03*
G01*
X2679700Y6578600D03*
G01*
X2679700Y6324600D03*
G01*
X2679700Y6070600D03*
G01*
X2679700Y5816600D03*
G01*
X2679700Y5562600D03*
G01*
X2679700Y5308600D03*
G01*
X2679700Y5054600D03*
G01*
X2679700Y4800600D03*
G01*
X4965700Y4800600D03*
G01*
X4965700Y5054600D03*
G01*
X4965700Y5308600D03*
G01*
X4965700Y5562600D03*
G01*
X4965700Y5816600D03*
G01*
X4965700Y6070600D03*
G01*
X4965700Y6324600D03*
G01*
X4965700Y6578600D03*
G01*
X4965700Y6832600D03*
G01*
X4965700Y7086600D03*
G01*
X4965700Y7340600D03*
G01*
X4965700Y7594600D03*
G01*
X4965700Y7848600D03*
G01*
X4965700Y8102600D03*
G01*
X4965700Y8356600D03*
G01*
X4965700Y8610600D03*
G01*
X4965700Y8864600D03*
G01*
X4965700Y9118600D03*
G01*
X4965700Y9372600D03*
D17*
G01*
X1981200Y9603206D03*
D18*
G01*
X1981200Y9853193D03*
D19*
G01*
X1981200Y7073900D03*
D20*
G01*
X1981200Y7327900D03*
G01*
X1981200Y7581900D03*
G01*
X1981200Y7835900D03*
D21*
G01*
X5569087Y5898982D03*
G01*
X5569087Y8184982D03*
G01*
X5569087Y7930982D03*
G01*
X5569087Y7676982D03*
G01*
X5569087Y7422982D03*
G01*
X5569087Y7168982D03*
G01*
X5569087Y6914982D03*
G01*
X5569087Y6660982D03*
G01*
X5569087Y6406982D03*
G01*
X5569087Y6152982D03*
D18*
G01*
X7264400Y4178300D03*
D17*
G01*
X7264400Y4432300D03*
G01*
X7264400Y4686300D03*
G01*
X7264400Y4940300D03*
G01*
X7264400Y5194300D03*
G01*
X7264400Y5448300D03*
G01*
X7264400Y5702300D03*
G01*
X7264400Y5956300D03*
G01*
X7264400Y6210300D03*
G01*
X7264400Y6464300D03*
G01*
X7264400Y6718300D03*
G01*
X7264400Y6972300D03*
G01*
X7264400Y7226300D03*
D22*
G01*
X5727700Y9105900D03*
D23*
G01*
X5727700Y9359900D03*
D19*
G01*
X1981200Y5041900D03*
D20*
G01*
X1981200Y5295900D03*
G01*
X1981200Y5549900D03*
G01*
X1981200Y5803900D03*
G01*
X1981200Y6057900D03*
G01*
X1981200Y6311900D03*
G01*
X1981200Y6565900D03*
D19*
G01*
X1981200Y8267700D03*
D20*
G01*
X1981200Y8521700D03*
G01*
X1981200Y8775700D03*
G01*
X1981200Y9029700D03*
M02*
