G04 EAGLE Gerber RS-274X export*
G75*
%MOMM*%
%FSLAX34Y34*%
%LPD*%
%IN*%
%IPPOS*%
%AMOC8*
5,1,8,0,0,1.08239X$1,22.5*%
G01*
G04 Define Apertures*
%ADD10C,0.254000*%
D10*
X0Y0D02*
X420000Y0D01*
X420000Y850000D01*
X0Y850000D01*
X0Y0D01*
X225000Y819464D02*
X225000Y820536D01*
X224924Y821604D01*
X224771Y822665D01*
X224543Y823712D01*
X224241Y824740D01*
X223867Y825744D01*
X223422Y826719D01*
X222908Y827659D01*
X222329Y828560D01*
X221687Y829418D01*
X220985Y830228D01*
X220228Y830985D01*
X219418Y831687D01*
X218560Y832329D01*
X217659Y832908D01*
X216719Y833422D01*
X215744Y833867D01*
X214740Y834241D01*
X213712Y834543D01*
X212665Y834771D01*
X211604Y834924D01*
X210536Y835000D01*
X209464Y835000D01*
X208396Y834924D01*
X207335Y834771D01*
X206288Y834543D01*
X205260Y834241D01*
X204256Y833867D01*
X203281Y833422D01*
X202341Y832908D01*
X201440Y832329D01*
X200582Y831687D01*
X199772Y830985D01*
X199015Y830228D01*
X198313Y829418D01*
X197671Y828560D01*
X197092Y827659D01*
X196578Y826719D01*
X196133Y825744D01*
X195759Y824740D01*
X195457Y823712D01*
X195229Y822665D01*
X195076Y821604D01*
X195000Y820536D01*
X195000Y819464D01*
X195076Y818396D01*
X195229Y817335D01*
X195457Y816288D01*
X195759Y815260D01*
X196133Y814256D01*
X196578Y813281D01*
X197092Y812341D01*
X197671Y811440D01*
X198313Y810582D01*
X199015Y809772D01*
X199772Y809015D01*
X200582Y808313D01*
X201440Y807671D01*
X202341Y807092D01*
X203281Y806578D01*
X204256Y806133D01*
X205260Y805759D01*
X206288Y805457D01*
X207335Y805229D01*
X208396Y805076D01*
X209464Y805000D01*
X210536Y805000D01*
X211604Y805076D01*
X212665Y805229D01*
X213712Y805457D01*
X214740Y805759D01*
X215744Y806133D01*
X216719Y806578D01*
X217659Y807092D01*
X218560Y807671D01*
X219418Y808313D01*
X220228Y809015D01*
X220985Y809772D01*
X221687Y810582D01*
X222329Y811440D01*
X222908Y812341D01*
X223422Y813281D01*
X223867Y814256D01*
X224241Y815260D01*
X224543Y816288D01*
X224771Y817335D01*
X224924Y818396D01*
X225000Y819464D01*
X225000Y184464D02*
X225000Y185536D01*
X224924Y186604D01*
X224771Y187665D01*
X224543Y188712D01*
X224241Y189740D01*
X223867Y190744D01*
X223422Y191719D01*
X222908Y192659D01*
X222329Y193560D01*
X221687Y194418D01*
X220985Y195228D01*
X220228Y195985D01*
X219418Y196687D01*
X218560Y197329D01*
X217659Y197908D01*
X216719Y198422D01*
X215744Y198867D01*
X214740Y199241D01*
X213712Y199543D01*
X212665Y199771D01*
X211604Y199924D01*
X210536Y200000D01*
X209464Y200000D01*
X208396Y199924D01*
X207335Y199771D01*
X206288Y199543D01*
X205260Y199241D01*
X204256Y198867D01*
X203281Y198422D01*
X202341Y197908D01*
X201440Y197329D01*
X200582Y196687D01*
X199772Y195985D01*
X199015Y195228D01*
X198313Y194418D01*
X197671Y193560D01*
X197092Y192659D01*
X196578Y191719D01*
X196133Y190744D01*
X195759Y189740D01*
X195457Y188712D01*
X195229Y187665D01*
X195076Y186604D01*
X195000Y185536D01*
X195000Y184464D01*
X195076Y183396D01*
X195229Y182335D01*
X195457Y181288D01*
X195759Y180260D01*
X196133Y179256D01*
X196578Y178281D01*
X197092Y177341D01*
X197671Y176440D01*
X198313Y175582D01*
X199015Y174772D01*
X199772Y174015D01*
X200582Y173313D01*
X201440Y172671D01*
X202341Y172092D01*
X203281Y171578D01*
X204256Y171133D01*
X205260Y170759D01*
X206288Y170457D01*
X207335Y170229D01*
X208396Y170076D01*
X209464Y170000D01*
X210536Y170000D01*
X211604Y170076D01*
X212665Y170229D01*
X213712Y170457D01*
X214740Y170759D01*
X215744Y171133D01*
X216719Y171578D01*
X217659Y172092D01*
X218560Y172671D01*
X219418Y173313D01*
X220228Y174015D01*
X220985Y174772D01*
X221687Y175582D01*
X222329Y176440D01*
X222908Y177341D01*
X223422Y178281D01*
X223867Y179256D01*
X224241Y180260D01*
X224543Y181288D01*
X224771Y182335D01*
X224924Y183396D01*
X225000Y184464D01*
M02*
