M48
METRIC,LZ,000.000
;FILE_FORMAT=3:3
;TYPE=PLATED
;Layer: PTH_Through
;EasyEDA v6.5.23, 2023-06-19 12:13:42
;e563b856323e489fb497cbcb29ae2dd2,10
;Gerber Generator version 0.2
;Holesize 1 = 0.600 mm
T01C0.600
;Holesize 2 = 0.798 mm
T02C0.798
;Holesize 3 = 0.800 mm
T03C0.800
;Holesize 4 = 0.915 mm
T04C0.915
;Holesize 5 = 1.000 mm
T05C1.000
;Holesize 6 = 1.101 mm
T06C1.101
;Holesize 7 = 1.200 mm
T07C1.200
%
G05
G90
T01
X032065Y012024
X031315Y010524
X030565Y012024
X030565Y009024
X029815Y010524
X029065Y009024
X029065Y012024
X028315Y010524
X027565Y012024
X027565Y009024
X026815Y010524
X026065Y009024
X026065Y012024
X025315Y010524
X024565Y012024
X024565Y009024
X023815Y010524
X023065Y009024
X023065Y012024
T02
X033147Y036068
X033147Y038125
X033147Y040107
X033147Y042113
T03
X058420Y042144
X058420Y052344
X043454Y050292
X033254Y050292
T04
X053213Y030607
X053213Y033147
X053213Y035687
X053213Y038227
T05
X035165Y003424G85X035165Y004024
X019445Y003424G85X019445Y004024
X028190Y054221G85X028190Y054221
X030730Y054221G85X030730Y054221
X033270Y054221G85X033270Y054221
X035810Y054221G85X035810Y054221
T06
X034163Y021590
X031623Y021590
X029083Y021590
X026543Y021590
T07
X007112Y016129
X007112Y018669
X007112Y021209
X007112Y023749
X007112Y026289
X007112Y028829
X007112Y031369
X007112Y033909
M30
