G04 Layer: BottomLayer*
G04 EasyEDA v6.5.23, 2023-06-19 12:13:42*
G04 e563b856323e489fb497cbcb29ae2dd2,10*
G04 Gerber Generator version 0.2*
G04 Scale: 100 percent, Rotated: No, Reflected: No *
G04 Dimensions in millimeters *
G04 leading zeros omitted , absolute positions ,4 integer and 5 decimal *
%FSLAX45Y45*%
%MOMM*%

%ADD10C,0.3000*%
%ADD11C,0.4000*%
%ADD12R,1.8000X1.8000*%
%ADD13C,1.8000*%
%ADD14C,1.5240*%
%ADD15R,1.5240X1.5240*%
%ADD16C,1.0000*%
%ADD17O,1.499997X2.1999956000000003*%
%ADD18C,1.4000*%
%ADD19R,1.5080X1.5080*%
%ADD20C,1.5080*%

%LPD*%
D10*
X1944624Y372363D02*
G01*
X1659636Y372363D01*
X711200Y1320800D01*
X711200Y1612900D01*
X2381504Y1052321D02*
G01*
X2186177Y1052321D01*
X1828800Y1409700D01*
X1828800Y1511300D01*
X711200Y2628900D01*
X2306574Y902462D02*
G01*
X2005838Y902462D01*
X1651000Y1257300D01*
X1651000Y1435100D01*
X711200Y2374900D01*
X2456434Y902462D02*
G01*
X2456434Y780034D01*
X2425700Y749300D01*
X1879600Y749300D01*
X1473200Y1155700D01*
X1473200Y1358900D01*
X711200Y2120900D01*
X2606547Y901700D02*
G01*
X2606547Y765047D01*
X2438400Y596900D01*
X1739900Y596900D01*
X1295400Y1041400D01*
X1295400Y1282700D01*
X711200Y1866900D01*
X2306574Y1202436D02*
G01*
X2306574Y1287526D01*
X711200Y2882900D01*
X2456434Y1202436D02*
G01*
X2456434Y1391665D01*
X711200Y3136900D01*
D11*
X4345431Y5029200D02*
G01*
X4345431Y5878068D01*
X4165600Y6057900D01*
X2603500Y6057900D01*
X2044700Y5499100D01*
X2044700Y2095500D01*
X2603500Y1536700D01*
X2603500Y1205484D01*
X2606547Y1202436D01*
D10*
X3072891Y5422137D02*
G01*
X3072891Y4698492D01*
X2565400Y4191000D01*
X2565400Y2832100D01*
X2781300Y2616200D01*
X2781300Y1227073D01*
X2756408Y1202436D01*
D11*
X2818891Y5422137D02*
G01*
X2818891Y4761992D01*
X2298700Y4241800D01*
X2298700Y2400300D01*
X2540000Y2159000D01*
X2654300Y2159000D01*
X3416300Y2159000D02*
G01*
X3416300Y2654300D01*
X3276600Y2794000D01*
X2984500Y2794000D01*
X2819400Y2959100D01*
X2819400Y4051300D01*
X2979420Y4211320D01*
X3314700Y4211320D01*
X3314700Y4010660D02*
G01*
X3121659Y4010660D01*
X3022600Y3911600D01*
X3022600Y3162300D01*
X3124200Y3060700D01*
X5321300Y3060700D01*
X4345406Y5029200D02*
G01*
X4345406Y5234409D01*
X5842000Y5234409D01*
X3325393Y5029200D02*
G01*
X3325393Y5422087D01*
X3326991Y5422087D01*
X2906522Y902462D02*
G01*
X2906522Y789178D01*
X3060700Y635000D01*
X4864100Y635000D01*
X6261100Y2032000D01*
X6261100Y4292600D01*
X5778500Y4775200D01*
X4191000Y4775200D01*
X4013200Y4953000D01*
X4013200Y5600700D01*
X3835400Y5778500D01*
X3022091Y5778500D01*
X2818891Y5575300D01*
X2818891Y5422137D01*
X3580891Y5422137D02*
G01*
X3696461Y5422137D01*
X3810000Y5308600D01*
X3810000Y4211320D01*
X3314700Y4211320D01*
X3314700Y4211320D02*
G01*
X3317773Y4214393D01*
X5842000Y4214393D01*
X3314700Y4010660D02*
G01*
X3317240Y4013200D01*
X6261100Y4023360D01*
X3416300Y2159000D02*
G01*
X5499100Y2159000D01*
X5600700Y2260600D01*
X5600700Y3213100D01*
X5499100Y3314700D01*
X5321300Y3314700D01*
X3314700Y3606800D02*
G01*
X5283200Y3606800D01*
X5321300Y3568700D01*
X3314700Y3812539D02*
G01*
X5311140Y3812539D01*
D10*
X2908300Y2159000D02*
G01*
X2906522Y1202436D01*
X3162300Y2159000D02*
G01*
X3162300Y1511300D01*
X3206495Y1467104D01*
X3206495Y1202436D01*
X1944497Y372402D02*
G01*
X3516502Y372402D01*
X3416300Y2159000D02*
G01*
X3276600Y2298700D01*
X3035300Y2298700D01*
X3035300Y1223606D01*
X3056509Y1202397D01*
D11*
X3056381Y902462D02*
G01*
X4852161Y902462D01*
X6045200Y2095500D01*
X6045200Y3479800D01*
X5715000Y3810000D01*
X5334000Y3810000D01*
X5321300Y3822700D01*
X3131565Y1052321D02*
G01*
X4722622Y1052321D01*
X5816600Y2146300D01*
X5816600Y3289300D01*
X5524500Y3581400D01*
X5334000Y3581400D01*
X5321300Y3568700D01*
D12*
G01*
X711200Y1612900D03*
D13*
G01*
X711200Y1866900D03*
G01*
X711200Y2120900D03*
G01*
X711200Y2374900D03*
G01*
X711200Y2628900D03*
G01*
X711200Y2882900D03*
G01*
X711200Y3136900D03*
G01*
X711200Y3390900D03*
D12*
G01*
X3416300Y2159000D03*
D13*
G01*
X3162300Y2159000D03*
G01*
X2908300Y2159000D03*
G01*
X2654300Y2159000D03*
D14*
G01*
X3314700Y3606800D03*
G01*
X3314700Y3812539D03*
G01*
X3314700Y4010660D03*
D15*
G01*
X3314700Y4211320D03*
D16*
G01*
X3206495Y1202385D03*
G01*
X3131489Y1052372D03*
G01*
X3056509Y1202385D03*
G01*
X3056509Y902385D03*
G01*
X2981502Y1052372D03*
G01*
X2906496Y902385D03*
G01*
X2906496Y1202385D03*
G01*
X2831490Y1052372D03*
G01*
X2756509Y1202385D03*
G01*
X2756509Y902385D03*
G01*
X2681503Y1052372D03*
G01*
X2606497Y902385D03*
G01*
X2606497Y1202385D03*
G01*
X2531490Y1052372D03*
G01*
X2456484Y1202385D03*
G01*
X2456484Y902385D03*
G01*
X2381504Y1052372D03*
G01*
X2306497Y902385D03*
G01*
X2306497Y1202385D03*
D17*
G01*
X3516502Y372389D03*
G01*
X1944497Y372389D03*
D18*
G01*
X5842000Y4214393D03*
G01*
X5842000Y5234406D03*
G01*
X4345406Y5029200D03*
G01*
X3325393Y5029200D03*
D19*
G01*
X2818993Y5422087D03*
D20*
G01*
X3072993Y5422087D03*
G01*
X3326993Y5422087D03*
G01*
X3580993Y5422087D03*
D15*
G01*
X5321300Y3060700D03*
D14*
G01*
X5321300Y3314700D03*
G01*
X5321300Y3568700D03*
G01*
X5321300Y3822700D03*
M02*
