M48
METRIC,LZ,000.000
;FILE_FORMAT=3:3
;TYPE=PLATED
;Layer: PTH_Through
;EasyEDA v6.5.23, 2023-06-09 13:35:16
;e563b856323e489fb497cbcb29ae2dd2,10
;Gerber Generator version 0.2
;Holesize 1 = 0.635 mm
T01C0.635
;Holesize 2 = 0.800 mm
T02C0.800
;Holesize 3 = 0.915 mm
T03C0.915
;Holesize 4 = 1.000 mm
T04C1.000
;Holesize 5 = 1.101 mm
T05C1.101
%
G05
G90
T01
X055115Y052197G85X055121Y052197
X047505Y052197G85X047510Y052197
T02
X006243Y066040
X008743Y066040
T03
X035200Y024390
X035200Y047250
X035200Y044710
X035200Y042170
X035200Y039630
X035200Y037090
X035200Y034550
X035200Y032010
X035200Y029470
X035200Y026930
X007570Y058090
X007570Y055550
X007570Y053010
X007570Y050470
X007570Y047930
X007570Y045390
X007570Y042850
X007570Y040310
X007570Y037770
X007570Y035230
X007570Y032690
X007570Y030150
X007570Y027610
X007570Y025070
X007570Y022530
X007570Y019990
X007570Y017450
X007570Y014910
X007570Y012370
X030430Y012370
X030430Y014910
X030430Y017450
X030430Y019990
X030430Y022530
X030430Y025070
X030430Y027610
X030430Y030150
X030430Y032690
X030430Y035230
X030430Y037770
X030430Y040310
X030430Y042850
X030430Y045390
X030430Y047930
X030430Y050470
X030430Y053010
X030430Y055550
X030430Y058090
T04
X052578Y029750
X052578Y040250
T05
X049784Y006731
X049784Y009271
X049784Y011811
X049784Y014351
X042418Y009017
X042418Y011557
X042418Y014097
X042418Y016637
X042418Y019177
X042418Y021717
X042418Y024257
X042418Y026797
X042418Y029337
X042418Y031877
X042418Y034417
X042418Y036957
X042418Y039497
X036576Y055530
X036576Y058070
X002500Y014880
X002500Y017420
X002500Y019960
X002500Y022500
X002500Y025040
X002500Y027580
X002500Y030120
X002500Y045440
X002500Y047980
X002500Y050520
X002500Y053060
M30
