G04 Layer: TopSolderMaskLayer*
G04 EasyEDA v6.5.23, 2023-06-09 13:35:16*
G04 e563b856323e489fb497cbcb29ae2dd2,10*
G04 Gerber Generator version 0.2*
G04 Scale: 100 percent, Rotated: No, Reflected: No *
G04 Dimensions in millimeters *
G04 leading zeros omitted , absolute positions ,4 integer and 5 decimal *
%FSLAX45Y45*%
%MOMM*%

%AMMACRO1*1,1,$1,$2,$3*1,1,$1,$4,$5*1,1,$1,0-$2,0-$3*1,1,$1,0-$4,0-$5*20,1,$1,$2,$3,$4,$5,0*20,1,$1,$4,$5,0-$2,0-$3,0*20,1,$1,0-$2,0-$3,0-$4,0-$5,0*20,1,$1,0-$4,0-$5,$2,$3,0*4,1,4,$2,$3,$4,$5,0-$2,0-$3,0-$4,0-$5,$2,$3,0*%
%ADD10C,1.6256*%
%ADD11C,1.9812*%
%ADD12MACRO1,0.1016X-1.016X1.016X1.016X1.016*%
%ADD13C,2.1336*%
%ADD14MACRO1,0.2032X1.143X0.635X1.143X-0.635*%
%ADD15O,2.3876X1.3716000000000002*%
%ADD16C,1.9000*%
%ADD17MACRO1,0.3X-0.8X0.8X0.8X0.8*%
%ADD18MACRO1,0.1016X-0.85X-0.85X-0.85X0.85*%
%ADD19C,1.8016*%
%ADD20R,1.7016X1.7016*%
%ADD21C,1.7016*%
%ADD22MACRO1,0.1016X-0.9X-0.9X-0.9X0.9*%
%ADD23C,1.9016*%

%LPD*%
D10*
G01*
X3519982Y2438984D03*
G01*
X3519982Y4724984D03*
G01*
X3519982Y4470984D03*
G01*
X3519982Y4216984D03*
G01*
X3519982Y3962984D03*
G01*
X3519982Y3708984D03*
G01*
X3519982Y3454984D03*
G01*
X3519982Y3200984D03*
G01*
X3519982Y2946984D03*
G01*
X3519982Y2692984D03*
D11*
G01*
X5257800Y2975000D03*
G01*
X5257800Y4024985D03*
D12*
G01*
X5511800Y5219700D03*
D13*
G01*
X4750790Y5219700D03*
D14*
G01*
X756996Y5808992D03*
D15*
G01*
X756996Y5554979D03*
G01*
X756996Y5300979D03*
G01*
X756996Y5046979D03*
G01*
X756996Y4792979D03*
G01*
X756996Y4538979D03*
G01*
X756996Y4284979D03*
G01*
X756996Y4030979D03*
G01*
X756996Y3776979D03*
G01*
X756996Y3522979D03*
G01*
X756996Y3268979D03*
G01*
X756996Y3014979D03*
G01*
X756996Y2760979D03*
G01*
X756996Y2506979D03*
G01*
X756996Y2252979D03*
G01*
X756996Y1998979D03*
G01*
X756996Y1744979D03*
G01*
X756996Y1490979D03*
G01*
X756996Y1236979D03*
G01*
X3042996Y1236979D03*
G01*
X3042996Y1490979D03*
G01*
X3042996Y1744979D03*
G01*
X3042996Y1998979D03*
G01*
X3042996Y2252979D03*
G01*
X3042996Y2506979D03*
G01*
X3042996Y2760979D03*
G01*
X3042996Y3014979D03*
G01*
X3042996Y3268979D03*
G01*
X3042996Y3522979D03*
G01*
X3042996Y3776979D03*
G01*
X3042996Y4030979D03*
G01*
X3042996Y4284979D03*
G01*
X3042996Y4538979D03*
G01*
X3042996Y4792979D03*
G01*
X3042996Y5046979D03*
G01*
X3042996Y5300979D03*
G01*
X3042996Y5554979D03*
G01*
X3042996Y5808979D03*
D16*
G01*
X624306Y6604000D03*
D17*
G01*
X874301Y6604000D03*
D18*
G01*
X4978400Y673100D03*
D19*
G01*
X4978425Y927100D03*
G01*
X4978425Y1181100D03*
G01*
X4978425Y1435100D03*
D20*
G01*
X4241800Y901700D03*
D21*
G01*
X4241800Y1155700D03*
G01*
X4241800Y1409700D03*
G01*
X4241800Y1663700D03*
G01*
X4241800Y1917700D03*
G01*
X4241800Y2171700D03*
G01*
X4241800Y2425700D03*
G01*
X4241800Y2679700D03*
G01*
X4241800Y2933700D03*
G01*
X4241800Y3187700D03*
G01*
X4241800Y3441700D03*
G01*
X4241800Y3695700D03*
G01*
X4241800Y3949700D03*
D22*
G01*
X3657600Y5552988D03*
D23*
G01*
X3657600Y5806998D03*
D18*
G01*
X249999Y1487995D03*
D19*
G01*
X250012Y1741982D03*
G01*
X250012Y1995982D03*
G01*
X250012Y2249982D03*
G01*
X250012Y2503982D03*
G01*
X250012Y2757982D03*
G01*
X250012Y3011982D03*
D18*
G01*
X249999Y4543988D03*
D19*
G01*
X250012Y4797983D03*
G01*
X250012Y5051983D03*
G01*
X250012Y5305983D03*
M02*
