<svg xmlns="http://www.w3.org/2000/svg" xmlns:xlink="http://www.w3.org/1999/xlink" width="1080" zoomAndPan="magnify" viewBox="0 0 810 809.999993" height="1080" preserveAspectRatio="xMidYMid meet" version="1.0"><defs><g/><clipPath id="d358627512"><path d="M 203.734375 330.304688 L 271.984375 330.304688 L 271.984375 398.554688 L 203.734375 398.554688 Z M 203.734375 330.304688 " clip-rule="nonzero"/></clipPath><clipPath id="2527e9a914"><path d="M 161.882812 393.058594 L 242.75 393.058594 L 242.75 473.609375 L 161.882812 473.609375 Z M 161.882812 393.058594 " clip-rule="nonzero"/></clipPath><clipPath id="46dc433abd"><path d="M 202.316406 393.058594 C 179.988281 393.058594 161.882812 411.089844 161.882812 433.332031 C 161.882812 455.578125 179.988281 473.609375 202.316406 473.609375 C 224.648438 473.609375 242.75 455.578125 242.75 433.332031 C 242.75 411.089844 224.648438 393.058594 202.316406 393.058594 Z M 202.316406 393.058594 " clip-rule="nonzero"/></clipPath><clipPath id="73c63e22eb"><path d="M 161.886719 393.058594 L 242.882812 393.058594 L 242.882812 473.308594 L 161.886719 473.308594 Z M 161.886719 393.058594 " clip-rule="nonzero"/></clipPath><clipPath id="afe7183f90"><path d="M 202.3125 393.058594 C 179.984375 393.058594 161.886719 411.089844 161.886719 433.328125 C 161.886719 455.570312 179.984375 473.601562 202.3125 473.601562 C 224.640625 473.601562 242.742188 455.570312 242.742188 433.328125 C 242.742188 411.089844 224.640625 393.058594 202.3125 393.058594 Z M 202.3125 393.058594 " clip-rule="nonzero"/></clipPath><clipPath id="e156c780e4"><path d="M 192.390625 280.960938 L 210.578125 280.960938 L 210.578125 441.644531 L 192.390625 441.644531 Z M 192.390625 280.960938 " clip-rule="nonzero"/></clipPath><clipPath id="64041b87a9"><path d="M 192.390625 280.96875 L 210.390625 280.96875 L 210.390625 441.460938 L 192.390625 441.460938 Z M 192.390625 280.96875 " clip-rule="nonzero"/></clipPath><clipPath id="5d7bd6ca93"><path d="M 567.582031 393.058594 L 648.445312 393.058594 L 648.445312 473.609375 L 567.582031 473.609375 Z M 567.582031 393.058594 " clip-rule="nonzero"/></clipPath><clipPath id="c83a7ba794"><path d="M 608.011719 393.058594 C 585.683594 393.058594 567.582031 411.089844 567.582031 433.332031 C 567.582031 455.578125 585.683594 473.609375 608.011719 473.609375 C 630.34375 473.609375 648.445312 455.578125 648.445312 433.332031 C 648.445312 411.089844 630.34375 393.058594 608.011719 393.058594 Z M 608.011719 393.058594 " clip-rule="nonzero"/></clipPath><clipPath id="ce6755e999"><path d="M 567.582031 393.058594 L 648.582031 393.058594 L 648.582031 473.308594 L 567.582031 473.308594 Z M 567.582031 393.058594 " clip-rule="nonzero"/></clipPath><clipPath id="02374efd2e"><path d="M 608.011719 393.058594 C 585.683594 393.058594 567.582031 411.089844 567.582031 433.328125 C 567.582031 455.570312 585.683594 473.601562 608.011719 473.601562 C 630.339844 473.601562 648.4375 455.570312 648.4375 433.328125 C 648.4375 411.089844 630.339844 393.058594 608.011719 393.058594 Z M 608.011719 393.058594 " clip-rule="nonzero"/></clipPath><clipPath id="ea2d3571f4"><path d="M 538.253906 330.304688 L 606.246094 330.304688 L 606.246094 398.554688 L 538.253906 398.554688 Z M 538.253906 330.304688 " clip-rule="nonzero"/></clipPath><clipPath id="dd3dc658fb"><path d="M 598.917969 280.960938 L 617.109375 280.960938 L 617.109375 441.644531 L 598.917969 441.644531 Z M 598.917969 280.960938 " clip-rule="nonzero"/></clipPath><clipPath id="c2c2b67ff3"><path d="M 598.917969 280.96875 L 616.917969 280.96875 L 616.917969 441.460938 L 598.917969 441.460938 Z M 598.917969 280.96875 " clip-rule="nonzero"/></clipPath><clipPath id="0d29d938e7"><path d="M 255.027344 195.800781 L 565.675781 195.800781 L 565.675781 456.769531 L 255.027344 456.769531 Z M 255.027344 195.800781 " clip-rule="nonzero"/></clipPath><clipPath id="9756445db0"><path d="M 410.351562 195.800781 C 324.566406 195.800781 255.027344 254.21875 255.027344 326.285156 C 255.027344 398.351562 324.566406 456.769531 410.351562 456.769531 C 496.132812 456.769531 565.675781 398.351562 565.675781 326.285156 C 565.675781 254.21875 496.132812 195.800781 410.351562 195.800781 Z M 410.351562 195.800781 " clip-rule="nonzero"/></clipPath><clipPath id="2dcafa5d38"><path d="M 255.027344 195.804688 L 565.527344 195.804688 L 565.527344 456.800781 L 255.027344 456.800781 Z M 255.027344 195.804688 " clip-rule="nonzero"/></clipPath><clipPath id="8a2248a5bc"><path d="M 410.347656 195.804688 C 324.566406 195.804688 255.027344 254.222656 255.027344 326.285156 C 255.027344 398.34375 324.566406 456.761719 410.347656 456.761719 C 496.125 456.761719 565.667969 398.34375 565.667969 326.285156 C 565.667969 254.222656 496.125 195.804688 410.347656 195.804688 Z M 410.347656 195.804688 " clip-rule="nonzero"/></clipPath><clipPath id="4af87bf818"><path d="M 255.027344 178.054688 L 565.675781 178.054688 L 565.675781 441.644531 L 255.027344 441.644531 Z M 255.027344 178.054688 " clip-rule="nonzero"/></clipPath><clipPath id="e0a2f3e51a"><path d="M 410.351562 178.054688 C 324.566406 178.054688 255.027344 237.058594 255.027344 309.847656 C 255.027344 382.636719 324.566406 441.644531 410.351562 441.644531 C 496.132812 441.644531 565.675781 382.636719 565.675781 309.847656 C 565.675781 237.058594 496.132812 178.054688 410.351562 178.054688 Z M 410.351562 178.054688 " clip-rule="nonzero"/></clipPath><clipPath id="8141e5e440"><path d="M 255.027344 178.054688 L 565.527344 178.054688 L 565.527344 441.304688 L 255.027344 441.304688 Z M 255.027344 178.054688 " clip-rule="nonzero"/></clipPath><clipPath id="4c7d7ad7c5"><path d="M 410.347656 178.054688 C 324.566406 178.054688 255.027344 237.0625 255.027344 309.847656 C 255.027344 382.632812 324.566406 441.640625 410.347656 441.640625 C 496.125 441.640625 565.667969 382.632812 565.667969 309.847656 C 565.667969 237.0625 496.125 178.054688 410.347656 178.054688 Z M 410.347656 178.054688 " clip-rule="nonzero"/></clipPath><clipPath id="94d53202a6"><path d="M 293 150 L 341 150 L 341 243 L 293 243 Z M 293 150 " clip-rule="nonzero"/></clipPath><clipPath id="fcd02f1d2c"><path d="M 284.058594 151.019531 L 453.570312 111.75 L 478.449219 219.15625 L 308.9375 258.425781 Z M 284.058594 151.019531 " clip-rule="nonzero"/></clipPath><clipPath id="2931b4bd82"><path d="M 284.058594 151.019531 L 453.570312 111.75 L 478.449219 219.15625 L 308.9375 258.425781 Z M 284.058594 151.019531 " clip-rule="nonzero"/></clipPath><clipPath id="c0d43c8d51"><path d="M 298 153 L 332 153 L 332 239 L 298 239 Z M 298 153 " clip-rule="nonzero"/></clipPath><clipPath id="abeb9f7c09"><path d="M 284.058594 151.019531 L 453.570312 111.75 L 478.449219 219.15625 L 308.9375 258.425781 Z M 284.058594 151.019531 " clip-rule="nonzero"/></clipPath><clipPath id="def8f611ef"><path d="M 284.058594 151.019531 L 453.570312 111.75 L 478.449219 219.15625 L 308.9375 258.425781 Z M 284.058594 151.019531 " clip-rule="nonzero"/></clipPath><clipPath id="ffa5a73f3c"><path d="M 429 132 L 464 132 L 464 219 L 429 219 Z M 429 132 " clip-rule="nonzero"/></clipPath><clipPath id="8cf333ef7d"><path d="M 284.058594 151.019531 L 453.570312 111.75 L 478.449219 219.15625 L 308.9375 258.425781 Z M 284.058594 151.019531 " clip-rule="nonzero"/></clipPath><clipPath id="35c8ad7883"><path d="M 284.058594 151.019531 L 453.570312 111.75 L 478.449219 219.15625 L 308.9375 258.425781 Z M 284.058594 151.019531 " clip-rule="nonzero"/></clipPath><clipPath id="51da095e03"><path d="M 309 163 L 315 163 L 315 170 L 309 170 Z M 309 163 " clip-rule="nonzero"/></clipPath><clipPath id="0378edb656"><path d="M 284.058594 151.019531 L 453.570312 111.75 L 478.449219 219.15625 L 308.9375 258.425781 Z M 284.058594 151.019531 " clip-rule="nonzero"/></clipPath><clipPath id="e0cb9bdd01"><path d="M 284.058594 151.019531 L 453.570312 111.75 L 478.449219 219.15625 L 308.9375 258.425781 Z M 284.058594 151.019531 " clip-rule="nonzero"/></clipPath><clipPath id="164b446b39"><path d="M 446 141 L 449 141 L 449 147 L 446 147 Z M 446 141 " clip-rule="nonzero"/></clipPath><clipPath id="2179bac905"><path d="M 284.058594 151.019531 L 453.570312 111.75 L 478.449219 219.15625 L 308.9375 258.425781 Z M 284.058594 151.019531 " clip-rule="nonzero"/></clipPath><clipPath id="304c53cedb"><path d="M 284.058594 151.019531 L 453.570312 111.75 L 478.449219 219.15625 L 308.9375 258.425781 Z M 284.058594 151.019531 " clip-rule="nonzero"/></clipPath><clipPath id="9248cc6127"><path d="M 442 145 L 445 145 L 445 148 L 442 148 Z M 442 145 " clip-rule="nonzero"/></clipPath><clipPath id="ffae212cb8"><path d="M 284.058594 151.019531 L 453.570312 111.75 L 478.449219 219.15625 L 308.9375 258.425781 Z M 284.058594 151.019531 " clip-rule="nonzero"/></clipPath><clipPath id="6e7a026766"><path d="M 284.058594 151.019531 L 453.570312 111.75 L 478.449219 219.15625 L 308.9375 258.425781 Z M 284.058594 151.019531 " clip-rule="nonzero"/></clipPath><clipPath id="027f5e668a"><path d="M 425 128 L 470 128 L 470 224 L 425 224 Z M 425 128 " clip-rule="nonzero"/></clipPath><clipPath id="e0836edf4f"><path d="M 284.058594 151.019531 L 453.570312 111.75 L 478.449219 219.15625 L 308.9375 258.425781 Z M 284.058594 151.019531 " clip-rule="nonzero"/></clipPath><clipPath id="a0f50e2086"><path d="M 284.058594 151.019531 L 453.570312 111.75 L 478.449219 219.15625 L 308.9375 258.425781 Z M 284.058594 151.019531 " clip-rule="nonzero"/></clipPath><clipPath id="9c429504fa"><path d="M 418.230469 134.152344 L 457 125.171875 L 478.714844 218.90625 L 439.945312 227.890625 Z M 418.230469 134.152344 " clip-rule="nonzero"/></clipPath><clipPath id="0aff1326e3"><path d="M 418.230469 134.152344 L 456.972656 125.179688 L 478.683594 218.902344 L 439.941406 227.875 Z M 418.230469 134.152344 " clip-rule="nonzero"/></clipPath><clipPath id="3ad361fe53"><path d="M 71 226 L 325 226 L 325 329 L 71 329 Z M 71 226 " clip-rule="nonzero"/></clipPath><clipPath id="f4e8175979"><path d="M 79.882812 209.339844 L 332.265625 253.6875 L 316.105469 345.648438 L 63.722656 301.300781 Z M 79.882812 209.339844 " clip-rule="nonzero"/></clipPath><clipPath id="f4296ebc48"><path d="M 206.074219 231.515625 C 136.378906 219.269531 76.265625 229.925781 71.800781 255.320312 C 67.339844 280.714844 120.222656 311.226562 189.914062 323.472656 C 259.609375 335.71875 319.722656 325.0625 324.183594 299.667969 C 328.648438 274.273438 275.765625 243.761719 206.074219 231.515625 Z M 206.074219 231.515625 " clip-rule="nonzero"/></clipPath><clipPath id="ea721271da"><path d="M 54 221 L 324 221 L 324 332 L 54 332 Z M 54 221 " clip-rule="nonzero"/></clipPath><clipPath id="65f069b5f0"><path d="M 63.382812 203.535156 L 332.277344 250.707031 L 314.78125 350.433594 L 45.886719 303.265625 Z M 63.382812 203.535156 " clip-rule="nonzero"/></clipPath><clipPath id="b5f74290e9"><path d="M 63.386719 203.539062 L 333.816406 250.976562 L 315.964844 352.722656 L 45.535156 305.285156 Z M 63.386719 203.539062 " clip-rule="nonzero"/></clipPath><clipPath id="b48dcfb416"><path d="M 197.816406 227.121094 C 123.574219 214.09375 59.480469 225.804688 54.660156 253.269531 C 49.84375 280.734375 106.125 313.558594 180.371094 326.582031 C 254.613281 339.605469 318.707031 327.898438 323.523438 300.433594 C 328.34375 272.964844 272.0625 240.144531 197.816406 227.121094 Z M 197.816406 227.121094 " clip-rule="nonzero"/></clipPath><clipPath id="242a1943b5"><path d="M 468 222 L 734 222 L 734 338 L 468 338 Z M 468 222 " clip-rule="nonzero"/></clipPath><clipPath id="6c3ae67667"><path d="M 456.863281 271.199219 L 720.300781 199.625 L 744.78125 289.726562 L 481.34375 361.300781 Z M 456.863281 271.199219 " clip-rule="nonzero"/></clipPath><clipPath id="0c0b889e89"><path d="M 588.582031 235.414062 C 515.835938 255.179688 462.34375 291.371094 469.101562 316.25 C 475.863281 341.132812 540.316406 345.277344 613.0625 325.515625 C 685.808594 305.75 739.300781 269.558594 732.539062 244.675781 C 725.78125 219.796875 661.328125 215.648438 588.582031 235.414062 Z M 588.582031 235.414062 " clip-rule="nonzero"/></clipPath><clipPath id="aeac142de4"><path d="M 486 215 L 752 215 L 752 336 L 486 336 Z M 486 215 " clip-rule="nonzero"/></clipPath><clipPath id="b2744cbecd"><path d="M 474.152344 262.527344 L 737.601562 190.949219 L 764.148438 288.660156 L 500.699219 360.238281 Z M 474.152344 262.527344 " clip-rule="nonzero"/></clipPath><clipPath id="2c4bc1aee5"><path d="M 474.15625 262.527344 L 739.109375 190.542969 L 766.191406 290.226562 L 501.238281 362.214844 Z M 474.15625 262.527344 " clip-rule="nonzero"/></clipPath><clipPath id="f362230626"><path d="M 605.863281 226.742188 C 533.125 246.507812 480.082031 284.34375 487.394531 311.25 C 494.703125 338.160156 559.601562 343.953125 632.339844 324.191406 C 705.082031 304.425781 758.125 266.589844 750.8125 239.683594 C 743.5 212.773438 678.605469 206.980469 605.863281 226.742188 Z M 605.863281 226.742188 " clip-rule="nonzero"/></clipPath><clipPath id="646f59259d"><path d="M 215.195312 251.363281 L 402.617188 251.363281 L 402.617188 381.097656 L 215.195312 381.097656 Z M 215.195312 251.363281 " clip-rule="nonzero"/></clipPath><clipPath id="2ee1ed5e1c"><path d="M 308.90625 251.363281 C 257.152344 251.363281 215.195312 280.402344 215.195312 316.230469 C 215.195312 352.054688 257.152344 381.097656 308.90625 381.097656 C 360.664062 381.097656 402.617188 352.054688 402.617188 316.230469 C 402.617188 280.402344 360.664062 251.363281 308.90625 251.363281 Z M 308.90625 251.363281 " clip-rule="nonzero"/></clipPath><clipPath id="76aaa6643b"><path d="M 215.199219 251.363281 L 402.695312 251.363281 L 402.695312 381.113281 L 215.199219 381.113281 Z M 215.199219 251.363281 " clip-rule="nonzero"/></clipPath><clipPath id="775aa4030a"><path d="M 308.90625 251.363281 C 257.152344 251.363281 215.199219 280.402344 215.199219 316.226562 C 215.199219 352.046875 257.152344 381.089844 308.90625 381.089844 C 360.65625 381.089844 402.609375 352.046875 402.609375 316.226562 C 402.609375 280.402344 360.65625 251.363281 308.90625 251.363281 Z M 308.90625 251.363281 " clip-rule="nonzero"/></clipPath><clipPath id="9bab97870a"><path d="M 234.355469 264.621094 L 383.460938 264.621094 L 383.460938 367.835938 L 234.355469 367.835938 Z M 234.355469 264.621094 " clip-rule="nonzero"/></clipPath><clipPath id="c7da1be3b6"><path d="M 308.90625 264.621094 C 267.734375 264.621094 234.355469 287.726562 234.355469 316.230469 C 234.355469 344.730469 267.734375 367.835938 308.90625 367.835938 C 350.082031 367.835938 383.460938 344.730469 383.460938 316.230469 C 383.460938 287.726562 350.082031 264.621094 308.90625 264.621094 Z M 308.90625 264.621094 " clip-rule="nonzero"/></clipPath><clipPath id="71f874b97e"><path d="M 286.109375 264.621094 L 389.726562 264.621094 L 389.726562 367.835938 L 286.109375 367.835938 Z M 286.109375 264.621094 " clip-rule="nonzero"/></clipPath><clipPath id="b744e79f7b"><path d="M 337.917969 264.621094 C 309.308594 264.621094 286.109375 287.726562 286.109375 316.230469 C 286.109375 344.730469 309.308594 367.835938 337.917969 367.835938 C 366.53125 367.835938 389.726562 344.730469 389.726562 316.230469 C 389.726562 287.726562 366.53125 264.621094 337.917969 264.621094 Z M 337.917969 264.621094 " clip-rule="nonzero"/></clipPath><clipPath id="b46642d6a2"><path d="M 301.011719 279.109375 L 375.542969 279.109375 L 375.542969 353.351562 L 301.011719 353.351562 Z M 301.011719 279.109375 " clip-rule="nonzero"/></clipPath><clipPath id="310d947fb6"><path d="M 338.277344 279.109375 C 317.695312 279.109375 301.011719 295.726562 301.011719 316.230469 C 301.011719 336.730469 317.695312 353.351562 338.277344 353.351562 C 358.859375 353.351562 375.542969 336.730469 375.542969 316.230469 C 375.542969 295.726562 358.859375 279.109375 338.277344 279.109375 Z M 338.277344 279.109375 " clip-rule="nonzero"/></clipPath><clipPath id="b0051ee839"><path d="M 301.011719 279.113281 L 375.261719 279.113281 L 375.261719 353.359375 L 301.011719 353.359375 Z M 301.011719 279.113281 " clip-rule="nonzero"/></clipPath><clipPath id="f3d7e84521"><path d="M 338.273438 279.113281 C 317.695312 279.113281 301.011719 295.730469 301.011719 316.226562 C 301.011719 336.726562 317.695312 353.34375 338.273438 353.34375 C 358.847656 353.34375 375.53125 336.726562 375.53125 316.226562 C 375.53125 295.730469 358.847656 279.113281 338.273438 279.113281 Z M 338.273438 279.113281 " clip-rule="nonzero"/></clipPath><clipPath id="3df9da53d9"><path d="M 318.738281 284.304688 L 347.761719 284.304688 L 347.761719 313.214844 L 318.738281 313.214844 Z M 318.738281 284.304688 " clip-rule="nonzero"/></clipPath><clipPath id="6941ea76cd"><path d="M 333.25 284.304688 C 325.238281 284.304688 318.738281 290.777344 318.738281 298.757812 C 318.738281 306.742188 325.238281 313.214844 333.25 313.214844 C 341.265625 313.214844 347.761719 306.742188 347.761719 298.757812 C 347.761719 290.777344 341.265625 284.304688 333.25 284.304688 Z M 333.25 284.304688 " clip-rule="nonzero"/></clipPath><clipPath id="2157f2f24d"><path d="M 318.742188 284.304688 L 347.976562 284.304688 L 347.976562 313.539062 L 318.742188 313.539062 Z M 318.742188 284.304688 " clip-rule="nonzero"/></clipPath><clipPath id="cac0b0d1e2"><path d="M 333.246094 284.304688 C 325.238281 284.304688 318.742188 290.773438 318.742188 298.753906 C 318.742188 306.734375 325.238281 313.203125 333.246094 313.203125 C 341.257812 313.203125 347.753906 306.734375 347.753906 298.753906 C 347.753906 290.773438 341.257812 284.304688 333.246094 284.304688 Z M 333.246094 284.304688 " clip-rule="nonzero"/></clipPath><clipPath id="0c4cebe41c"><path d="M 313.070312 301.742188 L 327.613281 301.742188 L 327.613281 316.230469 L 313.070312 316.230469 Z M 313.070312 301.742188 " clip-rule="nonzero"/></clipPath><clipPath id="fa8325587c"><path d="M 320.34375 301.742188 C 316.328125 301.742188 313.070312 304.984375 313.070312 308.984375 C 313.070312 312.988281 316.328125 316.230469 320.34375 316.230469 C 324.359375 316.230469 327.613281 312.988281 327.613281 308.984375 C 327.613281 304.984375 324.359375 301.742188 320.34375 301.742188 Z M 320.34375 301.742188 " clip-rule="nonzero"/></clipPath><clipPath id="33bd7fa190"><path d="M 313.070312 301.75 L 327.320312 301.75 L 327.320312 315.992188 L 313.070312 315.992188 Z M 313.070312 301.75 " clip-rule="nonzero"/></clipPath><clipPath id="9debe6c41c"><path d="M 320.335938 301.75 C 316.324219 301.75 313.070312 304.988281 313.070312 308.984375 C 313.070312 312.984375 316.324219 316.222656 320.335938 316.222656 C 324.351562 316.222656 327.601562 312.984375 327.601562 308.984375 C 327.601562 304.988281 324.351562 301.75 320.335938 301.75 Z M 320.335938 301.75 " clip-rule="nonzero"/></clipPath><clipPath id="1fda339c98"><path d="M 410.351562 223.746094 L 596.035156 223.746094 L 596.035156 408.710938 L 410.351562 408.710938 Z M 410.351562 223.746094 " clip-rule="nonzero"/></clipPath><clipPath id="18667b7fe0"><path d="M 503.191406 223.746094 C 451.917969 223.746094 410.351562 265.152344 410.351562 316.230469 C 410.351562 367.304688 451.917969 408.710938 503.191406 408.710938 C 554.46875 408.710938 596.035156 367.304688 596.035156 316.230469 C 596.035156 265.152344 554.46875 223.746094 503.191406 223.746094 Z M 503.191406 223.746094 " clip-rule="nonzero"/></clipPath><clipPath id="edb923a60a"><path d="M 410.351562 223.746094 L 596.351562 223.746094 L 596.351562 408.996094 L 410.351562 408.996094 Z M 410.351562 223.746094 " clip-rule="nonzero"/></clipPath><clipPath id="8e1eede0c9"><path d="M 503.191406 223.746094 C 451.917969 223.746094 410.351562 265.152344 410.351562 316.226562 C 410.351562 367.300781 451.917969 408.703125 503.191406 408.703125 C 554.464844 408.703125 596.03125 367.300781 596.03125 316.226562 C 596.03125 265.152344 554.464844 223.746094 503.191406 223.746094 Z M 503.191406 223.746094 " clip-rule="nonzero"/></clipPath><clipPath id="f21399c3ae"><path d="M 437.050781 249.707031 L 570.613281 249.707031 L 570.613281 382.75 L 437.050781 382.75 Z M 437.050781 249.707031 " clip-rule="nonzero"/></clipPath><clipPath id="0d01c75549"><path d="M 503.832031 249.707031 C 466.953125 249.707031 437.050781 279.492188 437.050781 316.230469 C 437.050781 352.96875 466.953125 382.75 503.832031 382.75 C 540.714844 382.75 570.613281 352.96875 570.613281 316.230469 C 570.613281 279.492188 540.714844 249.707031 503.832031 249.707031 Z M 503.832031 249.707031 " clip-rule="nonzero"/></clipPath><clipPath id="bd4dac4f11"><path d="M 437.058594 249.707031 L 570.554688 249.707031 L 570.554688 382.457031 L 437.058594 382.457031 Z M 437.058594 249.707031 " clip-rule="nonzero"/></clipPath><clipPath id="b9eb2a9bda"><path d="M 503.832031 249.707031 C 466.953125 249.707031 437.058594 279.488281 437.058594 316.222656 C 437.058594 352.960938 466.953125 382.738281 503.832031 382.738281 C 540.710938 382.738281 570.605469 352.960938 570.605469 316.222656 C 570.605469 279.488281 540.710938 249.707031 503.832031 249.707031 Z M 503.832031 249.707031 " clip-rule="nonzero"/></clipPath><clipPath id="525e0c1d9f"><path d="M 468.824219 259.019531 L 520.828125 259.019531 L 520.828125 310.824219 L 468.824219 310.824219 Z M 468.824219 259.019531 " clip-rule="nonzero"/></clipPath><clipPath id="b17382fce3"><path d="M 494.824219 259.019531 C 480.464844 259.019531 468.824219 270.617188 468.824219 284.921875 C 468.824219 299.226562 480.464844 310.824219 494.824219 310.824219 C 509.1875 310.824219 520.828125 299.226562 520.828125 284.921875 C 520.828125 270.617188 509.1875 259.019531 494.824219 259.019531 Z M 494.824219 259.019531 " clip-rule="nonzero"/></clipPath><clipPath id="016ebfaebe"><path d="M 468.824219 259.019531 L 520.574219 259.019531 L 520.574219 310.769531 L 468.824219 310.769531 Z M 468.824219 259.019531 " clip-rule="nonzero"/></clipPath><clipPath id="5d2661815d"><path d="M 494.820312 259.019531 C 480.460938 259.019531 468.824219 270.617188 468.824219 284.917969 C 468.824219 299.21875 480.460938 310.816406 494.820312 310.816406 C 509.179688 310.816406 520.820312 299.21875 520.820312 284.917969 C 520.820312 270.617188 509.179688 259.019531 494.820312 259.019531 Z M 494.820312 259.019531 " clip-rule="nonzero"/></clipPath><clipPath id="297960f234"><path d="M 458.664062 290.269531 L 484.726562 290.269531 L 484.726562 316.230469 L 458.664062 316.230469 Z M 458.664062 290.269531 " clip-rule="nonzero"/></clipPath><clipPath id="8e1ecf8809"><path d="M 471.695312 290.269531 C 464.5 290.269531 458.664062 296.082031 458.664062 303.25 C 458.664062 310.417969 464.5 316.230469 471.695312 316.230469 C 478.890625 316.230469 484.726562 310.417969 484.726562 303.25 C 484.726562 296.082031 478.890625 290.269531 471.695312 290.269531 Z M 471.695312 290.269531 " clip-rule="nonzero"/></clipPath><clipPath id="4955da9c08"><path d="M 458.664062 290.273438 L 484.914062 290.273438 L 484.914062 316.519531 L 458.664062 316.519531 Z M 458.664062 290.273438 " clip-rule="nonzero"/></clipPath><clipPath id="7446565102"><path d="M 471.691406 290.273438 C 464.496094 290.273438 458.664062 296.082031 458.664062 303.25 C 458.664062 310.414062 464.496094 316.222656 471.691406 316.222656 C 478.882812 316.222656 484.714844 310.414062 484.714844 303.25 C 484.714844 296.082031 478.882812 290.273438 471.691406 290.273438 Z M 471.691406 290.273438 " clip-rule="nonzero"/></clipPath><clipPath id="ef4f0513a5"><path d="M 184.90625 416.816406 L 218.0625 416.816406 L 218.0625 449.847656 L 184.90625 449.847656 Z M 184.90625 416.816406 " clip-rule="nonzero"/></clipPath><clipPath id="ae5e1c2f01"><path d="M 201.484375 416.816406 C 192.328125 416.816406 184.90625 424.210938 184.90625 433.332031 C 184.90625 442.453125 192.328125 449.847656 201.484375 449.847656 C 210.640625 449.847656 218.0625 442.453125 218.0625 433.332031 C 218.0625 424.210938 210.640625 416.816406 201.484375 416.816406 Z M 201.484375 416.816406 " clip-rule="nonzero"/></clipPath><clipPath id="eeeb28d3d7"><path d="M 184.90625 416.816406 L 217.90625 416.816406 L 217.90625 449.816406 L 184.90625 449.816406 Z M 184.90625 416.816406 " clip-rule="nonzero"/></clipPath><clipPath id="2c9adc0645"><path d="M 201.480469 416.816406 C 192.324219 416.816406 184.90625 424.210938 184.90625 433.328125 C 184.90625 442.449219 192.324219 449.839844 201.480469 449.839844 C 210.636719 449.839844 218.058594 442.449219 218.058594 433.328125 C 218.058594 424.210938 210.636719 416.816406 201.480469 416.816406 Z M 201.480469 416.816406 " clip-rule="nonzero"/></clipPath><clipPath id="30bbf72aff"><path d="M 591.433594 416.816406 L 624.59375 416.816406 L 624.59375 449.847656 L 591.433594 449.847656 Z M 591.433594 416.816406 " clip-rule="nonzero"/></clipPath><clipPath id="f9b45043f7"><path d="M 608.011719 416.816406 C 598.855469 416.816406 591.433594 424.210938 591.433594 433.332031 C 591.433594 442.453125 598.855469 449.847656 608.011719 449.847656 C 617.171875 449.847656 624.59375 442.453125 624.59375 433.332031 C 624.59375 424.210938 617.171875 416.816406 608.011719 416.816406 Z M 608.011719 416.816406 " clip-rule="nonzero"/></clipPath><clipPath id="7e0322ca12"><path d="M 591.433594 416.816406 L 624.433594 416.816406 L 624.433594 449.816406 L 591.433594 449.816406 Z M 591.433594 416.816406 " clip-rule="nonzero"/></clipPath><clipPath id="00579a86b0"><path d="M 608.007812 416.816406 C 598.855469 416.816406 591.433594 424.210938 591.433594 433.328125 C 591.433594 442.449219 598.855469 449.839844 608.007812 449.839844 C 617.164062 449.839844 624.585938 442.449219 624.585938 433.328125 C 624.585938 424.210938 617.164062 416.816406 608.007812 416.816406 Z M 608.007812 416.816406 " clip-rule="nonzero"/></clipPath><clipPath id="2352451018"><path d="M 49 330.136719 L 97 330.136719 L 97 533 L 49 533 Z M 49 330.136719 " clip-rule="nonzero"/></clipPath></defs><rect x="-81" width="972" fill="#ffffff" y="-80.999999" height="971.999992" fill-opacity="1"/><rect x="-81" width="972" fill="#ffffff" y="-80.999999" height="971.999992" fill-opacity="1"/><g clip-path="url(#d358627512)"><path fill="#000000" d="M 271.984375 333.699219 C 271.984375 335.574219 270.460938 337.097656 268.585938 337.097656 C 236.574219 337.097656 210.53125 363.144531 210.53125 395.15625 C 210.53125 397.03125 209.007812 398.554688 207.132812 398.554688 C 205.257812 398.554688 203.734375 397.03125 203.734375 395.15625 C 203.734375 386.402344 205.445312 377.910156 208.832031 369.910156 C 212.097656 362.1875 216.773438 355.253906 222.726562 349.300781 C 228.679688 343.347656 235.617188 338.675781 243.335938 335.40625 C 251.335938 332.023438 259.828125 330.308594 268.578125 330.308594 C 270.460938 330.304688 271.984375 331.824219 271.984375 333.699219 Z M 271.984375 333.699219 " fill-opacity="1" fill-rule="nonzero"/></g><g clip-path="url(#2527e9a914)"><g clip-path="url(#46dc433abd)"><path fill="#4db3e5" d="M 161.882812 393.058594 L 242.75 393.058594 L 242.75 473.609375 L 161.882812 473.609375 Z M 161.882812 393.058594 " fill-opacity="1" fill-rule="nonzero"/></g></g><g clip-path="url(#73c63e22eb)"><g clip-path="url(#afe7183f90)"><path stroke-linecap="butt" transform="matrix(0.75, 0, 0, 0.75, 161.885722, 393.058097)" fill="none" stroke-linejoin="miter" d="M 53.902374 0.000662299 C 24.131539 0.000662299 0.00132933 24.04233 0.00132933 53.693373 C 0.00132933 83.349625 24.131539 107.391293 53.902374 107.391293 C 83.673209 107.391293 107.808626 83.349625 107.808626 53.693373 C 107.808626 24.04233 83.673209 0.000662299 53.902374 0.000662299 Z M 53.902374 0.000662299 " stroke="#000000" stroke-width="10" stroke-opacity="1" stroke-miterlimit="4"/></g></g><g clip-path="url(#e156c780e4)"><path fill="#737373" d="M 192.390625 280.960938 L 210.578125 280.960938 L 210.578125 441.644531 L 192.390625 441.644531 Z M 192.390625 280.960938 " fill-opacity="1" fill-rule="nonzero"/></g><g clip-path="url(#64041b87a9)"><path stroke-linecap="butt" transform="matrix(0.75, 0, 0, 0.75, 192.389247, 280.970132)" fill="none" stroke-linejoin="miter" d="M 0.00183677 -0.00184302 L 24.251836 -0.00184302 L 24.251836 214.211696 L 0.00183677 214.211696 Z M 0.00183677 -0.00184302 " stroke="#000000" stroke-width="10" stroke-opacity="1" stroke-miterlimit="4"/></g><g clip-path="url(#5d7bd6ca93)"><g clip-path="url(#c83a7ba794)"><path fill="#4db3e5" d="M 567.582031 393.058594 L 648.445312 393.058594 L 648.445312 473.609375 L 567.582031 473.609375 Z M 567.582031 393.058594 " fill-opacity="1" fill-rule="nonzero"/></g></g><g clip-path="url(#ce6755e999)"><g clip-path="url(#02374efd2e)"><path stroke-linecap="butt" transform="matrix(0.75, 0, 0, 0.75, 567.582095, 393.058097)" fill="none" stroke-linejoin="miter" d="M 53.906168 0.000662299 C 24.135333 0.000662299 -0.0000849276 24.04233 -0.0000849276 53.693373 C -0.0000849276 83.349625 24.135333 107.391293 53.906168 107.391293 C 83.677003 107.391293 107.807212 83.349625 107.807212 53.693373 C 107.807212 24.04233 83.677003 0.000662299 53.906168 0.000662299 Z M 53.906168 0.000662299 " stroke="#000000" stroke-width="10" stroke-opacity="1" stroke-miterlimit="4"/></g></g><g clip-path="url(#ea2d3571f4)"><path fill="#000000" d="M 538.253906 333.699219 C 538.253906 335.574219 539.777344 337.097656 541.652344 337.097656 C 573.664062 337.097656 599.710938 363.144531 599.710938 395.15625 C 599.710938 397.03125 601.230469 398.554688 603.105469 398.554688 C 604.984375 398.554688 606.503906 397.03125 606.503906 395.15625 C 606.503906 386.402344 604.792969 377.910156 601.410156 369.910156 C 598.140625 362.1875 593.464844 355.253906 587.511719 349.300781 C 581.558594 343.347656 574.621094 338.675781 566.902344 335.40625 C 558.90625 332.023438 550.410156 330.308594 541.660156 330.308594 C 539.777344 330.304688 538.253906 331.824219 538.253906 333.699219 Z M 538.253906 333.699219 " fill-opacity="1" fill-rule="nonzero"/></g><g clip-path="url(#dd3dc658fb)"><path fill="#737373" d="M 598.917969 280.960938 L 617.109375 280.960938 L 617.109375 441.644531 L 598.917969 441.644531 Z M 598.917969 280.960938 " fill-opacity="1" fill-rule="nonzero"/></g><g clip-path="url(#c2c2b67ff3)"><path stroke-linecap="butt" transform="matrix(0.75, 0, 0, 0.75, 598.917981, 280.970132)" fill="none" stroke-linejoin="miter" d="M -0.0000168257 -0.00184302 L 24.249983 -0.00184302 L 24.249983 214.211696 L -0.0000168257 214.211696 Z M -0.0000168257 -0.00184302 " stroke="#000000" stroke-width="10" stroke-opacity="1" stroke-miterlimit="4"/></g><g clip-path="url(#0d29d938e7)"><g clip-path="url(#9756445db0)"><path fill="#000000" d="M 255.027344 195.800781 L 565.675781 195.800781 L 565.675781 456.769531 L 255.027344 456.769531 Z M 255.027344 195.800781 " fill-opacity="1" fill-rule="nonzero"/></g></g><g clip-path="url(#2dcafa5d38)"><g clip-path="url(#8a2248a5bc)"><path stroke-linecap="butt" transform="matrix(0.75, 0, 0, 0.75, 255.025479, 195.802949)" fill="none" stroke-linejoin="miter" d="M 207.096247 0.00231753 C 92.721241 0.00231753 0.00248677 77.892946 0.00248677 173.976285 C 0.00248677 270.054414 92.721241 347.945043 207.096247 347.945043 C 321.466045 347.945043 414.190008 270.054414 414.190008 173.976285 C 414.190008 77.892946 321.466045 0.00231753 207.096247 0.00231753 Z M 207.096247 0.00231753 " stroke="#000000" stroke-width="28" stroke-opacity="1" stroke-miterlimit="4"/></g></g><g clip-path="url(#4af87bf818)"><g clip-path="url(#e0a2f3e51a)"><path fill="#fbd100" d="M 255.027344 178.054688 L 565.675781 178.054688 L 565.675781 441.644531 L 255.027344 441.644531 Z M 255.027344 178.054688 " fill-opacity="1" fill-rule="nonzero"/></g></g><g clip-path="url(#8141e5e440)"><g clip-path="url(#4c7d7ad7c5)"><path stroke-linecap="butt" transform="matrix(0.75, 0, 0, 0.75, 255.025479, 178.05609)" fill="none" stroke-linejoin="miter" d="M 207.096247 -0.00187032 C 92.721241 -0.00187032 0.00248677 78.675217 0.00248677 175.722097 C 0.00248677 272.768977 92.721241 351.446064 207.096247 351.446064 C 321.466045 351.446064 414.190008 272.768977 414.190008 175.722097 C 414.190008 78.675217 321.466045 -0.00187032 207.096247 -0.00187032 Z M 207.096247 -0.00187032 " stroke="#000000" stroke-width="28" stroke-opacity="1" stroke-miterlimit="4"/></g></g><g clip-path="url(#94d53202a6)"><g clip-path="url(#fcd02f1d2c)"><g clip-path="url(#2931b4bd82)"><path fill="#000000" d="M 293.640625 161.949219 C 296.601562 149.574219 311.875 146.765625 322.523438 154.300781 C 332.582031 161.417969 333.339844 182.519531 316.109375 178.296875 C 312.484375 197.527344 321.023438 221.195312 334.894531 230.460938 C 337.171875 229.085938 337.703125 224.792969 340.875 225.246094 C 341.371094 228.980469 337.789062 233.335938 335.144531 235.671875 C 330.597656 239.699219 325.40625 240.710938 320.078125 242.996094 C 316.46875 241.03125 311.089844 244.160156 308.011719 240.523438 C 309.335938 236.8125 312.941406 238.335938 316.539062 238.066406 C 306.921875 220.539062 294.273438 194.847656 299.316406 174.046875 C 296.042969 172.039062 293.683594 167.316406 293.640625 161.949219 M 298.398438 161.804688 C 299.664062 165.144531 299.117188 167.722656 300.851562 170.335938 C 302.03125 172.109375 304.535156 172.324219 305.191406 174.597656 C 306.125 177.828125 303.769531 183.898438 304.050781 188.273438 C 305.085938 204.476562 312.222656 224.808594 322.3125 238.167969 C 326.359375 237.320312 328.59375 235.347656 331.332031 233.683594 C 326.988281 228.800781 322.234375 224.578125 318.695312 218.410156 C 316.085938 209.226562 309.320312 195.964844 310.445312 184.875 C 310.796875 181.429688 312.707031 178.472656 312.539062 175.292969 C 317.726562 174.898438 324.273438 173.886719 325.332031 168.496094 C 327.828125 155.777344 302.332031 146.789062 298.398438 161.804688 " fill-opacity="1" fill-rule="evenodd"/></g></g></g><g clip-path="url(#c0d43c8d51)"><g clip-path="url(#abeb9f7c09)"><g clip-path="url(#def8f611ef)"><path fill="#737373" d="M 325.332031 168.496094 C 324.273438 173.886719 317.726562 174.898438 312.539062 175.292969 C 312.707031 178.472656 310.796875 181.429688 310.445312 184.875 C 309.320312 195.964844 316.085938 209.226562 318.695312 218.410156 C 322.234375 224.578125 326.988281 228.800781 331.332031 233.683594 C 328.59375 235.347656 326.359375 237.320312 322.3125 238.167969 C 312.222656 224.808594 305.085938 204.476562 304.050781 188.273438 C 303.769531 183.898438 306.125 177.828125 305.191406 174.597656 C 304.535156 172.324219 302.03125 172.109375 300.851562 170.335938 C 299.117188 167.722656 299.664062 165.144531 298.398438 161.804688 C 302.332031 146.789062 327.828125 155.777344 325.332031 168.496094 M 313.191406 163.648438 C 311.75 164.039062 311.429688 165.136719 312.003906 166.796875 C 310.058594 166.738281 308.597656 166.953125 309.246094 169.347656 C 310.628906 170.308594 313.238281 168.25 311.65625 167.355469 C 313.320312 166.351562 312.929688 168.636719 314.59375 167.632812 C 315.269531 166.367188 314.25 164.039062 313.191406 163.648438 " fill-opacity="1" fill-rule="evenodd"/></g></g></g><g clip-path="url(#ffa5a73f3c)"><g clip-path="url(#8cf333ef7d)"><g clip-path="url(#35c8ad7883)"><path fill="#737373" d="M 449.320312 133.070312 C 455.320312 137.082031 453.632812 143.609375 451.777344 147.828125 C 453.746094 150.300781 456.828125 152.597656 458.433594 155.867188 C 465.199219 169.683594 465.671875 197.589844 460.332031 209.546875 C 458.597656 213.429688 454.582031 215.265625 453.378906 218.820312 C 450.316406 218.746094 447.929688 217.585938 445.613281 216.308594 C 446.167969 209.175781 451.414062 203.78125 452.203125 195.144531 C 453.429688 181.757812 450.414062 163.605469 444.683594 152.34375 C 440.660156 153.378906 438.601562 154.316406 434.683594 154.664062 C 422.679688 145.589844 435.242188 128.320312 449.320312 133.070312 M 447.929688 141.535156 L 446.5625 141.851562 C 445.957031 142.972656 445.730469 145.714844 446.707031 146.609375 C 449.636719 146.398438 449.214844 143.226562 447.929688 141.535156 M 442.195312 145.734375 C 442.117188 147.109375 443.109375 146.765625 443.175781 147.902344 C 446.429688 147.304688 444.3125 143.417969 442.195312 145.734375 " fill-opacity="1" fill-rule="evenodd"/></g></g></g><g clip-path="url(#51da095e03)"><g clip-path="url(#0378edb656)"><g clip-path="url(#e0cb9bdd01)"><path fill="#000000" d="M 313.191406 163.648438 C 311.75 164.039062 311.429688 165.136719 312.003906 166.796875 C 310.058594 166.738281 308.597656 166.953125 309.246094 169.347656 C 310.628906 170.308594 313.238281 168.25 311.65625 167.355469 C 313.320312 166.351562 312.929688 168.636719 314.59375 167.632812 C 315.269531 166.367188 314.25 164.039062 313.191406 163.648438 " fill-opacity="1" fill-rule="evenodd"/></g></g></g><g clip-path="url(#164b446b39)"><g clip-path="url(#2179bac905)"><g clip-path="url(#304c53cedb)"><path fill="#000000" d="M 447.929688 141.535156 L 446.5625 141.851562 C 445.957031 142.972656 445.730469 145.710938 446.707031 146.605469 C 449.636719 146.398438 449.214844 143.226562 447.929688 141.535156 " fill-opacity="1" fill-rule="evenodd"/></g></g></g><g clip-path="url(#9248cc6127)"><g clip-path="url(#ffae212cb8)"><g clip-path="url(#6e7a026766)"><path fill="#000000" d="M 442.195312 145.734375 C 442.117188 147.109375 443.109375 146.765625 443.175781 147.902344 C 446.429688 147.304688 444.308594 143.417969 442.195312 145.734375 " fill-opacity="1" fill-rule="evenodd"/></g></g></g><g clip-path="url(#027f5e668a)"><g clip-path="url(#e0836edf4f)"><g clip-path="url(#a0f50e2086)"><g clip-path="url(#9c429504fa)"><g clip-path="url(#0aff1326e3)"><path fill="#000000" d="M 428.320312 156.136719 C 417.101562 140.535156 437.257812 123.625 450.960938 129.8125 C 456.6875 132.402344 458.246094 140.34375 456.433594 147.226562 C 463.085938 155.554688 467.351562 166.292969 468.699219 177.433594 C 470.597656 193.15625 464.082031 207.523438 460.164062 219.164062 C 462.835938 218.628906 464.339844 217.363281 467.332031 217.023438 C 469.613281 221.648438 463.601562 222.535156 460.097656 223.011719 C 448.574219 224.582031 441.640625 220.292969 436.621094 212.644531 C 436.613281 209.785156 433.347656 204.898438 435.984375 203.691406 C 438.902344 204.625 438.523438 210.847656 442.320312 210.367188 C 452.613281 198.160156 450.09375 171.367188 440.074219 157.246094 C 434.742188 159.140625 431.164062 158.226562 428.320312 156.136719 M 434.683594 154.660156 C 438.601562 154.316406 440.660156 153.378906 444.683594 152.34375 C 450.414062 163.601562 453.429688 181.757812 452.203125 195.144531 C 451.414062 203.78125 446.167969 209.175781 445.613281 216.308594 C 447.929688 217.582031 450.316406 218.746094 453.378906 218.820312 C 454.582031 215.265625 458.597656 213.429688 460.332031 209.546875 C 465.675781 197.589844 465.203125 169.679688 458.433594 155.863281 C 456.828125 152.597656 453.746094 150.300781 451.78125 147.828125 C 453.632812 143.605469 455.320312 137.082031 449.320312 133.066406 C 435.242188 128.320312 422.679688 145.589844 434.683594 154.660156 " fill-opacity="1" fill-rule="evenodd"/></g></g></g></g></g><g clip-path="url(#3ad361fe53)"><g clip-path="url(#f4e8175979)"><g clip-path="url(#f4296ebc48)"><path fill="#fbd100" d="M 79.882812 209.339844 L 332.265625 253.6875 L 316.105469 345.648438 L 63.722656 301.300781 Z M 79.882812 209.339844 " fill-opacity="1" fill-rule="nonzero"/></g></g></g><g clip-path="url(#ea721271da)"><g clip-path="url(#65f069b5f0)"><g clip-path="url(#b5f74290e9)"><g clip-path="url(#b48dcfb416)"><path stroke-linecap="butt" transform="matrix(0.73872, 0.129585, -0.129585, 0.73872, 63.385107, 203.537734)" fill="none" stroke-linejoin="miter" d="M 181.979023 0.00217161 C 81.47703 -0.00295994 0.00182889 30.142288 -0.00142416 67.321811 C 0.000452798 104.500435 81.475366 134.642145 181.981589 134.641247 C 282.482681 134.641249 363.958783 104.501131 363.956906 67.322507 C 363.959259 30.137854 282.485246 0.00127326 181.979023 0.00217161 Z M 181.979023 0.00217161 " stroke="#000000" stroke-width="20" stroke-opacity="1" stroke-miterlimit="4"/></g></g></g></g><g clip-path="url(#242a1943b5)"><g clip-path="url(#6c3ae67667)"><g clip-path="url(#0c0b889e89)"><path fill="#fbd100" d="M 456.863281 271.199219 L 720.300781 199.625 L 744.78125 289.726562 L 481.34375 361.300781 Z M 456.863281 271.199219 " fill-opacity="1" fill-rule="nonzero"/></g></g></g><g clip-path="url(#aeac142de4)"><g clip-path="url(#b2744cbecd)"><g clip-path="url(#2c4bc1aee5)"><g clip-path="url(#f362230626)"><path stroke-linecap="butt" transform="matrix(0.723762, -0.196642, 0.196642, 0.723762, 474.155284, 262.527693)" fill="none" stroke-linejoin="miter" d="M 181.977306 -0.00158516 C 81.475995 0.00236478 -0.000700349 30.142382 0.00217296 67.318698 C -0.00134543 104.498675 81.47761 134.639985 181.977556 134.641061 C 282.483893 134.638476 363.960588 104.498459 363.957715 67.322143 C 363.956207 30.140801 282.482278 0.00085659 181.977306 -0.00158516 Z M 181.977306 -0.00158516 " stroke="#000000" stroke-width="28" stroke-opacity="1" stroke-miterlimit="4"/></g></g></g></g><g clip-path="url(#646f59259d)"><g clip-path="url(#2ee1ed5e1c)"><path fill="#4db3e5" d="M 215.195312 251.363281 L 402.617188 251.363281 L 402.617188 381.097656 L 215.195312 381.097656 Z M 215.195312 251.363281 " fill-opacity="1" fill-rule="nonzero"/></g></g><g clip-path="url(#76aaa6643b)"><g clip-path="url(#775aa4030a)"><path stroke-linecap="butt" transform="matrix(0.75, 0, 0, 0.75, 215.200716, 251.361483)" fill="none" stroke-linejoin="miter" d="M 124.940718 0.00239826 C 55.935507 0.00239826 -0.00199616 38.72115 -0.00199616 86.486778 C -0.00199616 134.247197 55.935507 172.971157 124.940718 172.971157 C 193.940722 172.971157 249.878225 134.247197 249.878225 86.486778 C 249.878225 38.72115 193.940722 0.00239826 124.940718 0.00239826 Z M 124.940718 0.00239826 " stroke="#000000" stroke-width="10" stroke-opacity="1" stroke-miterlimit="4"/></g></g><g clip-path="url(#9bab97870a)"><g clip-path="url(#c7da1be3b6)"><path fill="#ffffff" d="M 234.355469 264.621094 L 383.460938 264.621094 L 383.460938 367.835938 L 234.355469 367.835938 Z M 234.355469 264.621094 " fill-opacity="1" fill-rule="nonzero"/></g></g><g clip-path="url(#71f874b97e)"><g clip-path="url(#b744e79f7b)"><path fill="#4db3e5" d="M 286.109375 264.621094 L 389.726562 264.621094 L 389.726562 367.835938 L 286.109375 367.835938 Z M 286.109375 264.621094 " fill-opacity="1" fill-rule="nonzero"/></g></g><g clip-path="url(#b46642d6a2)"><g clip-path="url(#310d947fb6)"><path fill="#000000" d="M 301.011719 279.109375 L 375.542969 279.109375 L 375.542969 353.351562 L 301.011719 353.351562 Z M 301.011719 279.109375 " fill-opacity="1" fill-rule="nonzero"/></g></g><g clip-path="url(#b0051ee839)"><g clip-path="url(#f3d7e84521)"><path stroke-linecap="butt" transform="matrix(0.75, 0, 0, 0.75, 301.011814, 279.113063)" fill="none" stroke-linejoin="miter" d="M 49.682164 0.000291322 C 22.244664 0.000291322 -0.000126942 22.156541 -0.000126942 49.484666 C -0.000126942 76.817999 22.244664 98.974248 49.682164 98.974248 C 77.114455 98.974248 99.359247 76.817999 99.359247 49.484666 C 99.359247 22.156541 77.114455 0.000291322 49.682164 0.000291322 Z M 49.682164 0.000291322 " stroke="#000000" stroke-width="22" stroke-opacity="1" stroke-miterlimit="4"/></g></g><g clip-path="url(#3df9da53d9)"><g clip-path="url(#6941ea76cd)"><path fill="#ffffff" d="M 318.738281 284.304688 L 347.761719 284.304688 L 347.761719 313.214844 L 318.738281 313.214844 Z M 318.738281 284.304688 " fill-opacity="1" fill-rule="nonzero"/></g></g><g clip-path="url(#2157f2f24d)"><g clip-path="url(#cac0b0d1e2)"><path stroke-linecap="butt" transform="matrix(0.75, 0, 0, 0.75, 318.742252, 284.30485)" fill="none" stroke-linejoin="miter" d="M 19.338456 -0.000217329 C 8.661372 -0.000217329 -0.0000863527 8.624783 -0.0000863527 19.265409 C -0.0000863527 29.906034 8.661372 38.531035 19.338456 38.531035 C 30.020748 38.531035 38.682207 29.906034 38.682207 19.265409 C 38.682207 8.624783 30.020748 -0.000217329 19.338456 -0.000217329 Z M 19.338456 -0.000217329 " stroke="#000000" stroke-width="10" stroke-opacity="1" stroke-miterlimit="4"/></g></g><g clip-path="url(#0c4cebe41c)"><g clip-path="url(#fa8325587c)"><path fill="#ffffff" d="M 313.070312 301.742188 L 327.613281 301.742188 L 327.613281 316.230469 L 313.070312 316.230469 Z M 313.070312 301.742188 " fill-opacity="1" fill-rule="nonzero"/></g></g><g clip-path="url(#33bd7fa190)"><g clip-path="url(#9debe6c41c)"><path stroke-linecap="butt" transform="matrix(0.75, 0, 0, 0.75, 313.072106, 301.74815)" fill="none" stroke-linejoin="miter" d="M 9.685109 0.00246611 C 4.33615 0.00246611 -0.00239153 4.320175 -0.00239153 9.6483 C -0.00239153 14.981634 4.33615 19.299342 9.685109 19.299342 C 15.039276 19.299342 19.372609 14.981634 19.372609 9.6483 C 19.372609 4.320175 15.039276 0.00246611 9.685109 0.00246611 Z M 9.685109 0.00246611 " stroke="#000000" stroke-width="10" stroke-opacity="1" stroke-miterlimit="4"/></g></g><g clip-path="url(#1fda339c98)"><g clip-path="url(#18667b7fe0)"><path fill="#4db3e5" d="M 410.351562 223.746094 L 596.035156 223.746094 L 596.035156 408.710938 L 410.351562 408.710938 Z M 410.351562 223.746094 " fill-opacity="1" fill-rule="nonzero"/></g></g><g clip-path="url(#edb923a60a)"><g clip-path="url(#8e1eede0c9)"><path stroke-linecap="butt" transform="matrix(0.75, 0, 0, 0.75, 410.352895, 223.747934)" fill="none" stroke-linejoin="miter" d="M 123.784688 -0.00245306 C 55.420101 -0.00245306 -0.00177647 55.205883 -0.00177647 123.304845 C -0.00177647 191.403807 55.420101 246.606934 123.784688 246.606934 C 192.149275 246.606934 247.571153 191.403807 247.571153 123.304845 C 247.571153 55.205883 192.149275 -0.00245306 123.784688 -0.00245306 Z M 123.784688 -0.00245306 " stroke="#000000" stroke-width="10" stroke-opacity="1" stroke-miterlimit="4"/></g></g><g clip-path="url(#f21399c3ae)"><g clip-path="url(#0d01c75549)"><path fill="#000000" d="M 437.050781 249.707031 L 570.613281 249.707031 L 570.613281 382.75 L 437.050781 382.75 Z M 437.050781 249.707031 " fill-opacity="1" fill-rule="nonzero"/></g></g><g clip-path="url(#bd4dac4f11)"><g clip-path="url(#b9eb2a9bda)"><path stroke-linecap="butt" transform="matrix(0.75, 0, 0, 0.75, 437.056854, 249.708317)" fill="none" stroke-linejoin="miter" d="M 89.033575 -0.00171438 C 39.861697 -0.00171438 0.00232032 39.706621 0.00232032 88.68579 C 0.00232032 137.670168 39.861697 177.373295 89.033575 177.373295 C 138.205452 177.373295 178.064829 137.670168 178.064829 88.68579 C 178.064829 39.706621 138.205452 -0.00171438 89.033575 -0.00171438 Z M 89.033575 -0.00171438 " stroke="#000000" stroke-width="12" stroke-opacity="1" stroke-miterlimit="4"/></g></g><g clip-path="url(#525e0c1d9f)"><g clip-path="url(#b17382fce3)"><path fill="#ffffff" d="M 468.824219 259.019531 L 520.828125 259.019531 L 520.828125 310.824219 L 468.824219 310.824219 Z M 468.824219 259.019531 " fill-opacity="1" fill-rule="nonzero"/></g></g><g clip-path="url(#016ebfaebe)"><g clip-path="url(#5d2661815d)"><path stroke-linecap="butt" transform="matrix(0.75, 0, 0, 0.75, 468.822316, 259.021121)" fill="none" stroke-linejoin="miter" d="M 34.663997 -0.00211909 C 15.518163 -0.00211909 0.00253711 15.461423 0.00253711 34.529133 C 0.00253711 53.596842 15.518163 69.060384 34.663997 69.060384 C 53.809831 69.060384 69.330666 53.596842 69.330666 34.529133 C 69.330666 15.461423 53.809831 -0.00211909 34.663997 -0.00211909 Z M 34.663997 -0.00211909 " stroke="#000000" stroke-width="10" stroke-opacity="1" stroke-miterlimit="4"/></g></g><g clip-path="url(#297960f234)"><g clip-path="url(#8e1ecf8809)"><path fill="#ffffff" d="M 458.664062 290.269531 L 484.726562 290.269531 L 484.726562 316.230469 L 458.664062 316.230469 Z M 458.664062 290.269531 " fill-opacity="1" fill-rule="nonzero"/></g></g><g clip-path="url(#4955da9c08)"><g clip-path="url(#7446565102)"><path stroke-linecap="butt" transform="matrix(0.75, 0, 0, 0.75, 458.665108, 290.273794)" fill="none" stroke-linejoin="miter" d="M 17.368398 -0.000475596 C 7.774647 -0.000475596 -0.00139457 7.744316 -0.00139457 17.301609 C -0.00139457 26.853692 7.774647 34.598484 17.368398 34.598484 C 26.95694 34.598484 34.732982 26.853692 34.732982 17.301609 C 34.732982 7.744316 26.95694 -0.000475596 17.368398 -0.000475596 Z M 17.368398 -0.000475596 " stroke="#000000" stroke-width="10" stroke-opacity="1" stroke-miterlimit="4"/></g></g><g clip-path="url(#ef4f0513a5)"><g clip-path="url(#ae5e1c2f01)"><path fill="#fbd100" d="M 184.90625 416.816406 L 218.0625 416.816406 L 218.0625 449.847656 L 184.90625 449.847656 Z M 184.90625 416.816406 " fill-opacity="1" fill-rule="nonzero"/></g></g><g clip-path="url(#eeeb28d3d7)"><g clip-path="url(#2c9adc0645)"><path stroke-linecap="butt" transform="matrix(0.75, 0, 0, 0.75, 184.904394, 416.817383)" fill="none" stroke-linejoin="miter" d="M 22.101434 -0.00130237 C 9.8931 -0.00130237 0.0024744 9.858073 0.0024744 22.014324 C 0.0024744 34.175783 9.8931 44.02995 22.101434 44.02995 C 34.309768 44.02995 44.205602 34.175783 44.205602 22.014324 C 44.205602 9.858073 34.309768 -0.00130237 22.101434 -0.00130237 Z M 22.101434 -0.00130237 " stroke="#000000" stroke-width="10" stroke-opacity="1" stroke-miterlimit="4"/></g></g><g clip-path="url(#30bbf72aff)"><g clip-path="url(#f9b45043f7)"><path fill="#fbd100" d="M 591.433594 416.816406 L 624.59375 416.816406 L 624.59375 449.847656 L 591.433594 449.847656 Z M 591.433594 416.816406 " fill-opacity="1" fill-rule="nonzero"/></g></g><g clip-path="url(#7e0322ca12)"><g clip-path="url(#00579a86b0)"><path stroke-linecap="butt" transform="matrix(0.75, 0, 0, 0.75, 591.433102, 416.817383)" fill="none" stroke-linejoin="miter" d="M 22.099615 -0.00130237 C 9.89649 -0.00130237 0.000656006 9.858073 0.000656006 22.014324 C 0.000656006 34.175783 9.89649 44.02995 22.099615 44.02995 C 34.307949 44.02995 44.203783 34.175783 44.203783 22.014324 C 44.203783 9.858073 34.307949 -0.00130237 22.099615 -0.00130237 Z M 22.099615 -0.00130237 " stroke="#000000" stroke-width="10" stroke-opacity="1" stroke-miterlimit="4"/></g></g><path fill="#fbd100" d="M 146.78125 475.636719 C 148.457031 477.3125 150.804688 477.3125 152.480469 475.636719 C 153.152344 474.96875 153.488281 473.960938 153.488281 472.957031 C 153.488281 471.949219 153.152344 470.945312 152.480469 470.273438 C 130.351562 448.144531 130.351562 414.953125 152.480469 392.824219 C 154.160156 391.144531 154.160156 388.800781 152.480469 387.121094 C 150.804688 385.445312 148.457031 385.445312 146.78125 387.121094 C 121.636719 412.269531 121.636719 450.492188 146.78125 475.636719 Z M 146.78125 475.636719 " fill-opacity="1" fill-rule="nonzero"/><g clip-path="url(#2352451018)"><path fill="#fbd100" d="M 89.113281 531.296875 C 90.453125 532.972656 93.136719 533.308594 94.8125 531.964844 C 95.820312 531.296875 96.15625 529.953125 96.15625 528.949219 C 96.15625 527.941406 95.820312 527.273438 95.148438 526.601562 C 11.996094 424.675781 91.460938 340.855469 94.8125 337.5 C 96.488281 335.824219 96.15625 333.476562 94.8125 331.800781 C 93.136719 330.125 90.789062 330.460938 89.113281 331.800781 C 88.441406 332.472656 1.269531 424.003906 89.113281 531.296875 Z M 89.113281 531.296875 " fill-opacity="1" fill-rule="nonzero"/></g><path fill="#fbd100" d="M 117.277344 505.476562 C 118.953125 507.15625 121.300781 507.15625 122.976562 505.476562 C 123.648438 504.808594 123.984375 503.800781 123.984375 502.796875 C 123.984375 501.789062 123.648438 500.785156 122.976562 500.113281 C 86.429688 463.566406 86.097656 399.527344 122.640625 362.984375 C 124.316406 361.304688 124.316406 358.960938 122.640625 357.28125 C 120.964844 355.605469 118.617188 355.605469 116.941406 357.28125 C 77.378906 396.847656 77.714844 465.914062 117.277344 505.476562 Z M 117.277344 505.476562 " fill-opacity="1" fill-rule="nonzero"/><path fill="#fbd100" d="M 663.457031 477.253906 C 661.78125 478.929688 659.433594 478.929688 657.757812 477.253906 C 657.085938 476.582031 656.75 475.578125 656.75 474.570312 C 656.75 473.566406 657.085938 472.558594 657.757812 471.890625 C 679.886719 449.761719 679.886719 416.566406 657.757812 394.4375 C 656.082031 392.761719 656.082031 390.414062 657.757812 388.738281 C 659.433594 387.0625 661.78125 387.0625 663.457031 388.738281 C 688.601562 413.882812 688.601562 452.105469 663.457031 477.253906 Z M 663.457031 477.253906 " fill-opacity="1" fill-rule="nonzero"/><path fill="#fbd100" d="M 721.125 532.910156 C 719.785156 534.585938 717.101562 534.921875 715.425781 533.582031 C 714.421875 532.910156 714.085938 531.570312 714.085938 530.5625 C 714.085938 529.558594 714.421875 528.886719 715.089844 528.214844 C 798.242188 426.289062 718.777344 342.46875 715.425781 339.117188 C 713.75 337.441406 714.085938 335.09375 715.425781 333.417969 C 717.101562 331.738281 719.449219 332.074219 721.125 333.417969 C 721.796875 334.085938 808.96875 425.621094 721.125 532.910156 Z M 721.125 532.910156 " fill-opacity="1" fill-rule="nonzero"/><path fill="#fbd100" d="M 692.960938 507.09375 C 691.285156 508.769531 688.9375 508.769531 687.261719 507.09375 C 686.59375 506.421875 686.257812 505.417969 686.257812 504.410156 C 686.257812 503.40625 686.59375 502.398438 687.261719 501.730469 C 723.808594 465.183594 724.144531 401.144531 687.597656 364.597656 C 685.921875 362.921875 685.921875 360.574219 687.597656 358.898438 C 689.273438 357.222656 691.621094 357.222656 693.296875 358.898438 C 732.859375 398.460938 732.527344 467.53125 692.960938 507.09375 Z M 692.960938 507.09375 " fill-opacity="1" fill-rule="nonzero"/><path stroke-linecap="butt" transform="matrix(0.75, 0, 0, 0.75, 162.267843, 458.936421)" fill="none" stroke-linejoin="miter" d="M 154.148093 195.355615 C 154.148093 202.074366 152.747051 208.308741 149.950176 214.06395 C 147.194967 219.7827 143.434551 224.980617 138.679342 229.6577 C 133.960592 234.293117 128.444966 238.371242 122.127258 241.886868 C 115.809549 245.407701 109.174132 248.366035 102.221007 250.761868 C 95.262673 253.121243 88.127256 254.923327 80.814756 256.16291 C 73.538714 257.360827 66.559547 257.959785 59.887671 257.959785 C 53.809546 257.959785 48.153296 257.480618 42.91892 256.522285 C 50.793921 227.855617 57.049129 198.99624 61.684546 169.933739 C 66.36163 140.871238 70.819964 111.610819 75.054339 82.147276 C 83.569964 80.350401 92.408506 78.751443 101.559548 77.350401 C 110.757466 75.949359 120.267883 75.251443 130.101216 75.251443 C 134.179342 75.251443 138.517884 75.751443 143.116842 76.751443 C 147.710592 77.709776 151.887676 79.506651 155.648093 82.147276 C 159.403301 84.746235 162.543926 88.183735 165.059552 92.459777 C 167.622052 96.69936 168.898093 102.095194 168.898093 108.652486 C 168.898093 114.886861 167.882468 120.70457 165.840802 126.100403 C 163.804343 131.496237 161.184551 136.412904 157.986635 140.850404 C 154.788718 145.246238 151.132468 149.048321 147.012676 152.246238 C 142.93455 155.444155 138.7783 157.860822 134.538717 159.501447 C 136.658508 160.657697 138.856425 162.298322 141.137675 164.418114 C 143.455384 166.532697 145.596009 169.032697 147.554342 171.912906 C 149.512676 174.751448 151.090801 178.147281 152.288718 182.105615 C 153.528301 186.022281 154.148093 190.438948 154.148093 195.355615 Z M 97.903298 169.813947 C 97.262673 173.730614 96.642881 177.209781 96.043923 180.24624 C 95.486631 183.282698 94.965798 186.204573 94.486631 189.001448 C 94.007465 191.761865 93.465798 194.657699 92.86684 197.694157 C 92.30434 200.735824 91.705381 204.293116 91.064756 208.371241 C 94.184548 208.048324 97.705382 207.491033 101.622048 206.688949 C 105.538715 205.850407 109.293924 204.574366 112.892882 202.855616 C 116.491841 201.131657 119.507466 198.834782 121.950174 195.959782 C 124.424133 193.079573 125.663716 189.600407 125.663716 185.522281 C 125.663716 182.563948 124.887675 180.105615 123.325174 178.147281 C 121.767883 176.188948 119.809549 174.548323 117.450174 173.230614 C 115.090799 171.912906 112.512674 170.970197 109.715799 170.412906 C 106.918924 169.855614 104.299132 169.574364 101.861632 169.574364 C 101.02309 169.574364 100.319965 169.574364 99.762673 169.574364 C 99.200173 169.574364 98.580382 169.652489 97.903298 169.813947 Z M 108.997049 110.392069 C 108.674132 112.188944 108.293924 114.32957 107.856424 116.803528 C 107.455382 119.246236 106.997049 121.824362 106.476215 124.543112 C 105.997049 127.220195 105.476215 129.876445 104.918924 132.51707 C 104.356424 135.116029 103.918924 137.392071 103.601215 139.350404 C 107.194965 138.709779 110.793924 137.813946 114.392882 136.652487 C 117.991841 135.496237 121.210591 134.235821 124.049133 132.876445 C 126.924133 131.475404 129.226216 129.959779 130.944967 128.319154 C 132.663717 126.678528 133.523092 124.881653 133.523092 122.92332 C 133.523092 120.444153 132.783508 118.42332 131.304342 116.866028 C 129.861633 115.308736 127.944966 114.04832 125.543925 113.089986 C 123.189758 112.089986 120.731424 111.386861 118.168924 110.991028 C 115.653299 110.589986 113.413716 110.392069 111.455382 110.392069 Z M 298.080392 247.168118 C 296.637683 247.168118 293.538725 247.246243 288.783516 247.407701 C 284.028308 247.563951 278.408516 247.824368 271.934557 248.183743 C 265.460598 248.50666 258.460598 248.902493 250.944973 249.386868 C 243.429347 249.866035 236.054347 250.402493 228.819971 251.001451 C 221.627263 251.563951 214.950179 252.183743 208.793929 252.860827 C 202.674137 253.501452 197.81997 254.142077 194.221011 254.782702 L 194.460595 218.923325 L 264.200182 123.881653 C 261.398098 123.881653 257.460598 124.178528 252.387681 124.782695 C 247.351222 125.339987 242.23143 125.938945 237.033514 126.57957 C 231.877263 127.220195 227.41893 127.876445 223.663721 128.558737 L 217.788721 129.037904 L 222.465804 90.48061 L 322.90331 83.345193 L 316.549143 117.225403 L 249.450181 212.569158 C 252.726223 212.569158 257.101223 212.407699 262.58039 212.089991 C 268.096015 211.725408 273.793932 211.386866 279.668932 211.069158 C 285.585599 210.746241 291.981433 210.350408 298.856433 209.871241 Z M 447.903316 247.168118 C 446.460607 247.168118 443.366857 247.246243 438.60644 247.407701 C 433.851232 247.563951 428.23144 247.824368 421.757481 248.183743 C 415.283523 248.50666 408.283522 248.902493 400.767897 249.386868 C 393.25748 249.866035 385.877271 250.402493 378.642896 251.001451 C 371.450187 251.563951 364.773103 252.183743 358.616853 252.860827 C 352.502269 253.501452 347.642894 254.142077 344.043936 254.782702 L 344.283519 218.923325 L 414.023106 123.881653 C 411.226231 123.881653 407.28873 124.178528 402.210605 124.782695 C 397.174147 125.339987 392.054355 125.938945 386.856438 126.57957 C 381.700187 127.220195 377.247062 127.876445 373.486645 128.558737 L 367.611645 129.037904 L 372.288729 90.48061 L 472.726234 83.345193 L 466.372067 117.225403 L 399.273105 212.569158 C 402.549147 212.569158 406.924147 212.407699 412.403314 212.089991 C 417.918939 211.725408 423.616856 211.386866 429.491857 211.069158 C 435.408524 210.746241 441.804357 210.350408 448.679358 209.871241 Z M 597.72624 247.168118 C 596.283532 247.168118 593.189781 247.246243 588.429365 247.407701 C 583.674156 247.563951 578.059572 247.824368 571.580405 248.183743 C 565.106447 248.50666 558.111655 248.902493 550.596029 249.386868 C 543.080404 249.866035 535.705404 250.402493 528.46582 251.001451 C 521.273111 251.563951 514.596028 252.183743 508.439777 252.860827 C 502.325194 253.501452 497.465818 254.142077 493.86686 254.782702 L 494.106443 218.923325 L 563.84603 123.881653 C 561.049155 123.881653 557.111655 124.178528 552.033529 124.782695 C 546.997071 125.339987 541.877279 125.938945 536.68457 126.57957 C 531.523112 127.220195 527.069986 127.876445 523.30957 128.558737 L 517.434569 129.037904 L 522.111653 90.48061 L 622.549158 83.345193 L 616.194991 117.225403 L 549.096029 212.569158 C 552.372071 212.569158 556.75228 212.407699 562.226238 212.089991 C 567.741864 211.725408 573.43978 211.386866 579.314781 211.069158 C 585.231448 210.746241 591.627281 210.350408 598.502282 209.871241 Z M 597.72624 247.168118 " stroke="#000000" stroke-width="33.772614" stroke-opacity="1" stroke-miterlimit="4"/><g fill="#4db3e5" fill-opacity="1"><g transform="translate(194.635028, 651.686411)"><g><path d="M 83.265625 -46.234375 C 83.265625 -41.203125 82.21875 -36.535156 80.125 -32.234375 C 78.039062 -27.929688 75.21875 -24.03125 71.65625 -20.53125 C 68.09375 -17.03125 63.945312 -13.960938 59.21875 -11.328125 C 54.488281 -8.691406 49.515625 -6.484375 44.296875 -4.703125 C 39.078125 -2.921875 33.734375 -1.566406 28.265625 -0.640625 C 22.804688 0.273438 17.5625 0.734375 12.53125 0.734375 C 7.976562 0.734375 3.738281 0.363281 -0.1875 -0.375 C 5.707031 -21.863281 10.40625 -43.503906 13.90625 -65.296875 C 17.40625 -87.097656 20.753906 -109.050781 23.953125 -131.15625 C 30.335938 -132.5 36.96875 -133.691406 43.84375 -134.734375 C 50.71875 -135.785156 57.835938 -136.3125 65.203125 -136.3125 C 68.273438 -136.3125 71.53125 -135.941406 74.96875 -135.203125 C 78.40625 -134.460938 81.535156 -133.109375 84.359375 -131.140625 C 87.191406 -129.179688 89.554688 -126.601562 91.453125 -123.40625 C 93.359375 -120.21875 94.3125 -116.171875 94.3125 -111.265625 C 94.3125 -106.597656 93.539062 -102.238281 92 -98.1875 C 90.46875 -94.132812 88.503906 -90.445312 86.109375 -87.125 C 83.710938 -83.8125 80.976562 -80.957031 77.90625 -78.5625 C 74.84375 -76.164062 71.71875 -74.351562 68.53125 -73.125 C 70.125 -72.269531 71.78125 -71.039062 73.5 -69.4375 C 75.21875 -67.84375 76.8125 -65.972656 78.28125 -63.828125 C 79.757812 -61.679688 80.957031 -59.132812 81.875 -56.1875 C 82.800781 -53.238281 83.265625 -49.921875 83.265625 -46.234375 Z M 41.078125 -65.390625 C 40.585938 -62.441406 40.125 -59.832031 39.6875 -57.5625 C 39.257812 -55.289062 38.863281 -53.109375 38.5 -51.015625 C 38.132812 -48.929688 37.734375 -46.753906 37.296875 -44.484375 C 36.867188 -42.210938 36.410156 -39.539062 35.921875 -36.46875 C 38.253906 -36.71875 40.894531 -37.148438 43.84375 -37.765625 C 46.789062 -38.378906 49.613281 -39.328125 52.3125 -40.609375 C 55.007812 -41.898438 57.28125 -43.617188 59.125 -45.765625 C 60.96875 -47.921875 61.890625 -50.535156 61.890625 -53.609375 C 61.890625 -55.816406 61.304688 -57.65625 60.140625 -59.125 C 58.972656 -60.601562 57.5 -61.832031 55.71875 -62.8125 C 53.9375 -63.789062 52 -64.492188 49.90625 -64.921875 C 47.820312 -65.359375 45.863281 -65.578125 44.03125 -65.578125 C 43.414062 -65.578125 42.890625 -65.578125 42.453125 -65.578125 C 42.023438 -65.578125 41.566406 -65.515625 41.078125 -65.390625 Z M 49.359375 -109.96875 C 49.117188 -108.613281 48.84375 -107.015625 48.53125 -105.171875 C 48.226562 -103.335938 47.890625 -101.40625 47.515625 -99.375 C 47.148438 -97.351562 46.753906 -95.359375 46.328125 -93.390625 C 45.898438 -91.421875 45.5625 -89.703125 45.3125 -88.234375 C 48.007812 -88.722656 50.707031 -89.394531 53.40625 -90.25 C 56.113281 -91.113281 58.539062 -92.066406 60.6875 -93.109375 C 62.84375 -94.160156 64.5625 -95.296875 65.84375 -96.515625 C 67.132812 -97.742188 67.78125 -99.097656 67.78125 -100.578125 C 67.78125 -102.421875 67.226562 -103.925781 66.125 -105.09375 C 65.019531 -106.257812 63.578125 -107.207031 61.796875 -107.9375 C 60.015625 -108.675781 58.171875 -109.195312 56.265625 -109.5 C 54.367188 -109.8125 52.679688 -109.96875 51.203125 -109.96875 Z M 49.359375 -109.96875 "/></g></g></g><g fill="#4db3e5" fill-opacity="1"><g transform="translate(306.449956, 651.686411)"><g><path d="M 79.390625 -7.375 C 78.285156 -7.375 75.953125 -7.3125 72.390625 -7.1875 C 68.828125 -7.0625 64.617188 -6.875 59.765625 -6.625 C 54.921875 -6.382812 49.671875 -6.078125 44.015625 -5.703125 C 38.367188 -5.335938 32.84375 -4.941406 27.4375 -4.515625 C 22.039062 -4.085938 17.039062 -3.625 12.4375 -3.125 C 7.832031 -2.632812 4.175781 -2.144531 1.46875 -1.65625 L 1.65625 -28.546875 L 53.96875 -99.84375 C 51.882812 -99.84375 48.9375 -99.625 45.125 -99.1875 C 41.320312 -98.757812 37.484375 -98.300781 33.609375 -97.8125 C 29.742188 -97.320312 26.398438 -96.832031 23.578125 -96.34375 L 19.15625 -95.96875 L 22.65625 -124.890625 L 98 -130.234375 L 93.203125 -104.8125 L 42.921875 -33.34375 C 45.378906 -33.34375 48.660156 -33.460938 52.765625 -33.703125 C 56.878906 -33.953125 61.144531 -34.195312 65.5625 -34.4375 C 69.988281 -34.6875 74.78125 -34.992188 79.9375 -35.359375 Z M 79.390625 -7.375 "/></g></g></g><g fill="#4db3e5" fill-opacity="1"><g transform="translate(418.817497, 651.686411)"><g><path d="M 79.390625 -7.375 C 78.285156 -7.375 75.953125 -7.3125 72.390625 -7.1875 C 68.828125 -7.0625 64.617188 -6.875 59.765625 -6.625 C 54.921875 -6.382812 49.671875 -6.078125 44.015625 -5.703125 C 38.367188 -5.335938 32.84375 -4.941406 27.4375 -4.515625 C 22.039062 -4.085938 17.039062 -3.625 12.4375 -3.125 C 7.832031 -2.632812 4.175781 -2.144531 1.46875 -1.65625 L 1.65625 -28.546875 L 53.96875 -99.84375 C 51.882812 -99.84375 48.9375 -99.625 45.125 -99.1875 C 41.320312 -98.757812 37.484375 -98.300781 33.609375 -97.8125 C 29.742188 -97.320312 26.398438 -96.832031 23.578125 -96.34375 L 19.15625 -95.96875 L 22.65625 -124.890625 L 98 -130.234375 L 93.203125 -104.8125 L 42.921875 -33.34375 C 45.378906 -33.34375 48.660156 -33.460938 52.765625 -33.703125 C 56.878906 -33.953125 61.144531 -34.195312 65.5625 -34.4375 C 69.988281 -34.6875 74.78125 -34.992188 79.9375 -35.359375 Z M 79.390625 -7.375 "/></g></g></g><g fill="#4db3e5" fill-opacity="1"><g transform="translate(531.18506, 651.686411)"><g><path d="M 79.390625 -7.375 C 78.285156 -7.375 75.953125 -7.3125 72.390625 -7.1875 C 68.828125 -7.0625 64.617188 -6.875 59.765625 -6.625 C 54.921875 -6.382812 49.671875 -6.078125 44.015625 -5.703125 C 38.367188 -5.335938 32.84375 -4.941406 27.4375 -4.515625 C 22.039062 -4.085938 17.039062 -3.625 12.4375 -3.125 C 7.832031 -2.632812 4.175781 -2.144531 1.46875 -1.65625 L 1.65625 -28.546875 L 53.96875 -99.84375 C 51.882812 -99.84375 48.9375 -99.625 45.125 -99.1875 C 41.320312 -98.757812 37.484375 -98.300781 33.609375 -97.8125 C 29.742188 -97.320312 26.398438 -96.832031 23.578125 -96.34375 L 19.15625 -95.96875 L 22.65625 -124.890625 L 98 -130.234375 L 93.203125 -104.8125 L 42.921875 -33.34375 C 45.378906 -33.34375 48.660156 -33.460938 52.765625 -33.703125 C 56.878906 -33.953125 61.144531 -34.195312 65.5625 -34.4375 C 69.988281 -34.6875 74.78125 -34.992188 79.9375 -35.359375 Z M 79.390625 -7.375 "/></g></g></g></svg>