M48
;GenerationSoftware,Autodesk,EAGLE,9.7.0*%
;CreationDate,2023-08-04T13:31:27Z*%
FMAT,2
ICI,OFF
METRIC,TZ,000.000
T6C0.580
T5C0.900
T4C1.016
T3C1.040
T2C1.350
T1C1.750
%
G90
M71
T1
X22393Y4457
T2
X14543Y2657
X30243Y2657
T3
X5186Y4470
X5186Y7010
X5186Y9550
X5186Y12090
X5186Y14630
X5186Y17170
X5186Y19710
X5186Y22250
T4
X38912Y18940
X38912Y21480
X38912Y24020
X38912Y26560
X22290Y76250
X17210Y76250
X19750Y76250
X24830Y76250
T5
X3680Y34830
X3680Y36830
X3680Y38830
X3680Y40830
T6
X24143Y7957
X25643Y7957
X27143Y10957
X19643Y10957
X21143Y7957
X19643Y7957
X18143Y7957
X23393Y9457
X24893Y9457
X26393Y9457
X21893Y9457
X20393Y9457
X22643Y10957
X18893Y9457
X24143Y10957
X25643Y10957
X21143Y10957
X22643Y7957
X18143Y10957
M30