<?xml version="1.0" encoding="utf-8" standalone="no"?>
<!DOCTYPE svg PUBLIC "-//W3C//DTD SVG 1.1//EN"
  "http://www.w3.org/Graphics/SVG/1.1/DTD/svg11.dtd">
<svg xmlns:xlink="http://www.w3.org/1999/xlink" width="460.8pt" height="345.6pt" viewBox="0 0 460.8 345.6" xmlns="http://www.w3.org/2000/svg" version="1.1">
 <metadata>
  <rdf:RDF xmlns:dc="http://purl.org/dc/elements/1.1/" xmlns:cc="http://creativecommons.org/ns#" xmlns:rdf="http://www.w3.org/1999/02/22-rdf-syntax-ns#">
   <cc:Work>
    <dc:type rdf:resource="http://purl.org/dc/dcmitype/StillImage"/>
    <dc:date>2023-07-06T16:19:44.521185</dc:date>
    <dc:format>image/svg+xml</dc:format>
    <dc:creator>
     <cc:Agent>
      <dc:title>Matplotlib v3.5.3, https://matplotlib.org/</dc:title>
     </cc:Agent>
    </dc:creator>
   </cc:Work>
  </rdf:RDF>
 </metadata>
 <defs>
  <style type="text/css">*{stroke-linejoin: round; stroke-linecap: butt}</style>
 </defs>
 <g id="figure_1">
  <g id="patch_1">
   <path d="M 0 345.6 
L 460.8 345.6 
L 460.8 0 
L 0 0 
z
" style="fill: #ffffff"/>
  </g>
  <g id="axes_1">
   <g id="patch_2">
    <path d="M 57.6 119.740235 
L 414.72 119.740235 
L 414.72 41.472 
L 57.6 41.472 
z
" style="fill: #ffffff"/>
   </g>
   <g id="matplotlib.axis_1">
    <g id="xtick_1">
     <g id="line2d_1">
      <defs>
       <path id="med170aaca5" d="M 0 0 
L 0 3.5 
" style="stroke: #000000; stroke-width: 0.8"/>
      </defs>
      <g>
       <use xlink:href="#med170aaca5" x="75.403605" y="119.740235" style="stroke: #000000; stroke-width: 0.8"/>
      </g>
     </g>
     <g id="text_1">
      <!-- 50000 -->
      <g transform="translate(59.497355 134.338673)scale(0.1 -0.1)">
       <defs>
        <path id="DejaVuSans-35" d="M 691 4666 
L 3169 4666 
L 3169 4134 
L 1269 4134 
L 1269 2991 
Q 1406 3038 1543 3061 
Q 1681 3084 1819 3084 
Q 2600 3084 3056 2656 
Q 3513 2228 3513 1497 
Q 3513 744 3044 326 
Q 2575 -91 1722 -91 
Q 1428 -91 1123 -41 
Q 819 9 494 109 
L 494 744 
Q 775 591 1075 516 
Q 1375 441 1709 441 
Q 2250 441 2565 725 
Q 2881 1009 2881 1497 
Q 2881 1984 2565 2268 
Q 2250 2553 1709 2553 
Q 1456 2553 1204 2497 
Q 953 2441 691 2322 
L 691 4666 
z
" transform="scale(0.015625)"/>
        <path id="DejaVuSans-30" d="M 2034 4250 
Q 1547 4250 1301 3770 
Q 1056 3291 1056 2328 
Q 1056 1369 1301 889 
Q 1547 409 2034 409 
Q 2525 409 2770 889 
Q 3016 1369 3016 2328 
Q 3016 3291 2770 3770 
Q 2525 4250 2034 4250 
z
M 2034 4750 
Q 2819 4750 3233 4129 
Q 3647 3509 3647 2328 
Q 3647 1150 3233 529 
Q 2819 -91 2034 -91 
Q 1250 -91 836 529 
Q 422 1150 422 2328 
Q 422 3509 836 4129 
Q 1250 4750 2034 4750 
z
" transform="scale(0.015625)"/>
       </defs>
       <use xlink:href="#DejaVuSans-35"/>
       <use xlink:href="#DejaVuSans-30" x="63.623047"/>
       <use xlink:href="#DejaVuSans-30" x="127.246094"/>
       <use xlink:href="#DejaVuSans-30" x="190.869141"/>
       <use xlink:href="#DejaVuSans-30" x="254.492188"/>
      </g>
     </g>
    </g>
    <g id="xtick_2">
     <g id="line2d_2">
      <g>
       <use xlink:href="#med170aaca5" x="115.925726" y="119.740235" style="stroke: #000000; stroke-width: 0.8"/>
      </g>
     </g>
     <g id="text_2">
      <!-- 75000 -->
      <g transform="translate(100.019476 134.338673)scale(0.1 -0.1)">
       <defs>
        <path id="DejaVuSans-37" d="M 525 4666 
L 3525 4666 
L 3525 4397 
L 1831 0 
L 1172 0 
L 2766 4134 
L 525 4134 
L 525 4666 
z
" transform="scale(0.015625)"/>
       </defs>
       <use xlink:href="#DejaVuSans-37"/>
       <use xlink:href="#DejaVuSans-35" x="63.623047"/>
       <use xlink:href="#DejaVuSans-30" x="127.246094"/>
       <use xlink:href="#DejaVuSans-30" x="190.869141"/>
       <use xlink:href="#DejaVuSans-30" x="254.492188"/>
      </g>
     </g>
    </g>
    <g id="xtick_3">
     <g id="line2d_3">
      <g>
       <use xlink:href="#med170aaca5" x="156.447846" y="119.740235" style="stroke: #000000; stroke-width: 0.8"/>
      </g>
     </g>
     <g id="text_3">
      <!-- 100000 -->
      <g transform="translate(137.360346 134.338673)scale(0.1 -0.1)">
       <defs>
        <path id="DejaVuSans-31" d="M 794 531 
L 1825 531 
L 1825 4091 
L 703 3866 
L 703 4441 
L 1819 4666 
L 2450 4666 
L 2450 531 
L 3481 531 
L 3481 0 
L 794 0 
L 794 531 
z
" transform="scale(0.015625)"/>
       </defs>
       <use xlink:href="#DejaVuSans-31"/>
       <use xlink:href="#DejaVuSans-30" x="63.623047"/>
       <use xlink:href="#DejaVuSans-30" x="127.246094"/>
       <use xlink:href="#DejaVuSans-30" x="190.869141"/>
       <use xlink:href="#DejaVuSans-30" x="254.492188"/>
       <use xlink:href="#DejaVuSans-30" x="318.115234"/>
      </g>
     </g>
    </g>
    <g id="xtick_4">
     <g id="line2d_4">
      <g>
       <use xlink:href="#med170aaca5" x="196.969967" y="119.740235" style="stroke: #000000; stroke-width: 0.8"/>
      </g>
     </g>
     <g id="text_4">
      <!-- 125000 -->
      <g transform="translate(177.882467 134.338673)scale(0.1 -0.1)">
       <defs>
        <path id="DejaVuSans-32" d="M 1228 531 
L 3431 531 
L 3431 0 
L 469 0 
L 469 531 
Q 828 903 1448 1529 
Q 2069 2156 2228 2338 
Q 2531 2678 2651 2914 
Q 2772 3150 2772 3378 
Q 2772 3750 2511 3984 
Q 2250 4219 1831 4219 
Q 1534 4219 1204 4116 
Q 875 4013 500 3803 
L 500 4441 
Q 881 4594 1212 4672 
Q 1544 4750 1819 4750 
Q 2544 4750 2975 4387 
Q 3406 4025 3406 3419 
Q 3406 3131 3298 2873 
Q 3191 2616 2906 2266 
Q 2828 2175 2409 1742 
Q 1991 1309 1228 531 
z
" transform="scale(0.015625)"/>
       </defs>
       <use xlink:href="#DejaVuSans-31"/>
       <use xlink:href="#DejaVuSans-32" x="63.623047"/>
       <use xlink:href="#DejaVuSans-35" x="127.246094"/>
       <use xlink:href="#DejaVuSans-30" x="190.869141"/>
       <use xlink:href="#DejaVuSans-30" x="254.492188"/>
       <use xlink:href="#DejaVuSans-30" x="318.115234"/>
      </g>
     </g>
    </g>
    <g id="xtick_5">
     <g id="line2d_5">
      <g>
       <use xlink:href="#med170aaca5" x="237.492087" y="119.740235" style="stroke: #000000; stroke-width: 0.8"/>
      </g>
     </g>
     <g id="text_5">
      <!-- 150000 -->
      <g transform="translate(218.404587 134.338673)scale(0.1 -0.1)">
       <use xlink:href="#DejaVuSans-31"/>
       <use xlink:href="#DejaVuSans-35" x="63.623047"/>
       <use xlink:href="#DejaVuSans-30" x="127.246094"/>
       <use xlink:href="#DejaVuSans-30" x="190.869141"/>
       <use xlink:href="#DejaVuSans-30" x="254.492188"/>
       <use xlink:href="#DejaVuSans-30" x="318.115234"/>
      </g>
     </g>
    </g>
    <g id="xtick_6">
     <g id="line2d_6">
      <g>
       <use xlink:href="#med170aaca5" x="278.014208" y="119.740235" style="stroke: #000000; stroke-width: 0.8"/>
      </g>
     </g>
     <g id="text_6">
      <!-- 175000 -->
      <g transform="translate(258.926708 134.338673)scale(0.1 -0.1)">
       <use xlink:href="#DejaVuSans-31"/>
       <use xlink:href="#DejaVuSans-37" x="63.623047"/>
       <use xlink:href="#DejaVuSans-35" x="127.246094"/>
       <use xlink:href="#DejaVuSans-30" x="190.869141"/>
       <use xlink:href="#DejaVuSans-30" x="254.492188"/>
       <use xlink:href="#DejaVuSans-30" x="318.115234"/>
      </g>
     </g>
    </g>
    <g id="xtick_7">
     <g id="line2d_7">
      <g>
       <use xlink:href="#med170aaca5" x="318.536328" y="119.740235" style="stroke: #000000; stroke-width: 0.8"/>
      </g>
     </g>
     <g id="text_7">
      <!-- 200000 -->
      <g transform="translate(299.448828 134.338673)scale(0.1 -0.1)">
       <use xlink:href="#DejaVuSans-32"/>
       <use xlink:href="#DejaVuSans-30" x="63.623047"/>
       <use xlink:href="#DejaVuSans-30" x="127.246094"/>
       <use xlink:href="#DejaVuSans-30" x="190.869141"/>
       <use xlink:href="#DejaVuSans-30" x="254.492188"/>
       <use xlink:href="#DejaVuSans-30" x="318.115234"/>
      </g>
     </g>
    </g>
    <g id="xtick_8">
     <g id="line2d_8">
      <g>
       <use xlink:href="#med170aaca5" x="359.058449" y="119.740235" style="stroke: #000000; stroke-width: 0.8"/>
      </g>
     </g>
     <g id="text_8">
      <!-- 225000 -->
      <g transform="translate(339.970949 134.338673)scale(0.1 -0.1)">
       <use xlink:href="#DejaVuSans-32"/>
       <use xlink:href="#DejaVuSans-32" x="63.623047"/>
       <use xlink:href="#DejaVuSans-35" x="127.246094"/>
       <use xlink:href="#DejaVuSans-30" x="190.869141"/>
       <use xlink:href="#DejaVuSans-30" x="254.492188"/>
       <use xlink:href="#DejaVuSans-30" x="318.115234"/>
      </g>
     </g>
    </g>
    <g id="xtick_9">
     <g id="line2d_9">
      <g>
       <use xlink:href="#med170aaca5" x="399.580569" y="119.740235" style="stroke: #000000; stroke-width: 0.8"/>
      </g>
     </g>
     <g id="text_9">
      <!-- 250000 -->
      <g transform="translate(380.493069 134.338673)scale(0.1 -0.1)">
       <use xlink:href="#DejaVuSans-32"/>
       <use xlink:href="#DejaVuSans-35" x="63.623047"/>
       <use xlink:href="#DejaVuSans-30" x="127.246094"/>
       <use xlink:href="#DejaVuSans-30" x="190.869141"/>
       <use xlink:href="#DejaVuSans-30" x="254.492188"/>
       <use xlink:href="#DejaVuSans-30" x="318.115234"/>
      </g>
     </g>
    </g>
    <g id="text_10">
     <!-- time ms -->
     <g transform="translate(215.799844 148.016798)scale(0.1 -0.1)">
      <defs>
       <path id="DejaVuSans-74" d="M 1172 4494 
L 1172 3500 
L 2356 3500 
L 2356 3053 
L 1172 3053 
L 1172 1153 
Q 1172 725 1289 603 
Q 1406 481 1766 481 
L 2356 481 
L 2356 0 
L 1766 0 
Q 1100 0 847 248 
Q 594 497 594 1153 
L 594 3053 
L 172 3053 
L 172 3500 
L 594 3500 
L 594 4494 
L 1172 4494 
z
" transform="scale(0.015625)"/>
       <path id="DejaVuSans-69" d="M 603 3500 
L 1178 3500 
L 1178 0 
L 603 0 
L 603 3500 
z
M 603 4863 
L 1178 4863 
L 1178 4134 
L 603 4134 
L 603 4863 
z
" transform="scale(0.015625)"/>
       <path id="DejaVuSans-6d" d="M 3328 2828 
Q 3544 3216 3844 3400 
Q 4144 3584 4550 3584 
Q 5097 3584 5394 3201 
Q 5691 2819 5691 2113 
L 5691 0 
L 5113 0 
L 5113 2094 
Q 5113 2597 4934 2840 
Q 4756 3084 4391 3084 
Q 3944 3084 3684 2787 
Q 3425 2491 3425 1978 
L 3425 0 
L 2847 0 
L 2847 2094 
Q 2847 2600 2669 2842 
Q 2491 3084 2119 3084 
Q 1678 3084 1418 2786 
Q 1159 2488 1159 1978 
L 1159 0 
L 581 0 
L 581 3500 
L 1159 3500 
L 1159 2956 
Q 1356 3278 1631 3431 
Q 1906 3584 2284 3584 
Q 2666 3584 2933 3390 
Q 3200 3197 3328 2828 
z
" transform="scale(0.015625)"/>
       <path id="DejaVuSans-65" d="M 3597 1894 
L 3597 1613 
L 953 1613 
Q 991 1019 1311 708 
Q 1631 397 2203 397 
Q 2534 397 2845 478 
Q 3156 559 3463 722 
L 3463 178 
Q 3153 47 2828 -22 
Q 2503 -91 2169 -91 
Q 1331 -91 842 396 
Q 353 884 353 1716 
Q 353 2575 817 3079 
Q 1281 3584 2069 3584 
Q 2775 3584 3186 3129 
Q 3597 2675 3597 1894 
z
M 3022 2063 
Q 3016 2534 2758 2815 
Q 2500 3097 2075 3097 
Q 1594 3097 1305 2825 
Q 1016 2553 972 2059 
L 3022 2063 
z
" transform="scale(0.015625)"/>
       <path id="DejaVuSans-20" transform="scale(0.015625)"/>
       <path id="DejaVuSans-73" d="M 2834 3397 
L 2834 2853 
Q 2591 2978 2328 3040 
Q 2066 3103 1784 3103 
Q 1356 3103 1142 2972 
Q 928 2841 928 2578 
Q 928 2378 1081 2264 
Q 1234 2150 1697 2047 
L 1894 2003 
Q 2506 1872 2764 1633 
Q 3022 1394 3022 966 
Q 3022 478 2636 193 
Q 2250 -91 1575 -91 
Q 1294 -91 989 -36 
Q 684 19 347 128 
L 347 722 
Q 666 556 975 473 
Q 1284 391 1588 391 
Q 1994 391 2212 530 
Q 2431 669 2431 922 
Q 2431 1156 2273 1281 
Q 2116 1406 1581 1522 
L 1381 1569 
Q 847 1681 609 1914 
Q 372 2147 372 2553 
Q 372 3047 722 3315 
Q 1072 3584 1716 3584 
Q 2034 3584 2315 3537 
Q 2597 3491 2834 3397 
z
" transform="scale(0.015625)"/>
      </defs>
      <use xlink:href="#DejaVuSans-74"/>
      <use xlink:href="#DejaVuSans-69" x="39.208984"/>
      <use xlink:href="#DejaVuSans-6d" x="66.992188"/>
      <use xlink:href="#DejaVuSans-65" x="164.404297"/>
      <use xlink:href="#DejaVuSans-20" x="225.927734"/>
      <use xlink:href="#DejaVuSans-6d" x="257.714844"/>
      <use xlink:href="#DejaVuSans-73" x="355.126953"/>
     </g>
    </g>
   </g>
   <g id="matplotlib.axis_2">
    <g id="ytick_1">
     <g id="line2d_10">
      <defs>
       <path id="mf7f4911dea" d="M 0 0 
L -3.5 0 
" style="stroke: #000000; stroke-width: 0.8"/>
      </defs>
      <g>
       <use xlink:href="#mf7f4911dea" x="57.6" y="96.983892" style="stroke: #000000; stroke-width: 0.8"/>
      </g>
     </g>
     <g id="text_11">
      <!-- 2500 -->
      <g transform="translate(25.15 100.783111)scale(0.1 -0.1)">
       <use xlink:href="#DejaVuSans-32"/>
       <use xlink:href="#DejaVuSans-35" x="63.623047"/>
       <use xlink:href="#DejaVuSans-30" x="127.246094"/>
       <use xlink:href="#DejaVuSans-30" x="190.869141"/>
      </g>
     </g>
    </g>
    <g id="ytick_2">
     <g id="line2d_11">
      <g>
       <use xlink:href="#mf7f4911dea" x="57.6" y="74.160906" style="stroke: #000000; stroke-width: 0.8"/>
      </g>
     </g>
     <g id="text_12">
      <!-- 5000 -->
      <g transform="translate(25.15 77.960125)scale(0.1 -0.1)">
       <use xlink:href="#DejaVuSans-35"/>
       <use xlink:href="#DejaVuSans-30" x="63.623047"/>
       <use xlink:href="#DejaVuSans-30" x="127.246094"/>
       <use xlink:href="#DejaVuSans-30" x="190.869141"/>
      </g>
     </g>
    </g>
    <g id="ytick_3">
     <g id="line2d_12">
      <g>
       <use xlink:href="#mf7f4911dea" x="57.6" y="51.33792" style="stroke: #000000; stroke-width: 0.8"/>
      </g>
     </g>
     <g id="text_13">
      <!-- 7500 -->
      <g transform="translate(25.15 55.137139)scale(0.1 -0.1)">
       <use xlink:href="#DejaVuSans-37"/>
       <use xlink:href="#DejaVuSans-35" x="63.623047"/>
       <use xlink:href="#DejaVuSans-30" x="127.246094"/>
       <use xlink:href="#DejaVuSans-30" x="190.869141"/>
      </g>
     </g>
    </g>
    <g id="text_14">
     <!-- altitude Z -->
     <g transform="translate(19.070312 104.802211)rotate(-90)scale(0.1 -0.1)">
      <defs>
       <path id="DejaVuSans-61" d="M 2194 1759 
Q 1497 1759 1228 1600 
Q 959 1441 959 1056 
Q 959 750 1161 570 
Q 1363 391 1709 391 
Q 2188 391 2477 730 
Q 2766 1069 2766 1631 
L 2766 1759 
L 2194 1759 
z
M 3341 1997 
L 3341 0 
L 2766 0 
L 2766 531 
Q 2569 213 2275 61 
Q 1981 -91 1556 -91 
Q 1019 -91 701 211 
Q 384 513 384 1019 
Q 384 1609 779 1909 
Q 1175 2209 1959 2209 
L 2766 2209 
L 2766 2266 
Q 2766 2663 2505 2880 
Q 2244 3097 1772 3097 
Q 1472 3097 1187 3025 
Q 903 2953 641 2809 
L 641 3341 
Q 956 3463 1253 3523 
Q 1550 3584 1831 3584 
Q 2591 3584 2966 3190 
Q 3341 2797 3341 1997 
z
" transform="scale(0.015625)"/>
       <path id="DejaVuSans-6c" d="M 603 4863 
L 1178 4863 
L 1178 0 
L 603 0 
L 603 4863 
z
" transform="scale(0.015625)"/>
       <path id="DejaVuSans-75" d="M 544 1381 
L 544 3500 
L 1119 3500 
L 1119 1403 
Q 1119 906 1312 657 
Q 1506 409 1894 409 
Q 2359 409 2629 706 
Q 2900 1003 2900 1516 
L 2900 3500 
L 3475 3500 
L 3475 0 
L 2900 0 
L 2900 538 
Q 2691 219 2414 64 
Q 2138 -91 1772 -91 
Q 1169 -91 856 284 
Q 544 659 544 1381 
z
M 1991 3584 
L 1991 3584 
z
" transform="scale(0.015625)"/>
       <path id="DejaVuSans-64" d="M 2906 2969 
L 2906 4863 
L 3481 4863 
L 3481 0 
L 2906 0 
L 2906 525 
Q 2725 213 2448 61 
Q 2172 -91 1784 -91 
Q 1150 -91 751 415 
Q 353 922 353 1747 
Q 353 2572 751 3078 
Q 1150 3584 1784 3584 
Q 2172 3584 2448 3432 
Q 2725 3281 2906 2969 
z
M 947 1747 
Q 947 1113 1208 752 
Q 1469 391 1925 391 
Q 2381 391 2643 752 
Q 2906 1113 2906 1747 
Q 2906 2381 2643 2742 
Q 2381 3103 1925 3103 
Q 1469 3103 1208 2742 
Q 947 2381 947 1747 
z
" transform="scale(0.015625)"/>
       <path id="DejaVuSans-5a" d="M 359 4666 
L 4025 4666 
L 4025 4184 
L 1075 531 
L 4097 531 
L 4097 0 
L 288 0 
L 288 481 
L 3238 4134 
L 359 4134 
L 359 4666 
z
" transform="scale(0.015625)"/>
      </defs>
      <use xlink:href="#DejaVuSans-61"/>
      <use xlink:href="#DejaVuSans-6c" x="61.279297"/>
      <use xlink:href="#DejaVuSans-74" x="89.0625"/>
      <use xlink:href="#DejaVuSans-69" x="128.271484"/>
      <use xlink:href="#DejaVuSans-74" x="156.054688"/>
      <use xlink:href="#DejaVuSans-75" x="195.263672"/>
      <use xlink:href="#DejaVuSans-64" x="258.642578"/>
      <use xlink:href="#DejaVuSans-65" x="322.119141"/>
      <use xlink:href="#DejaVuSans-20" x="383.642578"/>
      <use xlink:href="#DejaVuSans-5a" x="415.429688"/>
     </g>
    </g>
   </g>
   <g id="line2d_13">
    <path d="M 73.832727 112.777399 
L 74.155968 112.777399 
L 74.480474 112.594815 
L 75.783384 112.704365 
L 77.732089 112.832174 
L 78.379297 112.832174 
L 78.700947 112.941724 
L 79.026205 113.179083 
L 80.646913 113.115179 
L 82.591762 112.823045 
L 87.456504 112.832174 
L 88.102304 113.160825 
L 88.752697 113.160825 
L 89.078484 112.850432 
L 89.40053 112.302681 
L 89.725804 112.302681 
L 90.050093 112.850432 
L 91.346696 112.87782 
L 91.673166 112.850432 
L 91.99453 112.667848 
L 92.319047 112.750011 
L 93.291649 112.695236 
L 94.264998 112.832174 
L 94.595446 112.658719 
L 94.914249 112.87782 
L 95.562919 112.76827 
L 96.217833 112.76827 
L 96.860581 112.521781 
L 98.482242 112.585686 
L 98.806027 112.914337 
L 99.129575 112.731753 
L 99.455594 113.014758 
L 99.785364 112.886949 
L 100.116168 112.969112 
L 100.434261 112.886949 
L 100.767152 112.969112 
L 101.083433 112.886949 
L 101.409159 112.969112 
L 102.382624 112.603944 
L 106.595952 112.640461 
L 107.244897 112.76827 
L 108.868381 112.622202 
L 109.191884 113.023887 
L 109.5203 113.2156 
L 109.840298 113.2156 
L 110.489282 112.804786 
L 112.436789 112.622202 
L 112.758974 112.868691 
L 116.325837 112.832174 
L 116.975206 112.722624 
L 118.271452 112.713494 
L 118.595307 112.457877 
L 118.920438 112.959983 
L 119.241275 112.75914 
L 119.567923 112.959983 
L 119.89371 112.75914 
L 120.54169 112.75914 
L 120.86412 45.029647 
L 121.513388 45.029647 
L 121.837408 113.44383 
L 122.161602 113.480347 
L 122.486712 116.182588 
L 123.784706 116.182588 
L 124.109123 116.036521 
L 124.756468 116.036521 
L 125.084342 112.622202 
L 126.379882 112.622202 
L 126.70433 112.622202 
L 127.027889 112.932595 
L 127.350908 112.622202 
L 127.675182 112.622202 
L 127.99968 112.804786 
L 128.647819 112.722624 
L 129.944383 112.75914 
L 130.270424 45.029647 
L 130.593559 45.029647 
L 130.917179 112.585686 
L 131.566744 112.585686 
L 132.21573 113.033016 
L 133.351308 113.005629 
L 133.997976 112.713494 
L 134.322269 45.029647 
L 135.296978 45.029647 
L 135.622796 112.905207 
L 135.944211 112.905207 
L 136.268687 112.658719 
L 136.590495 112.658719 
L 136.917407 45.029647 
L 138.544093 45.029647 
L 138.869421 112.613073 
L 139.516749 112.613073 
L 139.841677 112.923466 
L 140.812764 112.923466 
L 141.138147 112.686107 
L 141.462345 112.686107 
L 141.785724 112.521781 
L 142.111196 112.521781 
L 142.434724 112.704365 
L 143.082266 112.704365 
L 143.404219 112.914337 
L 144.707659 112.914337 
L 145.352445 112.686107 
L 146.325697 112.686107 
L 146.977676 112.174872 
L 147.29851 112.174872 
L 147.623533 112.603944 
L 147.950343 112.174872 
L 148.272276 112.603944 
L 148.597525 112.603944 
L 148.92159 112.777399 
L 150.215942 112.804786 
L 150.541944 112.549169 
L 151.514984 112.64959 
L 151.83806 112.813916 
L 152.487748 112.813916 
L 152.812232 112.521781 
L 155.408382 112.622202 
L 155.733375 112.704365 
L 156.05591 112.905207 
L 156.377448 112.905207 
L 156.703975 112.704365 
L 157.029734 112.950853 
L 157.352698 112.950853 
L 157.677512 112.403102 
L 158.003445 45.029647 
L 158.327066 112.403102 
L 158.65431 45.029647 
L 159.29729 45.029647 
L 159.623846 112.850432 
L 159.948797 112.832174 
L 160.27409 112.98737 
L 161.570132 112.905207 
L 161.894804 112.384843 
L 162.21896 112.905207 
L 162.543729 112.384843 
L 162.866708 112.31181 
L 163.191536 45.029647 
L 163.84024 45.029647 
L 164.163251 112.31181 
L 164.487743 112.594815 
L 164.812175 112.594815 
L 165.136159 112.832174 
L 165.786235 112.832174 
L 166.111517 45.029647 
L 166.434081 112.750011 
L 166.759529 112.366585 
L 167.08317 45.029647 
L 167.406971 112.366585 
L 170.001546 112.257035 
L 170.326546 112.704365 
L 170.649421 112.257035 
L 170.974377 112.448748 
L 171.296339 112.448748 
L 171.618749 45.029647 
L 171.949694 45.029647 
L 172.271383 112.357456 
L 172.59783 45.029647 
L 172.919023 112.357456 
L 173.57027 112.357456 
L 173.891784 112.75914 
L 174.86651 112.75914 
L 175.19064 45.029647 
L 176.48905 45.029647 
L 176.811305 112.037934 
L 177.136152 112.284422 
L 177.788882 112.284422 
L 178.109136 112.75914 
L 178.432612 112.603944 
L 178.756563 112.603944 
L 179.079015 112.266164 
L 179.40518 112.603944 
L 179.728885 45.029647 
L 182.001771 45.029647 
L 182.490058 112.503523 
L 183.133757 112.503523 
L 183.459661 45.029647 
L 184.432079 45.029647 
L 184.756758 112.485265 
L 185.080393 112.485265 
L 185.403965 112.302681 
L 185.72886 112.302681 
L 186.05417 45.029647 
L 186.374753 45.029647 
L 186.702573 112.302681 
L 187.027769 112.75914 
L 187.673043 112.75914 
L 187.998495 112.594815 
L 188.322674 45.029647 
L 188.97197 45.029647 
L 189.297273 112.567427 
L 190.267655 112.613073 
L 192.537923 112.54004 
L 192.861971 112.795657 
L 193.185404 47.311946 
L 193.511202 112.576556 
L 193.835063 47.311946 
L 194.159445 45.029647 
L 196.106205 45.029647 
L 196.428836 112.129226 
L 197.078125 112.485265 
L 197.404925 112.31181 
L 197.723521 112.485265 
L 199.994701 112.393973 
L 200.32252 112.257035 
L 200.644664 112.257035 
L 200.967026 112.512652 
L 201.293688 111.691025 
L 201.61964 45.029647 
L 206.480567 45.029647 
L 206.806983 112.302681 
L 207.455254 112.366585 
L 207.778712 112.740882 
L 212.652454 112.731753 
L 212.972391 112.622202 
L 213.620912 112.795657 
L 214.270949 112.631332 
L 215.892104 112.64959 
L 216.53919 112.603944 
L 216.864038 112.667848 
L 217.188139 45.029647 
L 217.836935 45.029647 
L 218.166853 112.457877 
L 218.486103 45.029647 
L 220.108372 45.029647 
L 220.431639 112.220518 
L 220.755109 112.220518 
L 221.079538 45.029647 
L 221.402318 45.029647 
L 221.727458 112.220518 
L 222.051499 45.029647 
L 222.376829 112.275293 
L 222.701782 112.275293 
L 223.022757 112.695236 
L 223.348726 45.029647 
L 223.675189 112.293551 
L 224.320893 112.293551 
L 224.644975 45.029647 
L 234.214562 45.029647 
L 234.540091 112.485265 
L 234.865557 112.485265 
L 235.188642 112.603944 
L 235.513256 112.485265 
L 235.838333 45.029647 
L 236.810353 45.029647 
L 237.135765 112.110968 
L 237.460268 112.31181 
L 237.788198 112.110968 
L 238.111863 112.31181 
L 238.760104 112.31181 
L 239.084133 45.029647 
L 239.407564 112.330068 
L 239.730984 45.029647 
L 241.352532 45.029647 
L 241.677792 112.704365 
L 241.998812 45.029647 
L 242.326859 112.320939 
L 242.650973 45.029647 
L 242.975403 112.320939 
L 243.299536 45.029647 
L 246.879924 45.029647 
L 247.205842 112.585686 
L 247.529904 112.886949 
L 248.499957 112.941724 
L 248.82782 45.029647 
L 251.743217 45.029647 
L 252.067927 112.120097 
L 252.391972 112.795657 
L 252.716669 112.120097 
L 253.039654 112.120097 
L 253.367572 111.97403 
L 253.692602 111.97403 
L 254.018148 45.029647 
L 254.664976 45.029647 
L 254.990043 112.037934 
L 255.314047 45.029647 
L 258.87866 45.029647 
L 259.205699 112.722624 
L 259.530791 112.722624 
L 259.854107 112.576556 
L 261.473195 112.549169 
L 262.126677 112.457877 
L 263.100003 112.795657 
L 263.748697 112.795657 
L 264.073127 112.467006 
L 264.396814 45.029647 
L 264.723445 45.029647 
L 265.043276 112.302681 
L 265.367594 112.467006 
L 265.691211 112.320939 
L 266.989396 112.320939 
L 267.637529 112.722624 
L 268.284567 112.804786 
L 268.933831 112.722624 
L 269.2583 45.029647 
L 271.203237 45.029647 
L 271.52715 112.53091 
L 272.177955 112.53091 
L 272.501087 45.029647 
L 272.825819 112.53091 
L 273.150433 45.029647 
L 279.638159 45.029647 
L 279.962289 112.54004 
L 280.287324 112.54004 
L 280.769915 45.029647 
L 284.016396 45.029647 
L 284.339349 112.403102 
L 284.665525 45.029647 
L 284.994066 45.029647 
L 285.313209 112.403102 
L 285.636361 45.029647 
L 288.558687 45.029647 
L 288.881973 112.156614 
L 289.207211 45.029647 
L 289.530899 112.366585 
L 291.153141 112.42136 
L 291.475814 111.983159 
L 291.80116 45.029647 
L 294.717194 45.029647 
L 295.045657 112.165743 
L 295.36803 112.165743 
L 295.693965 45.029647 
L 296.01863 112.905207 
L 296.340233 112.795657 
L 296.666819 45.029647 
L 297.965369 45.029647 
L 298.290543 112.503523 
L 298.935748 112.594815 
L 299.26101 112.503523 
L 299.585576 45.029647 
L 300.87891 45.029647 
L 301.203066 112.576556 
L 301.530663 45.029647 
L 302.178657 45.029647 
L 302.500335 112.640461 
L 302.828971 112.87782 
L 303.475247 112.87782 
L 303.802316 112.156614 
L 304.124963 112.092709 
L 304.448465 45.029647 
L 309.960774 45.029647 
L 310.284111 112.53091 
L 312.233016 112.905207 
L 313.206112 112.841303 
L 314.179432 112.786528 
L 323.581444 112.695236 
L 323.905692 112.576556 
L 324.230679 112.576556 
L 324.554717 112.777399 
L 329.096748 112.777399 
L 329.74515 112.622202 
L 329.90484 112.622202 
L 330.22932 111.837092 
L 330.551298 45.029647 
L 333.145391 45.029647 
L 333.471776 112.859561 
L 333.79771 45.029647 
L 343.197755 45.029647 
L 343.524289 112.594815 
L 343.849661 112.804786 
L 345.472391 112.722624 
L 345.796107 112.996499 
L 346.447771 112.996499 
L 346.767602 112.658719 
L 347.094058 45.029647 
L 348.39368 45.029647 
L 348.716292 112.101838 
L 349.037133 112.101838 
L 349.68568 112.412231 
L 350.338333 112.412231 
L 350.663624 112.293551 
L 350.985639 112.594815 
L 351.309813 45.029647 
L 352.606197 45.029647 
L 352.932398 112.42136 
L 353.259131 112.42136 
L 353.580118 45.029647 
L 357.467048 45.029647 
L 357.794061 112.576556 
L 358.117866 45.029647 
L 359.741166 45.029647 
L 360.064239 112.676978 
L 361.037478 112.676978 
L 361.362029 45.029647 
L 362.010606 45.029647 
L 362.334032 112.640461 
L 363.307601 112.640461 
L 363.630247 112.439619 
L 363.954939 45.029647 
L 364.282773 45.029647 
L 364.603715 112.439619 
L 364.925299 112.969112 
L 365.576207 112.969112 
L 366.224547 112.603944 
L 366.551523 45.029647 
L 366.872151 112.603944 
L 367.519027 112.603944 
L 367.84537 45.029647 
L 372.709045 45.029647 
L 373.034447 112.549169 
L 373.358725 112.275293 
L 373.682207 112.585686 
L 374.006355 112.585686 
L 374.336464 112.275293 
L 374.654657 45.029647 
L 376.276662 45.029647 
L 376.601696 112.713494 
L 376.924857 112.713494 
L 377.248654 45.029647 
L 379.030373 45.029647 
L 379.356819 112.439619 
L 379.681504 112.439619 
L 380.005878 45.029647 
L 381.304718 45.029647 
L 381.627344 112.686107 
L 381.951963 45.029647 
L 382.277277 112.786528 
L 382.601072 45.029647 
L 383.897783 45.029647 
L 384.222059 112.494394 
L 385.519271 112.485265 
L 385.843314 45.029647 
L 388.11276 45.029647 
L 388.436072 112.667848 
L 388.761023 45.029647 
L 389.085096 112.667848 
L 389.733024 112.567427 
L 390.7064 112.54004 
L 391.032971 45.029647 
L 393.951528 45.029647 
L 394.271394 112.174872 
L 394.599638 112.174872 
L 394.923319 45.029647 
L 395.248142 112.174872 
L 395.578091 112.494394 
L 395.896091 112.494394 
L 396.219587 45.029647 
L 396.544663 112.494394 
L 396.87017 45.029647 
L 398.487273 45.029647 
L 398.487273 45.029647 
" clip-path="url(#p5c4c0d83b5)" style="fill: none; stroke: #1f77b4; stroke-width: 1.5; stroke-linecap: square"/>
   </g>
   <g id="patch_3">
    <path d="M 57.6 119.740235 
L 57.6 41.472 
" style="fill: none; stroke: #000000; stroke-width: 0.8; stroke-linejoin: miter; stroke-linecap: square"/>
   </g>
   <g id="patch_4">
    <path d="M 414.72 119.740235 
L 414.72 41.472 
" style="fill: none; stroke: #000000; stroke-width: 0.8; stroke-linejoin: miter; stroke-linecap: square"/>
   </g>
   <g id="patch_5">
    <path d="M 57.6 119.740235 
L 414.72 119.740235 
" style="fill: none; stroke: #000000; stroke-width: 0.8; stroke-linejoin: miter; stroke-linecap: square"/>
   </g>
   <g id="patch_6">
    <path d="M 57.6 41.472 
L 414.72 41.472 
" style="fill: none; stroke: #000000; stroke-width: 0.8; stroke-linejoin: miter; stroke-linecap: square"/>
   </g>
   <g id="legend_1">
    <g id="patch_7">
     <path d="M 314.696563 64.150125 
L 407.72 64.150125 
Q 409.72 64.150125 409.72 62.150125 
L 409.72 48.472 
Q 409.72 46.472 407.72 46.472 
L 314.696563 46.472 
Q 312.696563 46.472 312.696563 48.472 
L 312.696563 62.150125 
Q 312.696563 64.150125 314.696563 64.150125 
z
" style="fill: #ffffff; opacity: 0.8; stroke: #cccccc; stroke-linejoin: miter"/>
    </g>
    <g id="line2d_14">
     <path d="M 316.696563 54.570438 
L 326.696563 54.570438 
L 336.696563 54.570438 
" style="fill: none; stroke: #1f77b4; stroke-width: 1.5; stroke-linecap: square"/>
    </g>
    <g id="text_15">
     <!-- altitude mm -->
     <g transform="translate(344.696563 58.070438)scale(0.1 -0.1)">
      <use xlink:href="#DejaVuSans-61"/>
      <use xlink:href="#DejaVuSans-6c" x="61.279297"/>
      <use xlink:href="#DejaVuSans-74" x="89.0625"/>
      <use xlink:href="#DejaVuSans-69" x="128.271484"/>
      <use xlink:href="#DejaVuSans-74" x="156.054688"/>
      <use xlink:href="#DejaVuSans-75" x="195.263672"/>
      <use xlink:href="#DejaVuSans-64" x="258.642578"/>
      <use xlink:href="#DejaVuSans-65" x="322.119141"/>
      <use xlink:href="#DejaVuSans-20" x="383.642578"/>
      <use xlink:href="#DejaVuSans-6d" x="415.429688"/>
      <use xlink:href="#DejaVuSans-6d" x="512.841797"/>
     </g>
    </g>
   </g>
  </g>
  <g id="axes_2">
   <g id="patch_8">
    <path d="M 57.6 213.662118 
L 414.72 213.662118 
L 414.72 135.393882 
L 57.6 135.393882 
z
" style="fill: #ffffff"/>
   </g>
   <g id="matplotlib.axis_3">
    <g id="xtick_10">
     <g id="line2d_15">
      <g>
       <use xlink:href="#med170aaca5" x="75.403605" y="213.662118" style="stroke: #000000; stroke-width: 0.8"/>
      </g>
     </g>
     <g id="text_16">
      <!-- 50000 -->
      <g transform="translate(59.497355 228.260555)scale(0.1 -0.1)">
       <use xlink:href="#DejaVuSans-35"/>
       <use xlink:href="#DejaVuSans-30" x="63.623047"/>
       <use xlink:href="#DejaVuSans-30" x="127.246094"/>
       <use xlink:href="#DejaVuSans-30" x="190.869141"/>
       <use xlink:href="#DejaVuSans-30" x="254.492188"/>
      </g>
     </g>
    </g>
    <g id="xtick_11">
     <g id="line2d_16">
      <g>
       <use xlink:href="#med170aaca5" x="115.925726" y="213.662118" style="stroke: #000000; stroke-width: 0.8"/>
      </g>
     </g>
     <g id="text_17">
      <!-- 75000 -->
      <g transform="translate(100.019476 228.260555)scale(0.1 -0.1)">
       <use xlink:href="#DejaVuSans-37"/>
       <use xlink:href="#DejaVuSans-35" x="63.623047"/>
       <use xlink:href="#DejaVuSans-30" x="127.246094"/>
       <use xlink:href="#DejaVuSans-30" x="190.869141"/>
       <use xlink:href="#DejaVuSans-30" x="254.492188"/>
      </g>
     </g>
    </g>
    <g id="xtick_12">
     <g id="line2d_17">
      <g>
       <use xlink:href="#med170aaca5" x="156.447846" y="213.662118" style="stroke: #000000; stroke-width: 0.8"/>
      </g>
     </g>
     <g id="text_18">
      <!-- 100000 -->
      <g transform="translate(137.360346 228.260555)scale(0.1 -0.1)">
       <use xlink:href="#DejaVuSans-31"/>
       <use xlink:href="#DejaVuSans-30" x="63.623047"/>
       <use xlink:href="#DejaVuSans-30" x="127.246094"/>
       <use xlink:href="#DejaVuSans-30" x="190.869141"/>
       <use xlink:href="#DejaVuSans-30" x="254.492188"/>
       <use xlink:href="#DejaVuSans-30" x="318.115234"/>
      </g>
     </g>
    </g>
    <g id="xtick_13">
     <g id="line2d_18">
      <g>
       <use xlink:href="#med170aaca5" x="196.969967" y="213.662118" style="stroke: #000000; stroke-width: 0.8"/>
      </g>
     </g>
     <g id="text_19">
      <!-- 125000 -->
      <g transform="translate(177.882467 228.260555)scale(0.1 -0.1)">
       <use xlink:href="#DejaVuSans-31"/>
       <use xlink:href="#DejaVuSans-32" x="63.623047"/>
       <use xlink:href="#DejaVuSans-35" x="127.246094"/>
       <use xlink:href="#DejaVuSans-30" x="190.869141"/>
       <use xlink:href="#DejaVuSans-30" x="254.492188"/>
       <use xlink:href="#DejaVuSans-30" x="318.115234"/>
      </g>
     </g>
    </g>
    <g id="xtick_14">
     <g id="line2d_19">
      <g>
       <use xlink:href="#med170aaca5" x="237.492087" y="213.662118" style="stroke: #000000; stroke-width: 0.8"/>
      </g>
     </g>
     <g id="text_20">
      <!-- 150000 -->
      <g transform="translate(218.404587 228.260555)scale(0.1 -0.1)">
       <use xlink:href="#DejaVuSans-31"/>
       <use xlink:href="#DejaVuSans-35" x="63.623047"/>
       <use xlink:href="#DejaVuSans-30" x="127.246094"/>
       <use xlink:href="#DejaVuSans-30" x="190.869141"/>
       <use xlink:href="#DejaVuSans-30" x="254.492188"/>
       <use xlink:href="#DejaVuSans-30" x="318.115234"/>
      </g>
     </g>
    </g>
    <g id="xtick_15">
     <g id="line2d_20">
      <g>
       <use xlink:href="#med170aaca5" x="278.014208" y="213.662118" style="stroke: #000000; stroke-width: 0.8"/>
      </g>
     </g>
     <g id="text_21">
      <!-- 175000 -->
      <g transform="translate(258.926708 228.260555)scale(0.1 -0.1)">
       <use xlink:href="#DejaVuSans-31"/>
       <use xlink:href="#DejaVuSans-37" x="63.623047"/>
       <use xlink:href="#DejaVuSans-35" x="127.246094"/>
       <use xlink:href="#DejaVuSans-30" x="190.869141"/>
       <use xlink:href="#DejaVuSans-30" x="254.492188"/>
       <use xlink:href="#DejaVuSans-30" x="318.115234"/>
      </g>
     </g>
    </g>
    <g id="xtick_16">
     <g id="line2d_21">
      <g>
       <use xlink:href="#med170aaca5" x="318.536328" y="213.662118" style="stroke: #000000; stroke-width: 0.8"/>
      </g>
     </g>
     <g id="text_22">
      <!-- 200000 -->
      <g transform="translate(299.448828 228.260555)scale(0.1 -0.1)">
       <use xlink:href="#DejaVuSans-32"/>
       <use xlink:href="#DejaVuSans-30" x="63.623047"/>
       <use xlink:href="#DejaVuSans-30" x="127.246094"/>
       <use xlink:href="#DejaVuSans-30" x="190.869141"/>
       <use xlink:href="#DejaVuSans-30" x="254.492188"/>
       <use xlink:href="#DejaVuSans-30" x="318.115234"/>
      </g>
     </g>
    </g>
    <g id="xtick_17">
     <g id="line2d_22">
      <g>
       <use xlink:href="#med170aaca5" x="359.058449" y="213.662118" style="stroke: #000000; stroke-width: 0.8"/>
      </g>
     </g>
     <g id="text_23">
      <!-- 225000 -->
      <g transform="translate(339.970949 228.260555)scale(0.1 -0.1)">
       <use xlink:href="#DejaVuSans-32"/>
       <use xlink:href="#DejaVuSans-32" x="63.623047"/>
       <use xlink:href="#DejaVuSans-35" x="127.246094"/>
       <use xlink:href="#DejaVuSans-30" x="190.869141"/>
       <use xlink:href="#DejaVuSans-30" x="254.492188"/>
       <use xlink:href="#DejaVuSans-30" x="318.115234"/>
      </g>
     </g>
    </g>
    <g id="xtick_18">
     <g id="line2d_23">
      <g>
       <use xlink:href="#med170aaca5" x="399.580569" y="213.662118" style="stroke: #000000; stroke-width: 0.8"/>
      </g>
     </g>
     <g id="text_24">
      <!-- 250000 -->
      <g transform="translate(380.493069 228.260555)scale(0.1 -0.1)">
       <use xlink:href="#DejaVuSans-32"/>
       <use xlink:href="#DejaVuSans-35" x="63.623047"/>
       <use xlink:href="#DejaVuSans-30" x="127.246094"/>
       <use xlink:href="#DejaVuSans-30" x="190.869141"/>
       <use xlink:href="#DejaVuSans-30" x="254.492188"/>
       <use xlink:href="#DejaVuSans-30" x="318.115234"/>
      </g>
     </g>
    </g>
    <g id="text_25">
     <!-- time ms -->
     <g transform="translate(215.799844 241.93868)scale(0.1 -0.1)">
      <use xlink:href="#DejaVuSans-74"/>
      <use xlink:href="#DejaVuSans-69" x="39.208984"/>
      <use xlink:href="#DejaVuSans-6d" x="66.992188"/>
      <use xlink:href="#DejaVuSans-65" x="164.404297"/>
      <use xlink:href="#DejaVuSans-20" x="225.927734"/>
      <use xlink:href="#DejaVuSans-6d" x="257.714844"/>
      <use xlink:href="#DejaVuSans-73" x="355.126953"/>
     </g>
    </g>
   </g>
   <g id="matplotlib.axis_4">
    <g id="ytick_4">
     <g id="line2d_24">
      <g>
       <use xlink:href="#mf7f4911dea" x="57.6" y="191.707554" style="stroke: #000000; stroke-width: 0.8"/>
      </g>
     </g>
     <g id="text_26">
      <!-- −15 -->
      <g transform="translate(29.495313 195.506773)scale(0.1 -0.1)">
       <defs>
        <path id="DejaVuSans-2212" d="M 678 2272 
L 4684 2272 
L 4684 1741 
L 678 1741 
L 678 2272 
z
" transform="scale(0.015625)"/>
       </defs>
       <use xlink:href="#DejaVuSans-2212"/>
       <use xlink:href="#DejaVuSans-31" x="83.789062"/>
       <use xlink:href="#DejaVuSans-35" x="147.412109"/>
      </g>
     </g>
    </g>
    <g id="ytick_5">
     <g id="line2d_25">
      <g>
       <use xlink:href="#mf7f4911dea" x="57.6" y="146.467004" style="stroke: #000000; stroke-width: 0.8"/>
      </g>
     </g>
     <g id="text_27">
      <!-- −10 -->
      <g transform="translate(29.495313 150.266223)scale(0.1 -0.1)">
       <use xlink:href="#DejaVuSans-2212"/>
       <use xlink:href="#DejaVuSans-31" x="83.789062"/>
       <use xlink:href="#DejaVuSans-30" x="147.412109"/>
      </g>
     </g>
    </g>
    <g id="text_28">
     <!-- Pitch -->
     <g transform="translate(23.415625 186.697531)rotate(-90)scale(0.1 -0.1)">
      <defs>
       <path id="DejaVuSans-50" d="M 1259 4147 
L 1259 2394 
L 2053 2394 
Q 2494 2394 2734 2622 
Q 2975 2850 2975 3272 
Q 2975 3691 2734 3919 
Q 2494 4147 2053 4147 
L 1259 4147 
z
M 628 4666 
L 2053 4666 
Q 2838 4666 3239 4311 
Q 3641 3956 3641 3272 
Q 3641 2581 3239 2228 
Q 2838 1875 2053 1875 
L 1259 1875 
L 1259 0 
L 628 0 
L 628 4666 
z
" transform="scale(0.015625)"/>
       <path id="DejaVuSans-63" d="M 3122 3366 
L 3122 2828 
Q 2878 2963 2633 3030 
Q 2388 3097 2138 3097 
Q 1578 3097 1268 2742 
Q 959 2388 959 1747 
Q 959 1106 1268 751 
Q 1578 397 2138 397 
Q 2388 397 2633 464 
Q 2878 531 3122 666 
L 3122 134 
Q 2881 22 2623 -34 
Q 2366 -91 2075 -91 
Q 1284 -91 818 406 
Q 353 903 353 1747 
Q 353 2603 823 3093 
Q 1294 3584 2113 3584 
Q 2378 3584 2631 3529 
Q 2884 3475 3122 3366 
z
" transform="scale(0.015625)"/>
       <path id="DejaVuSans-68" d="M 3513 2113 
L 3513 0 
L 2938 0 
L 2938 2094 
Q 2938 2591 2744 2837 
Q 2550 3084 2163 3084 
Q 1697 3084 1428 2787 
Q 1159 2491 1159 1978 
L 1159 0 
L 581 0 
L 581 4863 
L 1159 4863 
L 1159 2956 
Q 1366 3272 1645 3428 
Q 1925 3584 2291 3584 
Q 2894 3584 3203 3211 
Q 3513 2838 3513 2113 
z
" transform="scale(0.015625)"/>
      </defs>
      <use xlink:href="#DejaVuSans-50"/>
      <use xlink:href="#DejaVuSans-69" x="58.052734"/>
      <use xlink:href="#DejaVuSans-74" x="85.835938"/>
      <use xlink:href="#DejaVuSans-63" x="125.044922"/>
      <use xlink:href="#DejaVuSans-68" x="180.025391"/>
     </g>
    </g>
   </g>
   <g id="line2d_26">
    <path d="M 73.832727 155.949436 
L 75.134211 155.697484 
L 76.107211 155.480267 
L 77.732089 155.286378 
L 80.646913 155.195137 
L 85.185422 154.796473 
L 89.725804 154.489051 
L 91.99453 154.439801 
L 97.510764 154.08935 
L 106.921419 153.801109 
L 109.5203 153.711941 
L 115.029091 153.642992 
L 116.325837 153.647657 
L 118.595307 153.65025 
L 123.784706 153.668394 
L 127.350908 153.585966 
L 132.539628 153.340754 
L 133.025704 152.653331 
L 135.622796 151.49985 
L 136.268687 150.852345 
L 137.565303 149.785958 
L 138.869421 148.836734 
L 139.516749 148.661508 
L 141.138147 148.76571 
L 142.434724 149.367594 
L 143.082266 149.230213 
L 143.728953 149.009885 
L 144.380074 148.937307 
L 145.027943 148.691576 
L 146.649662 147.917059 
L 147.623533 147.692584 
L 149.247506 147.044042 
L 149.569373 146.784315 
L 150.541944 145.684749 
L 151.514984 144.775443 
L 152.487748 143.918497 
L 153.463511 143.231074 
L 154.433779 142.551428 
L 155.082981 141.818902 
L 156.703975 140.135597 
L 157.352698 139.315978 
L 158.003445 139.07595 
L 158.65431 138.951529 
L 159.29729 139.198815 
L 160.27409 140.185365 
L 161.894804 142.525507 
L 162.543729 143.100951 
L 163.51693 144.082836 
L 165.786235 144.60281 
L 166.759529 145.057981 
L 169.350004 145.282456 
L 170.326546 145.261201 
L 172.919023 144.717899 
L 173.891784 144.715306 
L 174.215912 144.715306 
L 174.86651 144.478389 
L 176.811305 143.83244 
L 177.460325 143.148127 
L 178.109136 142.377757 
L 178.756563 141.376173 
L 179.40518 140.559145 
L 179.728885 140.303565 
L 180.052685 140.21025 
L 180.378159 140.360073 
L 180.70339 140.814726 
L 181.350661 140.308231 
L 182.001771 140.206102 
L 182.490058 208.05931 
L 183.784692 208.99661 
L 187.027769 209.510363 
L 188.322674 209.499995 
L 191.246713 209.462668 
L 193.511202 209.190499 
L 195.131665 208.994018 
L 196.428836 208.890334 
L 196.753194 208.890334 
L 198.050515 208.293635 
L 200.967026 206.631585 
L 201.941536 206.395186 
L 202.913802 206.292539 
L 203.562727 206.143753 
L 203.889691 205.916167 
L 204.211701 205.846699 
L 204.535192 205.606672 
L 205.184887 205.521132 
L 205.507791 205.478104 
L 205.831259 205.564161 
L 210.375663 204.841486 
L 218.486103 204.486888 
L 222.376829 204.423122 
L 231.131512 204.181539 
L 231.61922 209.864961 
L 233.564981 209.76698 
L 237.788198 209.783051 
L 238.760104 209.816748 
L 243.624634 209.756093 
L 249.152417 209.87533 
L 250.769014 209.929764 
L 257.908397 209.932356 
L 261.797972 209.910582 
L 265.043276 210.055221 
L 267.637529 209.923024 
L 269.906623 209.99664 
L 272.177955 209.956721 
L 275.742516 209.991974 
L 277.038429 210.023079 
L 279.638159 209.903324 
L 280.287324 209.906435 
L 280.769915 208.923513 
L 281.746458 208.940621 
L 282.396491 209.089407 
L 283.366863 209.310253 
L 284.665525 209.365724 
L 285.963587 209.153691 
L 286.607317 209.061413 
L 287.261107 209.043786 
L 290.179835 209.231972 
L 291.475814 209.146433 
L 293.097268 209.000758 
L 295.693965 209.344987 
L 298.290543 209.065041 
L 299.908738 209.102368 
L 301.203066 209.234046 
L 302.178657 209.130881 
L 309.637468 209.189462 
L 317.096018 209.178057 
L 318.069803 209.218493 
L 320.015479 209.000239 
L 322.283719 209.402532 
L 323.581444 209.08837 
L 324.230679 208.927142 
L 325.527185 208.930253 
L 327.796482 209.210717 
L 329.74515 209.02305 
L 329.90484 210.027226 
L 359.09177 210.011674 
L 362.659921 210.037076 
L 364.925299 209.961905 
L 367.84537 209.943242 
L 368.820738 209.939095 
L 373.034447 210.076994 
L 374.006355 210.087363 
L 374.979271 210.055739 
L 378.546493 210.027226 
L 379.030373 209.711509 
L 380.65591 209.74417 
L 385.519271 209.699067 
L 389.733024 209.814675 
L 391.354814 209.837485 
L 392.327893 209.81934 
L 395.896091 209.814156 
L 398.487273 209.778904 
L 398.487273 209.778904 
" clip-path="url(#p8a5f377c64)" style="fill: none; stroke: #1f77b4; stroke-width: 1.5; stroke-linecap: square"/>
   </g>
   <g id="patch_9">
    <path d="M 57.6 213.662118 
L 57.6 135.393882 
" style="fill: none; stroke: #000000; stroke-width: 0.8; stroke-linejoin: miter; stroke-linecap: square"/>
   </g>
   <g id="patch_10">
    <path d="M 414.72 213.662118 
L 414.72 135.393882 
" style="fill: none; stroke: #000000; stroke-width: 0.8; stroke-linejoin: miter; stroke-linecap: square"/>
   </g>
   <g id="patch_11">
    <path d="M 57.6 213.662118 
L 414.72 213.662118 
" style="fill: none; stroke: #000000; stroke-width: 0.8; stroke-linejoin: miter; stroke-linecap: square"/>
   </g>
   <g id="patch_12">
    <path d="M 57.6 135.393882 
L 414.72 135.393882 
" style="fill: none; stroke: #000000; stroke-width: 0.8; stroke-linejoin: miter; stroke-linecap: square"/>
   </g>
   <g id="legend_2">
    <g id="patch_13">
     <path d="M 328.809063 158.072007 
L 407.72 158.072007 
Q 409.72 158.072007 409.72 156.072007 
L 409.72 142.393882 
Q 409.72 140.393882 407.72 140.393882 
L 328.809063 140.393882 
Q 326.809063 140.393882 326.809063 142.393882 
L 326.809063 156.072007 
Q 326.809063 158.072007 328.809063 158.072007 
z
" style="fill: #ffffff; opacity: 0.8; stroke: #cccccc; stroke-linejoin: miter"/>
    </g>
    <g id="line2d_27">
     <path d="M 330.809063 148.49232 
L 340.809063 148.49232 
L 350.809063 148.49232 
" style="fill: none; stroke: #1f77b4; stroke-width: 1.5; stroke-linecap: square"/>
    </g>
    <g id="text_29">
     <!-- pitch deg -->
     <g transform="translate(358.809063 151.99232)scale(0.1 -0.1)">
      <defs>
       <path id="DejaVuSans-70" d="M 1159 525 
L 1159 -1331 
L 581 -1331 
L 581 3500 
L 1159 3500 
L 1159 2969 
Q 1341 3281 1617 3432 
Q 1894 3584 2278 3584 
Q 2916 3584 3314 3078 
Q 3713 2572 3713 1747 
Q 3713 922 3314 415 
Q 2916 -91 2278 -91 
Q 1894 -91 1617 61 
Q 1341 213 1159 525 
z
M 3116 1747 
Q 3116 2381 2855 2742 
Q 2594 3103 2138 3103 
Q 1681 3103 1420 2742 
Q 1159 2381 1159 1747 
Q 1159 1113 1420 752 
Q 1681 391 2138 391 
Q 2594 391 2855 752 
Q 3116 1113 3116 1747 
z
" transform="scale(0.015625)"/>
       <path id="DejaVuSans-67" d="M 2906 1791 
Q 2906 2416 2648 2759 
Q 2391 3103 1925 3103 
Q 1463 3103 1205 2759 
Q 947 2416 947 1791 
Q 947 1169 1205 825 
Q 1463 481 1925 481 
Q 2391 481 2648 825 
Q 2906 1169 2906 1791 
z
M 3481 434 
Q 3481 -459 3084 -895 
Q 2688 -1331 1869 -1331 
Q 1566 -1331 1297 -1286 
Q 1028 -1241 775 -1147 
L 775 -588 
Q 1028 -725 1275 -790 
Q 1522 -856 1778 -856 
Q 2344 -856 2625 -561 
Q 2906 -266 2906 331 
L 2906 616 
Q 2728 306 2450 153 
Q 2172 0 1784 0 
Q 1141 0 747 490 
Q 353 981 353 1791 
Q 353 2603 747 3093 
Q 1141 3584 1784 3584 
Q 2172 3584 2450 3431 
Q 2728 3278 2906 2969 
L 2906 3500 
L 3481 3500 
L 3481 434 
z
" transform="scale(0.015625)"/>
      </defs>
      <use xlink:href="#DejaVuSans-70"/>
      <use xlink:href="#DejaVuSans-69" x="63.476562"/>
      <use xlink:href="#DejaVuSans-74" x="91.259766"/>
      <use xlink:href="#DejaVuSans-63" x="130.46875"/>
      <use xlink:href="#DejaVuSans-68" x="185.449219"/>
      <use xlink:href="#DejaVuSans-20" x="248.828125"/>
      <use xlink:href="#DejaVuSans-64" x="280.615234"/>
      <use xlink:href="#DejaVuSans-65" x="344.091797"/>
      <use xlink:href="#DejaVuSans-67" x="405.615234"/>
     </g>
    </g>
   </g>
  </g>
  <g id="axes_3">
   <g id="patch_14">
    <path d="M 57.6 307.584 
L 414.72 307.584 
L 414.72 229.315765 
L 57.6 229.315765 
z
" style="fill: #ffffff"/>
   </g>
   <g id="matplotlib.axis_5">
    <g id="xtick_19">
     <g id="line2d_28">
      <g>
       <use xlink:href="#med170aaca5" x="75.403605" y="307.584" style="stroke: #000000; stroke-width: 0.8"/>
      </g>
     </g>
     <g id="text_30">
      <!-- 50000 -->
      <g transform="translate(59.497355 322.182437)scale(0.1 -0.1)">
       <use xlink:href="#DejaVuSans-35"/>
       <use xlink:href="#DejaVuSans-30" x="63.623047"/>
       <use xlink:href="#DejaVuSans-30" x="127.246094"/>
       <use xlink:href="#DejaVuSans-30" x="190.869141"/>
       <use xlink:href="#DejaVuSans-30" x="254.492188"/>
      </g>
     </g>
    </g>
    <g id="xtick_20">
     <g id="line2d_29">
      <g>
       <use xlink:href="#med170aaca5" x="115.925726" y="307.584" style="stroke: #000000; stroke-width: 0.8"/>
      </g>
     </g>
     <g id="text_31">
      <!-- 75000 -->
      <g transform="translate(100.019476 322.182437)scale(0.1 -0.1)">
       <use xlink:href="#DejaVuSans-37"/>
       <use xlink:href="#DejaVuSans-35" x="63.623047"/>
       <use xlink:href="#DejaVuSans-30" x="127.246094"/>
       <use xlink:href="#DejaVuSans-30" x="190.869141"/>
       <use xlink:href="#DejaVuSans-30" x="254.492188"/>
      </g>
     </g>
    </g>
    <g id="xtick_21">
     <g id="line2d_30">
      <g>
       <use xlink:href="#med170aaca5" x="156.447846" y="307.584" style="stroke: #000000; stroke-width: 0.8"/>
      </g>
     </g>
     <g id="text_32">
      <!-- 100000 -->
      <g transform="translate(137.360346 322.182437)scale(0.1 -0.1)">
       <use xlink:href="#DejaVuSans-31"/>
       <use xlink:href="#DejaVuSans-30" x="63.623047"/>
       <use xlink:href="#DejaVuSans-30" x="127.246094"/>
       <use xlink:href="#DejaVuSans-30" x="190.869141"/>
       <use xlink:href="#DejaVuSans-30" x="254.492188"/>
       <use xlink:href="#DejaVuSans-30" x="318.115234"/>
      </g>
     </g>
    </g>
    <g id="xtick_22">
     <g id="line2d_31">
      <g>
       <use xlink:href="#med170aaca5" x="196.969967" y="307.584" style="stroke: #000000; stroke-width: 0.8"/>
      </g>
     </g>
     <g id="text_33">
      <!-- 125000 -->
      <g transform="translate(177.882467 322.182437)scale(0.1 -0.1)">
       <use xlink:href="#DejaVuSans-31"/>
       <use xlink:href="#DejaVuSans-32" x="63.623047"/>
       <use xlink:href="#DejaVuSans-35" x="127.246094"/>
       <use xlink:href="#DejaVuSans-30" x="190.869141"/>
       <use xlink:href="#DejaVuSans-30" x="254.492188"/>
       <use xlink:href="#DejaVuSans-30" x="318.115234"/>
      </g>
     </g>
    </g>
    <g id="xtick_23">
     <g id="line2d_32">
      <g>
       <use xlink:href="#med170aaca5" x="237.492087" y="307.584" style="stroke: #000000; stroke-width: 0.8"/>
      </g>
     </g>
     <g id="text_34">
      <!-- 150000 -->
      <g transform="translate(218.404587 322.182437)scale(0.1 -0.1)">
       <use xlink:href="#DejaVuSans-31"/>
       <use xlink:href="#DejaVuSans-35" x="63.623047"/>
       <use xlink:href="#DejaVuSans-30" x="127.246094"/>
       <use xlink:href="#DejaVuSans-30" x="190.869141"/>
       <use xlink:href="#DejaVuSans-30" x="254.492188"/>
       <use xlink:href="#DejaVuSans-30" x="318.115234"/>
      </g>
     </g>
    </g>
    <g id="xtick_24">
     <g id="line2d_33">
      <g>
       <use xlink:href="#med170aaca5" x="278.014208" y="307.584" style="stroke: #000000; stroke-width: 0.8"/>
      </g>
     </g>
     <g id="text_35">
      <!-- 175000 -->
      <g transform="translate(258.926708 322.182437)scale(0.1 -0.1)">
       <use xlink:href="#DejaVuSans-31"/>
       <use xlink:href="#DejaVuSans-37" x="63.623047"/>
       <use xlink:href="#DejaVuSans-35" x="127.246094"/>
       <use xlink:href="#DejaVuSans-30" x="190.869141"/>
       <use xlink:href="#DejaVuSans-30" x="254.492188"/>
       <use xlink:href="#DejaVuSans-30" x="318.115234"/>
      </g>
     </g>
    </g>
    <g id="xtick_25">
     <g id="line2d_34">
      <g>
       <use xlink:href="#med170aaca5" x="318.536328" y="307.584" style="stroke: #000000; stroke-width: 0.8"/>
      </g>
     </g>
     <g id="text_36">
      <!-- 200000 -->
      <g transform="translate(299.448828 322.182437)scale(0.1 -0.1)">
       <use xlink:href="#DejaVuSans-32"/>
       <use xlink:href="#DejaVuSans-30" x="63.623047"/>
       <use xlink:href="#DejaVuSans-30" x="127.246094"/>
       <use xlink:href="#DejaVuSans-30" x="190.869141"/>
       <use xlink:href="#DejaVuSans-30" x="254.492188"/>
       <use xlink:href="#DejaVuSans-30" x="318.115234"/>
      </g>
     </g>
    </g>
    <g id="xtick_26">
     <g id="line2d_35">
      <g>
       <use xlink:href="#med170aaca5" x="359.058449" y="307.584" style="stroke: #000000; stroke-width: 0.8"/>
      </g>
     </g>
     <g id="text_37">
      <!-- 225000 -->
      <g transform="translate(339.970949 322.182437)scale(0.1 -0.1)">
       <use xlink:href="#DejaVuSans-32"/>
       <use xlink:href="#DejaVuSans-32" x="63.623047"/>
       <use xlink:href="#DejaVuSans-35" x="127.246094"/>
       <use xlink:href="#DejaVuSans-30" x="190.869141"/>
       <use xlink:href="#DejaVuSans-30" x="254.492188"/>
       <use xlink:href="#DejaVuSans-30" x="318.115234"/>
      </g>
     </g>
    </g>
    <g id="xtick_27">
     <g id="line2d_36">
      <g>
       <use xlink:href="#med170aaca5" x="399.580569" y="307.584" style="stroke: #000000; stroke-width: 0.8"/>
      </g>
     </g>
     <g id="text_38">
      <!-- 250000 -->
      <g transform="translate(380.493069 322.182437)scale(0.1 -0.1)">
       <use xlink:href="#DejaVuSans-32"/>
       <use xlink:href="#DejaVuSans-35" x="63.623047"/>
       <use xlink:href="#DejaVuSans-30" x="127.246094"/>
       <use xlink:href="#DejaVuSans-30" x="190.869141"/>
       <use xlink:href="#DejaVuSans-30" x="254.492188"/>
       <use xlink:href="#DejaVuSans-30" x="318.115234"/>
      </g>
     </g>
    </g>
    <g id="text_39">
     <!-- time ms -->
     <g transform="translate(215.799844 335.860562)scale(0.1 -0.1)">
      <use xlink:href="#DejaVuSans-74"/>
      <use xlink:href="#DejaVuSans-69" x="39.208984"/>
      <use xlink:href="#DejaVuSans-6d" x="66.992188"/>
      <use xlink:href="#DejaVuSans-65" x="164.404297"/>
      <use xlink:href="#DejaVuSans-20" x="225.927734"/>
      <use xlink:href="#DejaVuSans-6d" x="257.714844"/>
      <use xlink:href="#DejaVuSans-73" x="355.126953"/>
     </g>
    </g>
   </g>
   <g id="matplotlib.axis_6">
    <g id="ytick_6">
     <g id="line2d_37">
      <g>
       <use xlink:href="#mf7f4911dea" x="57.6" y="272.477234" style="stroke: #000000; stroke-width: 0.8"/>
      </g>
     </g>
     <g id="text_40">
      <!-- −10 -->
      <g transform="translate(29.495313 276.276453)scale(0.1 -0.1)">
       <use xlink:href="#DejaVuSans-2212"/>
       <use xlink:href="#DejaVuSans-31" x="83.789062"/>
       <use xlink:href="#DejaVuSans-30" x="147.412109"/>
      </g>
     </g>
    </g>
    <g id="ytick_7">
     <g id="line2d_38">
      <g>
       <use xlink:href="#mf7f4911dea" x="57.6" y="232.873412" style="stroke: #000000; stroke-width: 0.8"/>
      </g>
     </g>
     <g id="text_41">
      <!-- 0 -->
      <g transform="translate(44.2375 236.672631)scale(0.1 -0.1)">
       <use xlink:href="#DejaVuSans-30"/>
      </g>
     </g>
    </g>
    <g id="text_42">
     <!-- Roll -->
     <g transform="translate(23.415625 277.536601)rotate(-90)scale(0.1 -0.1)">
      <defs>
       <path id="DejaVuSans-52" d="M 2841 2188 
Q 3044 2119 3236 1894 
Q 3428 1669 3622 1275 
L 4263 0 
L 3584 0 
L 2988 1197 
Q 2756 1666 2539 1819 
Q 2322 1972 1947 1972 
L 1259 1972 
L 1259 0 
L 628 0 
L 628 4666 
L 2053 4666 
Q 2853 4666 3247 4331 
Q 3641 3997 3641 3322 
Q 3641 2881 3436 2590 
Q 3231 2300 2841 2188 
z
M 1259 4147 
L 1259 2491 
L 2053 2491 
Q 2509 2491 2742 2702 
Q 2975 2913 2975 3322 
Q 2975 3731 2742 3939 
Q 2509 4147 2053 4147 
L 1259 4147 
z
" transform="scale(0.015625)"/>
       <path id="DejaVuSans-6f" d="M 1959 3097 
Q 1497 3097 1228 2736 
Q 959 2375 959 1747 
Q 959 1119 1226 758 
Q 1494 397 1959 397 
Q 2419 397 2687 759 
Q 2956 1122 2956 1747 
Q 2956 2369 2687 2733 
Q 2419 3097 1959 3097 
z
M 1959 3584 
Q 2709 3584 3137 3096 
Q 3566 2609 3566 1747 
Q 3566 888 3137 398 
Q 2709 -91 1959 -91 
Q 1206 -91 779 398 
Q 353 888 353 1747 
Q 353 2609 779 3096 
Q 1206 3584 1959 3584 
z
" transform="scale(0.015625)"/>
      </defs>
      <use xlink:href="#DejaVuSans-52"/>
      <use xlink:href="#DejaVuSans-6f" x="64.982422"/>
      <use xlink:href="#DejaVuSans-6c" x="126.164062"/>
      <use xlink:href="#DejaVuSans-6c" x="153.947266"/>
     </g>
    </g>
   </g>
   <g id="line2d_39">
    <path d="M 73.832727 293.244346 
L 74.480474 292.890588 
L 74.807577 292.785301 
L 75.783384 292.188973 
L 79.026205 291.216196 
L 79.3518 291.216196 
L 80.323873 290.928243 
L 81.620003 290.577208 
L 84.536941 289.759867 
L 97.510764 287.517511 
L 105.298662 286.758486 
L 111.786826 286.374095 
L 114.056473 286.319409 
L 123.459227 286.06504 
L 127.027889 285.976997 
L 128.324538 285.875567 
L 129.620618 285.819746 
L 131.566744 285.776633 
L 132.539628 285.751673 
L 133.025704 304.026353 
L 135.296978 303.139122 
L 138.544093 301.246893 
L 139.193733 301.055379 
L 140.166601 301.060371 
L 141.138147 301.292957 
L 143.728953 302.165665 
L 145.352445 302.073992 
L 146.977676 301.993438 
L 148.597525 301.922187 
L 149.247506 301.795569 
L 149.893829 301.307025 
L 151.83806 299.530749 
L 152.487748 299.155208 
L 153.144822 298.814157 
L 155.082981 297.907412 
L 157.352698 297.211923 
L 158.65431 297.321522 
L 159.29729 297.63852 
L 160.919829 299.101202 
L 161.570132 299.73134 
L 163.191536 301.070355 
L 163.84024 301.215579 
L 165.136159 301.448392 
L 166.434081 301.617443 
L 169.028056 302.167026 
L 171.296339 302.250077 
L 173.242284 301.921279 
L 175.83796 301.474033 
L 176.48905 301.100988 
L 178.109136 299.547314 
L 178.756563 298.780801 
L 179.40518 298.165412 
L 180.052685 297.856583 
L 180.378159 297.861802 
L 180.70339 298.398679 
L 181.027386 298.420236 
L 181.676992 298.2707 
L 182.811433 297.967544 
L 184.432079 297.948256 
L 185.72886 297.937818 
L 188.645695 297.808251 
L 190.592245 297.857264 
L 192.537923 297.780567 
L 195.453099 297.714536 
L 197.078125 297.735639 
L 200.32252 297.661665 
L 214.595156 297.867929 
L 224.644975 297.976847 
L 226.591553 297.992731 
L 228.861184 297.984336 
L 231.131512 297.944853 
L 231.61922 300.966882 
L 234.214562 300.894043 
L 237.460268 300.928761 
L 243.948382 300.887009 
L 246.231901 300.863183 
L 248.82782 300.909473 
L 250.448913 300.972101 
L 254.018148 300.958714 
L 257.261223 300.975051 
L 264.723445 300.964386 
L 266.019 300.917415 
L 267.315292 300.865452 
L 268.610331 300.913785 
L 270.230764 300.907658 
L 270.880067 300.922181 
L 275.418309 300.920592 
L 277.364327 300.949864 
L 278.662099 300.874983 
L 280.287324 300.805774 
L 281.421419 301.077389 
L 282.396491 301.092139 
L 283.688901 300.906524 
L 285.963587 300.94646 
L 292.774643 300.914919 
L 294.071243 300.890867 
L 295.36803 300.98912 
L 297.641182 300.980724 
L 299.908738 300.845711 
L 304.448465 300.968698 
L 306.718292 300.971648 
L 309.960774 301.055379 
L 313.531348 301.02588 
L 314.826817 301.129352 
L 320.663047 301.001146 
L 324.554717 301.144782 
L 329.418736 301.164978 
L 329.74515 232.873412 
L 329.90484 301.05379 
L 336.065429 301.022022 
L 337.691346 300.979136 
L 345.145248 300.970967 
L 346.447771 300.928534 
L 354.875439 300.913558 
L 356.17219 300.913331 
L 358.766795 300.895859 
L 360.385371 300.864998 
L 366.872151 300.803732 
L 370.762919 300.858872 
L 375.951526 300.847753 
L 377.248654 300.831869 
L 378.546493 300.84798 
L 380.330129 300.890186 
L 390.059625 301.022022 
L 391.679356 301.085558 
L 394.271394 301.039041 
L 396.544663 301.024065 
L 398.487273 300.985035 
L 398.487273 300.985035 
" clip-path="url(#pe98d22b90e)" style="fill: none; stroke: #1f77b4; stroke-width: 1.5; stroke-linecap: square"/>
   </g>
   <g id="patch_15">
    <path d="M 57.6 307.584 
L 57.6 229.315765 
" style="fill: none; stroke: #000000; stroke-width: 0.8; stroke-linejoin: miter; stroke-linecap: square"/>
   </g>
   <g id="patch_16">
    <path d="M 414.72 307.584 
L 414.72 229.315765 
" style="fill: none; stroke: #000000; stroke-width: 0.8; stroke-linejoin: miter; stroke-linecap: square"/>
   </g>
   <g id="patch_17">
    <path d="M 57.6 307.584 
L 414.72 307.584 
" style="fill: none; stroke: #000000; stroke-width: 0.8; stroke-linejoin: miter; stroke-linecap: square"/>
   </g>
   <g id="patch_18">
    <path d="M 57.6 229.315765 
L 414.72 229.315765 
" style="fill: none; stroke: #000000; stroke-width: 0.8; stroke-linejoin: miter; stroke-linecap: square"/>
   </g>
   <g id="legend_3">
    <g id="patch_19">
     <path d="M 338.130938 251.99389 
L 407.72 251.99389 
Q 409.72 251.99389 409.72 249.99389 
L 409.72 236.315765 
Q 409.72 234.315765 407.72 234.315765 
L 338.130938 234.315765 
Q 336.130938 234.315765 336.130938 236.315765 
L 336.130938 249.99389 
Q 336.130938 251.99389 338.130938 251.99389 
z
" style="fill: #ffffff; opacity: 0.8; stroke: #cccccc; stroke-linejoin: miter"/>
    </g>
    <g id="line2d_40">
     <path d="M 340.130938 242.414202 
L 350.130938 242.414202 
L 360.130938 242.414202 
" style="fill: none; stroke: #1f77b4; stroke-width: 1.5; stroke-linecap: square"/>
    </g>
    <g id="text_43">
     <!-- roll deg -->
     <g transform="translate(368.130938 245.914202)scale(0.1 -0.1)">
      <defs>
       <path id="DejaVuSans-72" d="M 2631 2963 
Q 2534 3019 2420 3045 
Q 2306 3072 2169 3072 
Q 1681 3072 1420 2755 
Q 1159 2438 1159 1844 
L 1159 0 
L 581 0 
L 581 3500 
L 1159 3500 
L 1159 2956 
Q 1341 3275 1631 3429 
Q 1922 3584 2338 3584 
Q 2397 3584 2469 3576 
Q 2541 3569 2628 3553 
L 2631 2963 
z
" transform="scale(0.015625)"/>
      </defs>
      <use xlink:href="#DejaVuSans-72"/>
      <use xlink:href="#DejaVuSans-6f" x="38.863281"/>
      <use xlink:href="#DejaVuSans-6c" x="100.044922"/>
      <use xlink:href="#DejaVuSans-6c" x="127.828125"/>
      <use xlink:href="#DejaVuSans-20" x="155.611328"/>
      <use xlink:href="#DejaVuSans-64" x="187.398438"/>
      <use xlink:href="#DejaVuSans-65" x="250.875"/>
      <use xlink:href="#DejaVuSans-67" x="312.398438"/>
     </g>
    </g>
   </g>
  </g>
 </g>
 <defs>
  <clipPath id="p5c4c0d83b5">
   <rect x="57.6" y="41.472" width="357.12" height="78.268235"/>
  </clipPath>
  <clipPath id="p8a5f377c64">
   <rect x="57.6" y="135.393882" width="357.12" height="78.268235"/>
  </clipPath>
  <clipPath id="pe98d22b90e">
   <rect x="57.6" y="229.315765" width="357.12" height="78.268235"/>
  </clipPath>
 </defs>
</svg>
