G04 Layer: BottomLayer*
G04 EasyEDA v6.5.23, 2023-06-13 11:48:38*
G04 e563b856323e489fb497cbcb29ae2dd2,10*
G04 Gerber Generator version 0.2*
G04 Scale: 100 percent, Rotated: No, Reflected: No *
G04 Dimensions in millimeters *
G04 leading zeros omitted , absolute positions ,4 integer and 5 decimal *
%FSLAX45Y45*%
%MOMM*%

%ADD10C,0.4000*%
%ADD11C,0.5000*%
%ADD12C,0.2200*%
%ADD13C,1.5240*%
%ADD14C,1.8796*%
%ADD15R,2.0320X2.0320*%
%ADD16C,2.0320*%
%ADD17R,2.2860X1.2700*%
%ADD18O,2.286X1.27*%
%ADD19C,1.6000*%
%ADD20R,1.6000X1.6000*%
%ADD21R,1.7000X1.7000*%
%ADD22C,1.7000*%
%ADD23R,1.8000X1.8000*%
%ADD24C,1.8000*%

%LPD*%
D10*
X756920Y2506979D02*
G01*
X762000Y2501900D01*
X1054100Y2501900D01*
X1181100Y2374900D01*
X1181100Y317500D01*
X1346200Y152400D01*
X5461000Y152400D01*
X5600700Y292100D01*
X5600700Y5130800D01*
X5511800Y5219700D01*
X5080000Y2980207D02*
G01*
X5080000Y482600D01*
X4864100Y266700D01*
X1549400Y266700D01*
X1358900Y457200D01*
X1358900Y3073400D01*
X1155700Y3276600D01*
X1148079Y3268979D01*
X756920Y3268979D01*
D11*
X5080000Y4030192D02*
G01*
X5080000Y5041900D01*
X4902200Y5219700D01*
X4750793Y5219700D01*
D10*
X756920Y3522979D02*
G01*
X1277620Y3522979D01*
X1536700Y3263900D01*
X1536700Y546100D01*
X1714500Y368300D01*
X4699000Y368300D01*
X4813300Y482600D01*
X4813300Y660400D01*
X756920Y3776979D02*
G01*
X1303020Y3776979D01*
X1701800Y3378200D01*
X1701800Y660400D01*
X1892300Y469900D01*
X4533900Y469900D01*
X4648200Y584200D01*
X4648200Y850900D01*
X4711700Y914400D01*
X4813325Y914400D01*
X756920Y4030979D02*
G01*
X1328420Y4030979D01*
X1879600Y3479800D01*
X1879600Y774700D01*
X2070100Y584200D01*
X4445000Y584200D01*
X4546600Y685800D01*
X4546600Y1066800D01*
X4648200Y1168400D01*
X4813325Y1168400D01*
X756920Y4284979D02*
G01*
X1379220Y4284979D01*
X2057400Y3606800D01*
X2057400Y876300D01*
X2247900Y685800D01*
X4368800Y685800D01*
X4445000Y762000D01*
X4445000Y1333500D01*
X4533900Y1422400D01*
X4813325Y1422400D01*
D11*
X756920Y5554979D02*
G01*
X274320Y5554979D01*
X177800Y5651500D01*
X177800Y6489700D01*
X292100Y6604000D01*
X1175004Y6604000D01*
X1424990Y6604000D02*
G01*
X3898900Y6604000D01*
X4127500Y6375400D01*
X4127500Y4699000D01*
X3899408Y4470907D01*
X3519931Y4470907D01*
D10*
X5511800Y5219700D02*
G01*
X5511800Y5588000D01*
X4495800Y6604000D01*
X3632200Y6604000D01*
D11*
X250012Y3011995D02*
G01*
X252996Y3014979D01*
X756996Y3014979D01*
X249986Y1487995D02*
G01*
X252971Y1490979D01*
X756996Y1490979D01*
X250012Y1741995D02*
G01*
X252996Y1744979D01*
X756996Y1744979D01*
X250012Y1995995D02*
G01*
X252996Y1998979D01*
X756996Y1998979D01*
X250012Y2249995D02*
G01*
X252996Y2252979D01*
X756996Y2252979D01*
X250012Y2503995D02*
G01*
X252996Y2506979D01*
X756996Y2506979D01*
X250012Y2757995D02*
G01*
X252996Y2760979D01*
X756996Y2760979D01*
X756996Y4538979D02*
G01*
X751987Y4543988D01*
X249986Y4543988D01*
X756996Y4792979D02*
G01*
X255021Y4792979D01*
X250012Y4797988D01*
X756996Y5046979D02*
G01*
X255021Y5046979D01*
X250012Y5051988D01*
X756996Y5300979D02*
G01*
X255021Y5300979D01*
X250012Y5305988D01*
X266725Y5308600D02*
G01*
X274335Y5300990D01*
D12*
X3042996Y4030992D02*
G01*
X3238588Y3835400D01*
X3937000Y3835400D01*
X4076700Y3695700D01*
X4241800Y3695700D01*
X3042996Y3776992D02*
G01*
X3238588Y3581400D01*
X3949700Y3581400D01*
X4089400Y3441700D01*
X4241800Y3441700D01*
X3042996Y3522992D02*
G01*
X3238588Y3327400D01*
X3949700Y3327400D01*
X4089400Y3187700D01*
X4241800Y3187700D01*
X3042996Y3268992D02*
G01*
X3238588Y3073400D01*
X3924300Y3073400D01*
X4064000Y2933700D01*
X4241800Y2933700D01*
X3042996Y3014992D02*
G01*
X3238588Y2819400D01*
X3911600Y2819400D01*
X4051300Y2679700D01*
X4241800Y2679700D01*
X3042996Y2760992D02*
G01*
X3238588Y2565400D01*
X3962400Y2565400D01*
X4102100Y2425700D01*
X4241800Y2425700D01*
X3042996Y2506992D02*
G01*
X3378288Y2171700D01*
X4241800Y2171700D01*
X3042996Y2252992D02*
G01*
X3378288Y1917700D01*
X4241800Y1917700D01*
X3042996Y1998992D02*
G01*
X3378288Y1663700D01*
X4241800Y1663700D01*
X3042996Y1744992D02*
G01*
X3378288Y1409700D01*
X4241800Y1409700D01*
X3042996Y1490992D02*
G01*
X3378288Y1155700D01*
X4241800Y1155700D01*
X3042996Y1236992D02*
G01*
X3378288Y901700D01*
X4241800Y901700D01*
D11*
X4241800Y3949700D02*
G01*
X4127500Y4076700D01*
X4127500Y4699000D01*
X756920Y5808979D02*
G01*
X762000Y5814060D01*
X762000Y5981700D01*
X863600Y6083300D01*
X3810000Y6083300D01*
X3937000Y5956300D01*
X3937000Y4838700D01*
X3823208Y4724907D01*
X3519931Y4724907D01*
X3042996Y4538992D02*
G01*
X3048088Y4533900D01*
X3187700Y4533900D01*
X3213100Y4508500D01*
X3213100Y4254500D01*
X3504618Y3962981D01*
X3519980Y3962981D01*
X3042996Y5300992D02*
G01*
X3048088Y5295900D01*
X3263900Y5295900D01*
X3327400Y5232400D01*
X3327400Y4409561D01*
X3519980Y4216981D01*
X3042920Y5554979D02*
G01*
X3657600Y5552947D01*
X3042920Y5808979D02*
G01*
X3657600Y5806947D01*
D13*
G01*
X3519982Y2438984D03*
G01*
X3519982Y4724984D03*
G01*
X3519982Y4470984D03*
G01*
X3519982Y4216984D03*
G01*
X3519982Y3962984D03*
G01*
X3519982Y3708984D03*
G01*
X3519982Y3454984D03*
G01*
X3519982Y3200984D03*
G01*
X3519982Y2946984D03*
G01*
X3519982Y2692984D03*
D14*
G01*
X5080000Y2980207D03*
G01*
X5080000Y4030192D03*
D15*
G01*
X5511800Y5219700D03*
D16*
G01*
X4750790Y5219700D03*
D17*
G01*
X756996Y5808979D03*
D18*
G01*
X756996Y5554979D03*
G01*
X756996Y5300979D03*
G01*
X756996Y5046979D03*
G01*
X756996Y4792979D03*
G01*
X756996Y4538979D03*
G01*
X756996Y4284979D03*
G01*
X756996Y4030979D03*
G01*
X756996Y3776979D03*
G01*
X756996Y3522979D03*
G01*
X756996Y3268979D03*
G01*
X756996Y3014979D03*
G01*
X756996Y2760979D03*
G01*
X756996Y2506979D03*
G01*
X756996Y2252979D03*
G01*
X756996Y1998979D03*
G01*
X756996Y1744979D03*
G01*
X756996Y1490979D03*
G01*
X756996Y1236979D03*
G01*
X3042996Y1236979D03*
G01*
X3042996Y1490979D03*
G01*
X3042996Y1744979D03*
G01*
X3042996Y1998979D03*
G01*
X3042996Y2252979D03*
G01*
X3042996Y2506979D03*
G01*
X3042996Y2760979D03*
G01*
X3042996Y3014979D03*
G01*
X3042996Y3268979D03*
G01*
X3042996Y3522979D03*
G01*
X3042996Y3776979D03*
G01*
X3042996Y4030979D03*
G01*
X3042996Y4284979D03*
G01*
X3042996Y4538979D03*
G01*
X3042996Y4792979D03*
G01*
X3042996Y5046979D03*
G01*
X3042996Y5300979D03*
G01*
X3042996Y5554979D03*
G01*
X3042996Y5808979D03*
D19*
G01*
X1175004Y6604000D03*
D20*
G01*
X1424990Y6604000D03*
D21*
G01*
X4813300Y660400D03*
D22*
G01*
X4813325Y914400D03*
G01*
X4813325Y1168400D03*
G01*
X4813325Y1422400D03*
D20*
G01*
X4241800Y901700D03*
D19*
G01*
X4241800Y1155700D03*
G01*
X4241800Y1409700D03*
G01*
X4241800Y1663700D03*
G01*
X4241800Y1917700D03*
G01*
X4241800Y2171700D03*
G01*
X4241800Y2425700D03*
G01*
X4241800Y2679700D03*
G01*
X4241800Y2933700D03*
G01*
X4241800Y3187700D03*
G01*
X4241800Y3441700D03*
G01*
X4241800Y3695700D03*
G01*
X4241800Y3949700D03*
D23*
G01*
X3657600Y5552998D03*
D24*
G01*
X3657600Y5806998D03*
D21*
G01*
X249986Y1487982D03*
D22*
G01*
X250012Y1741982D03*
G01*
X250012Y1995982D03*
G01*
X250012Y2249982D03*
G01*
X250012Y2503982D03*
G01*
X250012Y2757982D03*
G01*
X250012Y3011982D03*
D21*
G01*
X249986Y4543983D03*
D22*
G01*
X250012Y4797983D03*
G01*
X250012Y5051983D03*
G01*
X250012Y5305983D03*
M02*
