G04 Layer: TopLayer*
G04 EasyEDA v6.5.23, 2023-06-13 11:48:38*
G04 e563b856323e489fb497cbcb29ae2dd2,10*
G04 Gerber Generator version 0.2*
G04 Scale: 100 percent, Rotated: No, Reflected: No *
G04 Dimensions in millimeters *
G04 leading zeros omitted , absolute positions ,4 integer and 5 decimal *
%FSLAX45Y45*%
%MOMM*%

%ADD10C,0.2032*%
%ADD11C,1.5240*%
%ADD12C,1.8796*%
%ADD13R,2.0320X2.0320*%
%ADD14C,2.0320*%
%ADD15R,2.2860X1.2700*%
%ADD16O,2.286X1.27*%
%ADD17C,1.6000*%
%ADD18R,1.6000X1.6000*%
%ADD19R,1.7000X1.7000*%
%ADD20C,1.7000*%
%ADD21R,1.8000X1.8000*%
%ADD22C,1.8000*%

%LPD*%
D10*
X1522729Y6813550D02*
G01*
X1513586Y6832092D01*
X1495044Y6850634D01*
X1476755Y6859778D01*
X1439671Y6859778D01*
X1421129Y6850634D01*
X1402842Y6832092D01*
X1393444Y6813550D01*
X1384300Y6785863D01*
X1384300Y6739889D01*
X1393444Y6711950D01*
X1402842Y6693662D01*
X1421129Y6675120D01*
X1439671Y6665976D01*
X1476755Y6665976D01*
X1495044Y6675120D01*
X1513586Y6693662D01*
X1522729Y6711950D01*
X1522729Y6739889D01*
X1476755Y6739889D02*
G01*
X1522729Y6739889D01*
X1583689Y6859778D02*
G01*
X1583689Y6665976D01*
X1583689Y6859778D02*
G01*
X1713229Y6665976D01*
X1713229Y6859778D02*
G01*
X1713229Y6665976D01*
X1774189Y6859778D02*
G01*
X1774189Y6665976D01*
X1774189Y6859778D02*
G01*
X1838705Y6859778D01*
X1866392Y6850634D01*
X1884934Y6832092D01*
X1894078Y6813550D01*
X1903476Y6785863D01*
X1903476Y6739889D01*
X1894078Y6711950D01*
X1884934Y6693662D01*
X1866392Y6675120D01*
X1838705Y6665976D01*
X1774189Y6665976D01*
D11*
G01*
X3519982Y2438984D03*
G01*
X3519982Y4724984D03*
G01*
X3519982Y4470984D03*
G01*
X3519982Y4216984D03*
G01*
X3519982Y3962984D03*
G01*
X3519982Y3708984D03*
G01*
X3519982Y3454984D03*
G01*
X3519982Y3200984D03*
G01*
X3519982Y2946984D03*
G01*
X3519982Y2692984D03*
D12*
G01*
X5080000Y2980207D03*
G01*
X5080000Y4030192D03*
D13*
G01*
X5511800Y5219700D03*
D14*
G01*
X4750790Y5219700D03*
D15*
G01*
X756996Y5808979D03*
D16*
G01*
X756996Y5554979D03*
G01*
X756996Y5300979D03*
G01*
X756996Y5046979D03*
G01*
X756996Y4792979D03*
G01*
X756996Y4538979D03*
G01*
X756996Y4284979D03*
G01*
X756996Y4030979D03*
G01*
X756996Y3776979D03*
G01*
X756996Y3522979D03*
G01*
X756996Y3268979D03*
G01*
X756996Y3014979D03*
G01*
X756996Y2760979D03*
G01*
X756996Y2506979D03*
G01*
X756996Y2252979D03*
G01*
X756996Y1998979D03*
G01*
X756996Y1744979D03*
G01*
X756996Y1490979D03*
G01*
X756996Y1236979D03*
G01*
X3042996Y1236979D03*
G01*
X3042996Y1490979D03*
G01*
X3042996Y1744979D03*
G01*
X3042996Y1998979D03*
G01*
X3042996Y2252979D03*
G01*
X3042996Y2506979D03*
G01*
X3042996Y2760979D03*
G01*
X3042996Y3014979D03*
G01*
X3042996Y3268979D03*
G01*
X3042996Y3522979D03*
G01*
X3042996Y3776979D03*
G01*
X3042996Y4030979D03*
G01*
X3042996Y4284979D03*
G01*
X3042996Y4538979D03*
G01*
X3042996Y4792979D03*
G01*
X3042996Y5046979D03*
G01*
X3042996Y5300979D03*
G01*
X3042996Y5554979D03*
G01*
X3042996Y5808979D03*
D17*
G01*
X1175004Y6604000D03*
D18*
G01*
X1424990Y6604000D03*
D19*
G01*
X4813300Y660400D03*
D20*
G01*
X4813325Y914400D03*
G01*
X4813325Y1168400D03*
G01*
X4813325Y1422400D03*
D18*
G01*
X4241800Y901700D03*
D17*
G01*
X4241800Y1155700D03*
G01*
X4241800Y1409700D03*
G01*
X4241800Y1663700D03*
G01*
X4241800Y1917700D03*
G01*
X4241800Y2171700D03*
G01*
X4241800Y2425700D03*
G01*
X4241800Y2679700D03*
G01*
X4241800Y2933700D03*
G01*
X4241800Y3187700D03*
G01*
X4241800Y3441700D03*
G01*
X4241800Y3695700D03*
G01*
X4241800Y3949700D03*
D21*
G01*
X3657600Y5552998D03*
D22*
G01*
X3657600Y5806998D03*
D19*
G01*
X249986Y1487982D03*
D20*
G01*
X250012Y1741982D03*
G01*
X250012Y1995982D03*
G01*
X250012Y2249982D03*
G01*
X250012Y2503982D03*
G01*
X250012Y2757982D03*
G01*
X250012Y3011982D03*
D19*
G01*
X249986Y4543983D03*
D20*
G01*
X250012Y4797983D03*
G01*
X250012Y5051983D03*
G01*
X250012Y5305983D03*
M02*
